{
date = "2013-03-12 15:14:42 +0200";
familyName = "Open Sans Hebrew";
fontMaster = (
{
alignmentZones = (
"{1567, 16}",
"{1462, 24}",
"{1290, 30}",
"{1118, 22}",
"{0, -31}",
"{-492, -46}"
);
ascender = 1567;
capHeight = 1462;
descender = "-492";
id = UUID0;
italicAngle = 12;
weight = Bold;
xHeight = 1118;
}
);
glyphs = (
{
glyphname = A;
lastChange = "2013-03-10 16:55:05 +0200";
layers = (
{
layerId = UUID0;
name = "Bold Italic";
paths = (
{
closed = 1;
nodes = (
"866 0 LINE",
"1163 0 LINE",
"1016 1468 LINE",
"643 1468 LINE",
"-123 0 LINE",
"197 0 LINE",
"369 348 LINE",
"842 348 LINE"
);
},
{
closed = 1;
nodes = (
"494 608 LINE",
"682 993 LINE SMOOTH",
"725 1082 OFFCURVE",
"762 1167 OFFCURVE",
"791 1247 CURVE",
"791 1211 LINE SMOOTH",
"791 1130 OFFCURVE",
"794 1045 OFFCURVE",
"801 958 CURVE SMOOTH",
"827 608 LINE"
);
}
);
width = 1286;
}
);
unicode = 0041;
},
{
glyphname = AE;
lastChange = "2013-03-10 16:55:05 +0200";
layers = (
{
layerId = UUID0;
name = "Bold Italic";
paths = (
{
closed = 1;
nodes = (
"1647 256 LINE",
"1135 256 LINE",
"1214 633 LINE",
"1692 633 LINE",
"1747 887 LINE",
"1270 887 LINE",
"1337 1208 LINE",
"1849 1208 LINE",
"1903 1462 LINE",
"799 1462 LINE",
"-123 0 LINE",
"205 0 LINE",
"424 348 LINE",
"850 348 LINE",
"776 0 LINE",
"1593 0 LINE"
);
},
{
closed = 1;
nodes = (
"588 608 LINE",
"952 1208 LINE",
"1032 1208 LINE",
"905 608 LINE"
);
}
);
width = 1833;
}
);
unicode = 00C6;
},
{
glyphname = B;
lastChange = "2013-03-10 16:55:05 +0200";
layers = (
{
layerId = UUID0;
name = "Bold Italic";
paths = (
{
closed = 1;
nodes = (
"362 1462 LINE",
"53 0 LINE",
"575 0 LINE SMOOTH",
"755 0 OFFCURVE",
"896 41 OFFCURVE",
"998 124 CURVE SMOOTH",
"1100 207 OFFCURVE",
"1151 324 OFFCURVE",
"1151 477 CURVE SMOOTH",
"1151 624 OFFCURVE",
"1065 719 OFFCURVE",
"932 754 CURVE",
"932 760 LINE",
"1136 803 OFFCURVE",
"1251 937 OFFCURVE",
"1251 1137 CURVE SMOOTH",
"1251 1353 OFFCURVE",
"1093 1462 OFFCURVE",
"788 1462 CURVE SMOOTH"
);
},
{
closed = 1;
nodes = (
"614 1208 LINE",
"766 1208 LINE SMOOTH",
"879 1208 OFFCURVE",
"936 1162 OFFCURVE",
"936 1071 CURVE SMOOTH",
"936 950 OFFCURVE",
"855 883 OFFCURVE",
"694 883 CURVE SMOOTH",
"545 883 LINE"
);
},
{
closed = 1;
nodes = (
"494 637 LINE",
"659 637 LINE SMOOTH",
"781 637 OFFCURVE",
"842 583 OFFCURVE",
"842 475 CURVE SMOOTH",
"842 338 OFFCURVE",
"748 256 OFFCURVE",
"592 256 CURVE SMOOTH",
"412 256 LINE"
);
}
);
width = 1270;
}
);
unicode = 0042;
},
{
glyphname = C;
lastChange = "2013-03-10 16:55:05 +0200";
layers = (
{
layerId = UUID0;
name = "Bold Italic";
paths = (
{
closed = 1;
nodes = (
"950 1227 OFFCURVE",
"996 1221 OFFCURVE",
"1042 1208 CURVE SMOOTH",
"1088 1195 OFFCURVE",
"1146 1169 OFFCURVE",
"1217 1130 CURVE",
"1335 1380 LINE",
"1261 1420 OFFCURVE",
"1192 1447 OFFCURVE",
"1127 1462 CURVE SMOOTH",
"1062 1477 OFFCURVE",
"988 1485 OFFCURVE",
"905 1485 CURVE SMOOTH",
"604 1485 OFFCURVE",
"366 1330 OFFCURVE",
"227 1035 CURVE SMOOTH",
"158 888 OFFCURVE",
"123 728 OFFCURVE",
"123 553 CURVE SMOOTH",
"123 370 OFFCURVE",
"170 229 OFFCURVE",
"264 129 CURVE SMOOTH",
"358 30 OFFCURVE",
"490 -20 OFFCURVE",
"659 -20 CURVE SMOOTH",
"793 -20 OFFCURVE",
"926 6 OFFCURVE",
"1059 57 CURVE",
"1059 317 LINE",
"931 266 OFFCURVE",
"818 240 OFFCURVE",
"721 240 CURVE SMOOTH",
"521 240 OFFCURVE",
"434 346 OFFCURVE",
"434 569 CURVE SMOOTH",
"434 690 OFFCURVE",
"455 802 OFFCURVE",
"498 907 CURVE SMOOTH",
"541 1012 OFFCURVE",
"597 1092 OFFCURVE",
"667 1146 CURVE SMOOTH",
"738 1200 OFFCURVE",
"817 1227 OFFCURVE",
"905 1227 CURVE SMOOTH"
);
}
);
width = 1253;
}
);
unicode = 0043;
},
{
glyphname = D;
lastChange = "2013-03-10 16:55:05 +0200";
layers = (
{
layerId = UUID0;
name = "Bold Italic";
paths = (
{
closed = 1;
nodes = (
"1323 1087 OFFCURVE",
"1274 1224 OFFCURVE",
"1175 1319 CURVE SMOOTH",
"1077 1414 OFFCURVE",
"938 1462 OFFCURVE",
"758 1462 CURVE SMOOTH",
"362 1462 LINE",
"53 0 LINE",
"504 0 LINE SMOOTH",
"840 0 OFFCURVE",
"1094 147 OFFCURVE",
"1225 422 CURVE SMOOTH",
"1290 560 OFFCURVE",
"1323 722 OFFCURVE",
"1323 909 CURVE SMOOTH"
);
},
{
closed = 1;
nodes = (
"412 256 LINE",
"614 1208 LINE",
"729 1208 LINE SMOOTH",
"910 1208 OFFCURVE",
"1010 1098 OFFCURVE",
"1010 893 CURVE SMOOTH",
"1010 766 OFFCURVE",
"989 654 OFFCURVE",
"948 555 CURVE SMOOTH",
"907 457 OFFCURVE",
"849 383 OFFCURVE",
"776 332 CURVE SMOOTH",
"703 281 OFFCURVE",
"617 256 OFFCURVE",
"518 256 CURVE SMOOTH"
);
}
);
width = 1386;
}
);
unicode = 0044;
},
{
glyphname = E;
lastChange = "2013-03-10 16:55:05 +0200";
layers = (
{
layerId = UUID0;
name = "Bold Italic";
paths = (
{
closed = 1;
nodes = (
"924 256 LINE",
"412 256 LINE",
"492 633 LINE",
"969 633 LINE",
"1024 887 LINE",
"547 887 LINE",
"614 1208 LINE",
"1126 1208 LINE",
"1180 1462 LINE",
"362 1462 LINE",
"53 0 LINE",
"870 0 LINE"
);
}
);
width = 1110;
}
);
unicode = 0045;
},
{
glyphname = F;
lastChange = "2013-03-10 16:55:05 +0200";
layers = (
{
layerId = UUID0;
name = "Bold Italic";
paths = (
{
closed = 1;
nodes = (
"479 578 LINE",
"952 578 LINE",
"1008 831 LINE",
"535 831 LINE",
"614 1208 LINE",
"1122 1208 LINE",
"1176 1462 LINE",
"362 1462 LINE",
"53 0 LINE",
"358 0 LINE"
);
}
);
width = 1087;
}
);
unicode = 0046;
},
{
glyphname = G;
lastChange = "2013-03-10 16:55:05 +0200";
layers = (
{
layerId = UUID0;
name = "Bold Italic";
paths = (
{
closed = 1;
nodes = (
"698 563 LINE",
"965 563 LINE",
"899 264 LINE",
"836 248 OFFCURVE",
"780 240 OFFCURVE",
"729 240 CURVE SMOOTH",
"529 240 OFFCURVE",
"434 344 OFFCURVE",
"434 573 CURVE SMOOTH",
"434 691 OFFCURVE",
"457 801 OFFCURVE",
"502 903 CURVE SMOOTH",
"548 1006 OFFCURVE",
"611 1085 OFFCURVE",
"691 1140 CURVE SMOOTH",
"772 1195 OFFCURVE",
"863 1223 OFFCURVE",
"965 1223 CURVE SMOOTH",
"1081 1223 OFFCURVE",
"1175 1188 OFFCURVE",
"1274 1135 CURVE",
"1389 1386 LINE",
"1261 1452 OFFCURVE",
"1124 1485 OFFCURVE",
"979 1485 CURVE SMOOTH",
"810 1485 OFFCURVE",
"660 1446 OFFCURVE",
"531 1367 CURVE SMOOTH",
"402 1289 OFFCURVE",
"301 1178 OFFCURVE",
"230 1033 CURVE SMOOTH",
"159 889 OFFCURVE",
"123 728 OFFCURVE",
"123 549 CURVE SMOOTH",
"123 366 OFFCURVE",
"170 225 OFFCURVE",
"264 127 CURVE SMOOTH",
"358 29 OFFCURVE",
"491 -20 OFFCURVE",
"664 -20 CURVE SMOOTH",
"749 -20 OFFCURVE",
"830 -14 OFFCURVE",
"906 -3 CURVE SMOOTH",
"983 8 OFFCURVE",
"1066 28 OFFCURVE",
"1155 59 CURVE",
"1317 821 LINE",
"754 821 LINE"
);
}
);
width = 1413;
}
);
unicode = 0047;
},
{
glyphname = H;
lastChange = "2013-03-10 17:08:57 +0200";
layers = (
{
layerId = UUID0;
name = "Bold Italic";
paths = (
{
closed = 1;
nodes = (
"1444 1462 LINE",
"1139 1462 LINE",
"1018 889 LINE",
"547 889 LINE",
"668 1462 LINE",
"362 1462 LINE",
"53 0 LINE",
"358 0 LINE",
"492 631 LINE",
"963 631 LINE",
"829 0 LINE",
"1135 0 LINE"
);
}
);
width = 1434;
}
);
unicode = 0048;
},
{
glyphname = I;
lastChange = "2013-03-10 16:55:05 +0200";
layers = (
{
layerId = UUID0;
name = "Bold Italic";
paths = (
{
closed = 1;
nodes = (
"358 0 LINE",
"670 1462 LINE",
"365 1462 LINE",
"53 0 LINE"
);
}
);
width = 659;
}
);
unicode = 0049;
},
{
glyphname = J;
lastChange = "2013-03-10 16:55:05 +0200";
layers = (
{
layerId = UUID0;
name = "Bold Italic";
paths = (
{
closed = 1;
nodes = (
"14 -430 OFFCURVE",
"129 -393 OFFCURVE",
"211 -318 CURVE SMOOTH",
"294 -243 OFFCURVE",
"352 -124 OFFCURVE",
"387 39 CURVE SMOOTH",
"690 1462 LINE",
"385 1462 LINE",
"92 82 LINE SMOOTH",
"55 -93 OFFCURVE",
"-26 -170 OFFCURVE",
"-158 -170 CURVE SMOOTH",
"-209 -170 OFFCURVE",
"-263 -163 OFFCURVE",
"-322 -150 CURVE",
"-322 -403 LINE",
"-260 -421 OFFCURVE",
"-198 -430 OFFCURVE",
"-135 -430 CURVE SMOOTH"
);
}
);
width = 678;
}
);
unicode = 004A;
},
{
glyphname = K;
lastChange = "2013-03-10 16:55:05 +0200";
layers = (
{
layerId = UUID0;
name = "Bold Italic";
paths = (
{
closed = 1;
nodes = (
"850 762 LINE",
"1444 1462 LINE",
"1083 1462 LINE",
"674 965 LINE",
"516 760 LINE",
"668 1462 LINE",
"362 1462 LINE",
"53 0 LINE",
"358 0 LINE",
"467 522 LINE",
"592 592 LINE",
"803 0 LINE",
"1141 0 LINE"
);
}
);
width = 1255;
}
);
unicode = 004B;
},
{
glyphname = L;
lastChange = "2013-03-10 16:55:05 +0200";
layers = (
{
layerId = UUID0;
name = "Bold Italic";
paths = (
{
closed = 1;
nodes = (
"870 0 LINE",
"924 256 LINE",
"412 256 LINE",
"668 1462 LINE",
"362 1462 LINE",
"53 0 LINE"
);
}
);
width = 1061;
}
);
unicode = 004C;
},
{
glyphname = M;
lastChange = "2013-03-10 16:55:05 +0200";
layers = (
{
layerId = UUID0;
name = "Bold Italic";
paths = (
{
closed = 1;
nodes = (
"834 369 LINE",
"766 1462 LINE",
"362 1462 LINE",
"53 0 LINE",
"328 0 LINE",
"435 506 OFFCURVE",
"497 807 OFFCURVE",
"515 902 CURVE SMOOTH",
"533 997 OFFCURVE",
"546 1074 OFFCURVE",
"553 1133 CURVE",
"557 1133 LINE",
"618 0 LINE",
"899 0 LINE",
"1468 1133 LINE",
"1473 1133 LINE",
"1438 1004 OFFCURVE",
"1403 857 OFFCURVE",
"1368 692 CURVE SMOOTH",
"1223 0 LINE",
"1503 0 LINE",
"1812 1462 LINE",
"1389 1462 LINE",
"838 369 LINE"
);
}
);
width = 1802;
}
);
unicode = 004D;
},
{
glyphname = N;
lastChange = "2013-03-10 16:55:05 +0200";
layers = (
{
layerId = UUID0;
name = "Bold Italic";
paths = (
{
closed = 1;
nodes = (
"1556 1462 LINE",
"1282 1462 LINE",
"1180 983 OFFCURVE",
"1120 696 OFFCURVE",
"1102 602 CURVE SMOOTH",
"1084 508 OFFCURVE",
"1071 436 OFFCURVE",
"1063 385 CURVE",
"1059 385 LINE",
"719 1462 LINE",
"362 1462 LINE",
"53 0 LINE",
"328 0 LINE",
"473 688 LINE",
"496 801 OFFCURVE",
"518 930 OFFCURVE",
"539 1074 CURVE SMOOTH",
"543 1106 LINE",
"549 1106 LINE",
"905 0 LINE",
"1247 0 LINE"
);
}
);
width = 1546;
}
);
unicode = 004E;
},
{
glyphname = O;
lastChange = "2013-03-10 16:55:05 +0200";
layers = (
{
layerId = UUID0;
name = "Bold Italic";
paths = (
{
closed = 1;
nodes = (
"1432 1111 OFFCURVE",
"1385 1245 OFFCURVE",
"1292 1341 CURVE SMOOTH",
"1199 1437 OFFCURVE",
"1067 1485 OFFCURVE",
"897 1485 CURVE SMOOTH",
"593 1485 OFFCURVE",
"354 1321 OFFCURVE",
"222 1024 CURVE SMOOTH",
"156 876 OFFCURVE",
"123 714 OFFCURVE",
"123 537 CURVE SMOOTH",
"123 362 OFFCURVE",
"171 226 OFFCURVE",
"266 127 CURVE",
"362 29 OFFCURVE",
"495 -20 OFFCURVE",
"666 -20 CURVE SMOOTH",
"965 -20 OFFCURVE",
"1201 134 OFFCURVE",
"1333 431 CURVE SMOOTH",
"1399 580 OFFCURVE",
"1432 749 OFFCURVE",
"1432 938 CURVE SMOOTH"
);
},
{
closed = 1;
nodes = (
"1029 1227 OFFCURVE",
"1120 1119 OFFCURVE",
"1120 930 CURVE SMOOTH",
"1120 798 OFFCURVE",
"1101 679 OFFCURVE",
"1064 573 CURVE SMOOTH",
"1027 467 OFFCURVE",
"975 385 OFFCURVE",
"908 327 CURVE SMOOTH",
"842 269 OFFCURVE",
"769 240 OFFCURVE",
"688 240 CURVE SMOOTH",
"527 240 OFFCURVE",
"434 341 OFFCURVE",
"434 537 CURVE SMOOTH",
"434 662 OFFCURVE",
"453 777 OFFCURVE",
"491 884 CURVE SMOOTH",
"530 991 OFFCURVE",
"583 1074 OFFCURVE",
"650 1135 CURVE SMOOTH",
"717 1196 OFFCURVE",
"791 1227 OFFCURVE",
"872 1227 CURVE SMOOTH"
);
}
);
width = 1495;
}
);
unicode = 004F;
},
{
glyphname = Oslash;
lastChange = "2013-03-10 16:55:05 +0200";
layers = (
{
layerId = UUID0;
name = "Bold Italic";
paths = (
{
closed = 1;
nodes = (
"1432 1075 OFFCURVE",
"1402 1189 OFFCURVE",
"1341 1278 CURVE",
"1458 1423 LINE",
"1307 1540 LINE",
"1202 1409 LINE",
"1120 1460 OFFCURVE",
"1018 1485 OFFCURVE",
"897 1485 CURVE SMOOTH",
"593 1485 OFFCURVE",
"354 1321 OFFCURVE",
"222 1024 CURVE SMOOTH",
"156 876 OFFCURVE",
"123 714 OFFCURVE",
"123 537 CURVE SMOOTH",
"123 391 OFFCURVE",
"156 272 OFFCURVE",
"221 180 CURVE",
"100 29 LINE",
"254 -86 LINE",
"362 51 LINE",
"445 4 OFFCURVE",
"546 -20 OFFCURVE",
"666 -20 CURVE SMOOTH",
"965 -20 OFFCURVE",
"1201 134 OFFCURVE",
"1333 431 CURVE SMOOTH",
"1399 580 OFFCURVE",
"1432 749 OFFCURVE",
"1432 938 CURVE SMOOTH"
);
},
{
closed = 1;
nodes = (
"929 1233 OFFCURVE",
"982 1219 OFFCURVE",
"1028 1190 CURVE",
"432 436 LINE",
"427 482 OFFCURVE",
"424 516 OFFCURVE",
"424 537 CURVE SMOOTH",
"424 664 OFFCURVE",
"443 782 OFFCURVE",
"481 889 CURVE SMOOTH",
"519 996 OFFCURVE",
"572 1080 OFFCURVE",
"641 1141 CURVE SMOOTH",
"710 1202 OFFCURVE",
"786 1233 OFFCURVE",
"870 1233 CURVE SMOOTH"
);
},
{
closed = 1;
nodes = (
"1133 930 LINE",
"1139 528 OFFCURVE",
"940 228 OFFCURVE",
"692 233 CURVE",
"629 233 OFFCURVE",
"578 245 OFFCURVE",
"539 270 CURVE",
"1128 1010 LINE"
);
}
);
width = 1495;
}
);
unicode = 00D8;
},
{
glyphname = OE;
lastChange = "2013-03-10 16:55:05 +0200";
layers = (
{
layerId = UUID0;
name = "Bold Italic";
paths = (
{
closed = 1;
nodes = (
"1659 256 LINE",
"1147 256 LINE",
"1227 633 LINE",
"1704 633 LINE",
"1759 887 LINE",
"1282 887 LINE",
"1350 1208 LINE",
"1862 1208 LINE",
"1915 1462 LINE",
"1106 1462 LINE",
"1060 1477 OFFCURVE",
"990 1485 OFFCURVE",
"897 1485 CURVE SMOOTH",
"593 1485 OFFCURVE",
"354 1321 OFFCURVE",
"222 1024 CURVE SMOOTH",
"156 876 OFFCURVE",
"123 714 OFFCURVE",
"123 537 CURVE SMOOTH",
"123 362 OFFCURVE",
"171 226 OFFCURVE",
"266 127 CURVE",
"362 29 OFFCURVE",
"495 -20 OFFCURVE",
"666 -20 CURVE SMOOTH",
"724 -20 OFFCURVE",
"784 -13 OFFCURVE",
"846 0 CURVE",
"1606 0 LINE"
);
},
{
closed = 1;
nodes = (
"527 240 OFFCURVE",
"434 341 OFFCURVE",
"434 537 CURVE SMOOTH",
"434 662 OFFCURVE",
"453 777 OFFCURVE",
"491 884 CURVE SMOOTH",
"530 991 OFFCURVE",
"583 1074 OFFCURVE",
"650 1135 CURVE SMOOTH",
"717 1196 OFFCURVE",
"791 1227 OFFCURVE",
"872 1227 CURVE SMOOTH",
"943 1227 OFFCURVE",
"999 1214 OFFCURVE",
"1040 1188 CURVE",
"846 272 LINE",
"799 251 OFFCURVE",
"747 240 OFFCURVE",
"688 240 CURVE SMOOTH"
);
}
);
width = 1845;
}
);
unicode = 0152;
},
{
glyphname = P;
lastChange = "2013-03-10 16:55:05 +0200";
layers = (
{
layerId = UUID0;
name = "Bold Italic";
paths = (
{
closed = 1;
nodes = (
"614 1208 LINE",
"688 1208 LINE SMOOTH",
"818 1208 OFFCURVE",
"883 1148 OFFCURVE",
"883 1028 CURVE SMOOTH",
"883 951 OFFCURVE",
"856 889 OFFCURVE",
"801 843 CURVE SMOOTH",
"747 797 OFFCURVE",
"673 774 OFFCURVE",
"578 774 CURVE SMOOTH",
"522 774 LINE"
);
},
{
closed = 1;
nodes = (
"1190 1320 OFFCURVE",
"1023 1462 OFFCURVE",
"700 1462 CURVE SMOOTH",
"362 1462 LINE",
"53 0 LINE",
"358 0 LINE",
"467 520 LINE",
"553 520 LINE SMOOTH",
"752 520 OFFCURVE",
"907 566 OFFCURVE",
"1020 657 CURVE SMOOTH",
"1133 749 OFFCURVE",
"1190 875 OFFCURVE",
"1190 1036 CURVE SMOOTH"
);
}
);
width = 1188;
}
);
unicode = 0050;
},
{
glyphname = Q;
lastChange = "2013-03-10 16:55:05 +0200";
layers = (
{
layerId = UUID0;
name = "Bold Italic";
paths = (
{
closed = 1;
nodes = (
"1432 1111 OFFCURVE",
"1385 1245 OFFCURVE",
"1292 1341 CURVE SMOOTH",
"1199 1437 OFFCURVE",
"1067 1485 OFFCURVE",
"897 1485 CURVE SMOOTH",
"593 1485 OFFCURVE",
"354 1321 OFFCURVE",
"222 1024 CURVE SMOOTH",
"156 876 OFFCURVE",
"123 714 OFFCURVE",
"123 537 CURVE SMOOTH",
"123 362 OFFCURVE",
"171 226 OFFCURVE",
"266 127 CURVE",
"362 29 OFFCURVE",
"495 -20 OFFCURVE",
"666 -20 CURVE SMOOTH",
"692 -20 LINE",
"870 -348 LINE",
"1229 -348 LINE",
"975 45 LINE",
"1116 110 OFFCURVE",
"1228 223 OFFCURVE",
"1309 382 CURVE SMOOTH",
"1391 542 OFFCURVE",
"1432 727 OFFCURVE",
"1432 938 CURVE SMOOTH"
);
},
{
closed = 1;
nodes = (
"1029 1227 OFFCURVE",
"1120 1119 OFFCURVE",
"1120 930 CURVE SMOOTH",
"1120 798 OFFCURVE",
"1101 679 OFFCURVE",
"1064 573 CURVE SMOOTH",
"1027 467 OFFCURVE",
"975 385 OFFCURVE",
"908 327 CURVE SMOOTH",
"842 269 OFFCURVE",
"769 240 OFFCURVE",
"688 240 CURVE SMOOTH",
"527 240 OFFCURVE",
"434 341 OFFCURVE",
"434 537 CURVE SMOOTH",
"434 662 OFFCURVE",
"453 777 OFFCURVE",
"491 884 CURVE SMOOTH",
"530 991 OFFCURVE",
"583 1074 OFFCURVE",
"650 1135 CURVE SMOOTH",
"717 1196 OFFCURVE",
"791 1227 OFFCURVE",
"872 1227 CURVE SMOOTH"
);
}
);
width = 1495;
}
);
unicode = 0051;
},
{
glyphname = R;
lastChange = "2013-03-10 16:55:05 +0200";
layers = (
{
layerId = UUID0;
name = "Bold Italic";
paths = (
{
closed = 1;
nodes = (
"614 1208 LINE",
"688 1208 LINE SMOOTH",
"824 1208 OFFCURVE",
"885 1153 OFFCURVE",
"885 1044 CURVE SMOOTH",
"885 888 OFFCURVE",
"783 813 OFFCURVE",
"608 813 CURVE SMOOTH",
"530 813 LINE"
);
},
{
closed = 1;
nodes = (
"596 561 LINE",
"803 0 LINE",
"1135 0 LINE",
"874 621 LINE",
"1082 694 OFFCURVE",
"1196 850 OFFCURVE",
"1196 1061 CURVE SMOOTH",
"1196 1324 OFFCURVE",
"1037 1462 OFFCURVE",
"721 1462 CURVE SMOOTH",
"362 1462 LINE",
"53 0 LINE",
"358 0 LINE",
"477 561 LINE"
);
}
);
width = 1247;
}
);
unicode = 0052;
},
{
glyphname = S;
lastChange = "2013-03-10 16:55:05 +0200";
layers = (
{
layerId = UUID0;
name = "Bold Italic";
paths = (
{
closed = 1;
nodes = (
"946 604 OFFCURVE",
"866 727 OFFCURVE",
"705 834 CURVE SMOOTH",
"628 884 OFFCURVE",
"579 924 OFFCURVE",
"557 954 CURVE SMOOTH",
"535 985 OFFCURVE",
"524 1020 OFFCURVE",
"524 1061 CURVE SMOOTH",
"524 1110 OFFCURVE",
"542 1150 OFFCURVE",
"577 1180 CURVE SMOOTH",
"612 1210 OFFCURVE",
"658 1225 OFFCURVE",
"713 1225 CURVE SMOOTH",
"801 1225 OFFCURVE",
"897 1200 OFFCURVE",
"1001 1151 CURVE",
"1110 1384 LINE",
"990 1450 OFFCURVE",
"858 1483 OFFCURVE",
"713 1483 CURVE",
"415 1487 OFFCURVE",
"207 1295 OFFCURVE",
"211 1038 CURVE",
"211 963 OFFCURVE",
"230 894 OFFCURVE",
"267 829 CURVE SMOOTH",
"304 764 OFFCURVE",
"369 699 OFFCURVE",
"461 633 CURVE",
"527 584 OFFCURVE",
"568 550 OFFCURVE",
"585 531 CURVE SMOOTH",
"602 512 OFFCURVE",
"614 492 OFFCURVE",
"623 470 CURVE SMOOTH",
"632 449 OFFCURVE",
"637 424 OFFCURVE",
"637 395 CURVE SMOOTH",
"637 296 OFFCURVE",
"548 236 OFFCURVE",
"399 236 CURVE SMOOTH",
"289 236 OFFCURVE",
"170 272 OFFCURVE",
"41 344 CURVE",
"41 70 LINE",
"131 10 OFFCURVE",
"250 -20 OFFCURVE",
"397 -20 CURVE SMOOTH",
"566 -20 OFFCURVE",
"699 20 OFFCURVE",
"798 101 CURVE SMOOTH",
"897 182 OFFCURVE",
"946 293 OFFCURVE",
"946 432 CURVE SMOOTH"
);
}
);
width = 1085;
}
);
unicode = 0053;
},
{
glyphname = T;
lastChange = "2013-03-10 16:55:05 +0200";
layers = (
{
layerId = UUID0;
name = "Bold Italic";
paths = (
{
closed = 1;
nodes = (
"825 1204 LINE",
"1178 1204 LINE",
"1233 1462 LINE",
"223 1462 LINE",
"168 1204 LINE",
"520 1204 LINE",
"266 0 LINE",
"571 0 LINE"
);
}
);
width = 1087;
}
);
unicode = 0054;
},
{
glyphname = U;
lastChange = "2013-03-10 16:55:05 +0200";
layers = (
{
layerId = UUID0;
name = "Bold Italic";
paths = (
{
closed = 1;
nodes = (
"1128 1462 LINE",
"934 545 LINE SMOOTH",
"891 342 OFFCURVE",
"799 240 OFFCURVE",
"635 240 CURVE SMOOTH",
"509 240 OFFCURVE",
"446 299 OFFCURVE",
"446 418 CURVE SMOOTH",
"446 452 OFFCURVE",
"452 494 OFFCURVE",
"463 543 CURVE",
"657 1462 LINE",
"352 1462 LINE",
"156 539 LINE",
"146 495 OFFCURVE",
"141 449 OFFCURVE",
"141 401 CURVE SMOOTH",
"141 272 OFFCURVE",
"181 169 OFFCURVE",
"262 93 CURVE SMOOTH",
"343 18 OFFCURVE",
"455 -20 OFFCURVE",
"596 -20 CURVE SMOOTH",
"940 -20 OFFCURVE",
"1157 161 OFFCURVE",
"1233 516 CURVE SMOOTH",
"1434 1462 LINE"
);
}
);
width = 1415;
}
);
unicode = 0055;
},
{
glyphname = V;
lastChange = "2013-03-10 16:55:05 +0200";
layers = (
{
layerId = UUID0;
name = "Bold Italic";
paths = (
{
closed = 1;
nodes = (
"528 299 LINE",
"531 330 OFFCURVE",
"533 380 OFFCURVE",
"534 449 CURVE SMOOTH",
"534 508 OFFCURVE",
"533 552 OFFCURVE",
"530 582 CURVE",
"479 1462 LINE",
"184 1462 LINE",
"311 0 LINE",
"645 0 LINE",
"1393 1462 LINE",
"1077 1462 LINE",
"645 582 LINE",
"624 541 OFFCURVE",
"587 446 OFFCURVE",
"535 299 CURVE"
);
}
);
width = 1208;
}
);
unicode = 0056;
},
{
glyphname = W;
lastChange = "2013-03-10 16:55:05 +0200";
layers = (
{
layerId = UUID0;
name = "Bold Italic";
paths = (
{
closed = 1;
nodes = (
"1010 1018 LINE",
"1007 971 OFFCURVE",
"1006 919 OFFCURVE",
"1006 860 CURVE",
"1008 721 LINE",
"1030 0 LINE",
"1376 0 LINE",
"2023 1462 LINE",
"1714 1462 LINE",
"1384 666 LINE",
"1325 519 OFFCURVE",
"1282 403 OFFCURVE",
"1253 317 CURVE",
"1247 317 LINE",
"1253 401 OFFCURVE",
"1256 492 OFFCURVE",
"1256 589 CURVE",
"1235 1462 LINE",
"965 1462 LINE",
"596 643 LINE",
"586 624 OFFCURVE",
"566 575 OFFCURVE",
"536 497 CURVE SMOOTH",
"506 420 OFFCURVE",
"484 360 OFFCURVE",
"469 317 CURVE",
"463 317 LINE",
"467 352 OFFCURVE",
"470 410 OFFCURVE",
"473 491 CURVE SMOOTH",
"476 572 OFFCURVE",
"477 629 OFFCURVE",
"477 664 CURVE SMOOTH",
"471 1462 LINE",
"184 1462 LINE",
"229 0 LINE",
"567 0 LINE",
"891 719 LINE SMOOTH",
"937 821 OFFCURVE",
"975 921 OFFCURVE",
"1006 1018 CURVE"
);
}
);
width = 1831;
}
);
unicode = 0057;
},
{
glyphname = X;
lastChange = "2013-03-10 16:55:05 +0200";
layers = (
{
layerId = UUID0;
name = "Bold Italic";
paths = (
{
closed = 1;
nodes = (
"856 737 LINE",
"1401 1462 LINE",
"1057 1462 LINE",
"694 944 LINE",
"541 1462 LINE",
"221 1462 LINE",
"459 764 LINE",
"-117 0 LINE",
"225 0 LINE",
"621 543 LINE",
"793 0 LINE",
"1124 0 LINE"
);
}
);
width = 1241;
}
);
unicode = 0058;
},
{
glyphname = Y;
lastChange = "2013-03-10 16:55:05 +0200";
layers = (
{
layerId = UUID0;
name = "Bold Italic";
paths = (
{
closed = 1;
nodes = (
"498 1462 LINE",
"186 1462 LINE",
"422 559 LINE",
"303 0 LINE",
"606 0 LINE",
"725 559 LINE",
"1343 1462 LINE",
"1001 1462 LINE",
"627 870 LINE"
);
}
);
width = 1155;
}
);
unicode = 0059;
},
{
glyphname = Z;
lastChange = "2013-03-10 16:55:05 +0200";
layers = (
{
layerId = UUID0;
name = "Bold Italic";
paths = (
{
closed = 1;
nodes = (
"973 256 LINE",
"377 256 LINE",
"1159 1260 LINE",
"1200 1462 LINE",
"264 1462 LINE",
"211 1206 LINE",
"754 1206 LINE",
"-23 201 LINE",
"-61 0 LINE",
"920 0 LINE"
);
}
);
width = 1098;
}
);
unicode = 005A;
},
{
glyphname = a;
lastChange = "2013-03-10 16:55:05 +0200";
layers = (
{
layerId = UUID0;
name = "Bold Italic";
paths = (
{
closed = 1;
nodes = (
"529 -20 OFFCURVE",
"636 35 OFFCURVE",
"725 145 CURVE",
"729 145 LINE",
"715 0 LINE",
"944 0 LINE",
"1182 1118 LINE",
"950 1118 LINE",
"893 975 LINE",
"885 975 LINE",
"833 1082 OFFCURVE",
"737 1139 OFFCURVE",
"608 1139 CURVE SMOOTH",
"515 1139 OFFCURVE",
"429 1106 OFFCURVE",
"351 1040 CURVE SMOOTH",
"273 975 OFFCURVE",
"210 882 OFFCURVE",
"162 762 CURVE SMOOTH",
"114 643 OFFCURVE",
"90 517 OFFCURVE",
"90 385 CURVE SMOOTH",
"90 257 OFFCURVE",
"118 157 OFFCURVE",
"174 86 CURVE SMOOTH",
"231 15 OFFCURVE",
"308 -20 OFFCURVE",
"406 -20 CURVE SMOOTH"
);
},
{
closed = 1;
nodes = (
"441 223 OFFCURVE",
"395 282 OFFCURVE",
"395 399 CURVE SMOOTH",
"395 476 OFFCURVE",
"407 554 OFFCURVE",
"431 633 CURVE SMOOTH",
"456 712 OFFCURVE",
"488 775 OFFCURVE",
"529 823 CURVE SMOOTH",
"570 871 OFFCURVE",
"614 895 OFFCURVE",
"659 895 CURVE SMOOTH",
"701 895 OFFCURVE",
"735 879 OFFCURVE",
"760 848 CURVE SMOOTH",
"786 817 OFFCURVE",
"799 778 OFFCURVE",
"799 731 CURVE",
"803 445 OFFCURVE",
"661 221 OFFCURVE",
"524 223 CURVE"
);
}
);
width = 1217;
}
);
unicode = 0061;
},
{
glyphname = ae;
lastChange = "2013-03-10 16:55:05 +0200";
layers = (
{
layerId = UUID0;
name = "Bold Italic";
paths = (
{
closed = 1;
nodes = (
"1327 -20 OFFCURVE",
"1448 9 OFFCURVE",
"1567 66 CURVE",
"1567 293 LINE",
"1516 266 OFFCURVE",
"1462 245 OFFCURVE",
"1405 230 CURVE SMOOTH",
"1348 215 OFFCURVE",
"1297 207 OFFCURVE",
"1253 207 CURVE SMOOTH",
"1114 207 OFFCURVE",
"1038 278 OFFCURVE",
"1038 406 CURVE SMOOTH",
"1038 425 LINE",
"1040 444 LINE",
"1092 444 LINE SMOOTH",
"1298 444 OFFCURVE",
"1457 478 OFFCURVE",
"1568 545 CURVE SMOOTH",
"1679 613 OFFCURVE",
"1735 709 OFFCURVE",
"1735 834 CURVE SMOOTH",
"1735 926 OFFCURVE",
"1705 1000 OFFCURVE",
"1645 1055 CURVE",
"1586 1111 OFFCURVE",
"1504 1139 OFFCURVE",
"1399 1139 CURVE SMOOTH",
"1276 1139 OFFCURVE",
"1169 1093 OFFCURVE",
"1110 1028 CURVE",
"1128 1118 LINE",
"940 1118 LINE",
"883 975 LINE",
"877 975 LINE",
"810 1091 OFFCURVE",
"730 1139 OFFCURVE",
"602 1139 CURVE SMOOTH",
"507 1139 OFFCURVE",
"421 1105 OFFCURVE",
"343 1037 CURVE SMOOTH",
"266 970 OFFCURVE",
"204 877 OFFCURVE",
"158 760 CURVE SMOOTH",
"113 643 OFFCURVE",
"90 518 OFFCURVE",
"90 385 CURVE SMOOTH",
"90 260 OFFCURVE",
"117 162 OFFCURVE",
"171 89 CURVE SMOOTH",
"226 16 OFFCURVE",
"302 -20 OFFCURVE",
"399 -20 CURVE SMOOTH",
"522 -20 OFFCURVE",
"618 28 OFFCURVE",
"713 145 CURVE",
"719 145 LINE",
"705 0 LINE",
"893 0 LINE",
"909 94 LINE",
"972 14 OFFCURVE",
"1061 -20 OFFCURVE",
"1206 -20 CURVE SMOOTH"
);
},
{
closed = 1;
nodes = (
"441 223 OFFCURVE",
"395 287 OFFCURVE",
"395 399 CURVE SMOOTH",
"395 482 OFFCURVE",
"407 563 OFFCURVE",
"430 640 CURVE SMOOTH",
"453 718 OFFCURVE",
"485 780 OFFCURVE",
"525 826 CURVE SMOOTH",
"565 872 OFFCURVE",
"608 895 OFFCURVE",
"653 895 CURVE SMOOTH",
"745 895 OFFCURVE",
"788 826 OFFCURVE",
"788 719 CURVE SMOOTH",
"788 634 OFFCURVE",
"776 553 OFFCURVE",
"751 475 CURVE SMOOTH",
"726 398 OFFCURVE",
"693 336 OFFCURVE",
"652 291 CURVE SMOOTH",
"611 246 OFFCURVE",
"566 223 OFFCURVE",
"518 223 CURVE SMOOTH"
);
},
{
closed = 1;
nodes = (
"1411 922 OFFCURVE",
"1446 890 OFFCURVE",
"1446 827 CURVE SMOOTH",
"1446 716 OFFCURVE",
"1325 647 OFFCURVE",
"1118 647 CURVE SMOOTH",
"1073 647 LINE",
"1089 724 OFFCURVE",
"1123 789 OFFCURVE",
"1175 842 CURVE SMOOTH",
"1227 895 OFFCURVE",
"1282 922 OFFCURVE",
"1341 922 CURVE SMOOTH"
);
}
);
width = 1786;
}
);
unicode = 00E6;
},
{
glyphname = b;
lastChange = "2013-03-10 16:55:05 +0200";
layers = (
{
layerId = UUID0;
name = "Bold Italic";
paths = (
{
closed = 1;
nodes = (
"762 1139 OFFCURVE",
"715 1127 OFFCURVE",
"672 1103 CURVE SMOOTH",
"629 1079 OFFCURVE",
"582 1034 OFFCURVE",
"530 969 CURVE",
"522 969 LINE",
"551 1047 OFFCURVE",
"579 1147 OFFCURVE",
"606 1268 CURVE",
"668 1556 LINE",
"367 1556 LINE",
"37 0 LINE",
"268 0 LINE",
"326 143 LINE",
"334 143 LINE",
"389 34 OFFCURVE",
"481 -20 OFFCURVE",
"610 -20 CURVE SMOOTH",
"706 -20 OFFCURVE",
"794 15 OFFCURVE",
"873 84 CURVE SMOOTH",
"952 153 OFFCURVE",
"1015 247 OFFCURVE",
"1060 365 CURVE SMOOTH",
"1105 484 OFFCURVE",
"1128 606 OFFCURVE",
"1128 733 CURVE SMOOTH",
"1128 860 OFFCURVE",
"1100 959 OFFCURVE",
"1043 1031 CURVE SMOOTH",
"987 1103 OFFCURVE",
"910 1139 OFFCURVE",
"813 1139 CURVE SMOOTH"
);
},
{
closed = 1;
nodes = (
"779 895 OFFCURVE",
"823 836 OFFCURVE",
"823 719 CURVE SMOOTH",
"823 641 OFFCURVE",
"810 562 OFFCURVE",
"785 481 CURVE SMOOTH",
"760 401 OFFCURVE",
"728 338 OFFCURVE",
"687 292 CURVE SMOOTH",
"646 246 OFFCURVE",
"604 223 OFFCURVE",
"559 223 CURVE SMOOTH",
"472 223 OFFCURVE",
"420 292 OFFCURVE",
"420 399 CURVE SMOOTH",
"420 489 OFFCURVE",
"433 572 OFFCURVE",
"460 649 CURVE SMOOTH",
"487 726 OFFCURVE",
"521 787 OFFCURVE",
"562 830 CURVE SMOOTH",
"603 873 OFFCURVE",
"647 895 OFFCURVE",
"692 895 CURVE SMOOTH"
);
}
);
width = 1219;
}
);
unicode = 0062;
},
{
glyphname = c;
lastChange = "2013-03-10 16:55:05 +0200";
layers = (
{
layerId = UUID0;
name = "Bold Italic";
paths = (
{
closed = 1;
nodes = (
"629 -20 OFFCURVE",
"741 6 OFFCURVE",
"842 59 CURVE",
"842 305 LINE",
"750 258 OFFCURVE",
"668 223 OFFCURVE",
"567 223 CURVE SMOOTH",
"459 223 OFFCURVE",
"395 288 OFFCURVE",
"395 416 CURVE SMOOTH",
"395 501 OFFCURVE",
"408 581 OFFCURVE",
"433 655 CURVE SMOOTH",
"459 730 OFFCURVE",
"495 788 OFFCURVE",
"540 831 CURVE SMOOTH",
"586 874 OFFCURVE",
"637 895 OFFCURVE",
"694 895 CURVE SMOOTH",
"782 895 OFFCURVE",
"846 869 OFFCURVE",
"918 838 CURVE",
"1010 1067 LINE",
"913 1115 OFFCURVE",
"803 1139 OFFCURVE",
"682 1139 CURVE SMOOTH",
"567 1139 OFFCURVE",
"464 1107 OFFCURVE",
"374 1044 CURVE SMOOTH",
"284 981 OFFCURVE",
"214 892 OFFCURVE",
"164 776 CURVE SMOOTH",
"115 661 OFFCURVE",
"90 532 OFFCURVE",
"90 391 CURVE SMOOTH",
"90 130 OFFCURVE",
"238 -20 OFFCURVE",
"506 -20 CURVE SMOOTH"
);
}
);
width = 989;
}
);
unicode = 0063;
},
{
glyphname = d;
lastChange = "2013-03-10 16:55:05 +0200";
layers = (
{
layerId = UUID0;
name = "Bold Italic";
paths = (
{
closed = 1;
nodes = (
"530 -20 OFFCURVE",
"630 29 OFFCURVE",
"725 145 CURVE",
"729 145 LINE",
"715 0 LINE",
"944 0 LINE",
"1274 1556 LINE",
"973 1556 LINE",
"897 1198 LINE",
"884 1141 OFFCURVE",
"876 1076 OFFCURVE",
"872 1003 CURVE SMOOTH",
"870 975 LINE",
"862 975 LINE",
"791 1095 OFFCURVE",
"717 1139 OFFCURVE",
"608 1139 CURVE SMOOTH",
"514 1139 OFFCURVE",
"428 1106 OFFCURVE",
"350 1039 CURVE SMOOTH",
"272 973 OFFCURVE",
"209 880 OFFCURVE",
"161 761 CURVE SMOOTH",
"114 642 OFFCURVE",
"90 518 OFFCURVE",
"90 387 CURVE SMOOTH",
"90 258 OFFCURVE",
"118 158 OFFCURVE",
"174 87 CURVE SMOOTH",
"231 16 OFFCURVE",
"308 -20 OFFCURVE",
"406 -20 CURVE SMOOTH"
);
},
{
closed = 1;
nodes = (
"441 223 OFFCURVE",
"395 282 OFFCURVE",
"395 399 CURVE SMOOTH",
"395 476 OFFCURVE",
"407 554 OFFCURVE",
"431 633 CURVE SMOOTH",
"456 712 OFFCURVE",
"488 775 OFFCURVE",
"529 823 CURVE SMOOTH",
"570 871 OFFCURVE",
"614 895 OFFCURVE",
"659 895 CURVE SMOOTH",
"746 895 OFFCURVE",
"799 826 OFFCURVE",
"799 719 CURVE",
"804 460 OFFCURVE",
"663 217 OFFCURVE",
"532 223 CURVE"
);
}
);
width = 1217;
}
);
unicode = 0064;
},
{
glyphname = e;
lastChange = "2013-03-10 16:55:05 +0200";
layers = (
{
layerId = UUID0;
name = "Bold Italic";
paths = (
{
closed = 1;
nodes = (
"766 922 OFFCURVE",
"801 890 OFFCURVE",
"801 827 CURVE SMOOTH",
"801 716 OFFCURVE",
"680 647 OFFCURVE",
"473 647 CURVE SMOOTH",
"428 647 LINE",
"444 724 OFFCURVE",
"478 789 OFFCURVE",
"530 842 CURVE SMOOTH",
"582 895 OFFCURVE",
"637 922 OFFCURVE",
"696 922 CURVE SMOOTH"
);
},
{
closed = 1;
nodes = (
"677 -20 OFFCURVE",
"807 9 OFFCURVE",
"922 66 CURVE",
"922 293 LINE",
"855 261 OFFCURVE",
"797 239 OFFCURVE",
"750 226 CURVE SMOOTH",
"703 213 OFFCURVE",
"650 207 OFFCURVE",
"592 207 CURVE SMOOTH",
"464 207 OFFCURVE",
"393 282 OFFCURVE",
"393 403 CURVE SMOOTH",
"393 423 LINE",
"395 444 LINE",
"446 444 LINE SMOOTH",
"653 444 OFFCURVE",
"812 478 OFFCURVE",
"923 545 CURVE SMOOTH",
"1034 613 OFFCURVE",
"1090 709 OFFCURVE",
"1090 834 CURVE SMOOTH",
"1090 929 OFFCURVE",
"1057 1003 OFFCURVE",
"991 1057 CURVE SMOOTH",
"925 1112 OFFCURVE",
"833 1139 OFFCURVE",
"715 1139 CURVE SMOOTH",
"478 1139 OFFCURVE",
"283 1017 OFFCURVE",
"172 789 CURVE SMOOTH",
"117 676 OFFCURVE",
"90 550 OFFCURVE",
"90 412 CURVE SMOOTH",
"90 275 OFFCURVE",
"129 168 OFFCURVE",
"206 93 CURVE SMOOTH",
"283 18 OFFCURVE",
"392 -20 OFFCURVE",
"532 -20 CURVE SMOOTH"
);
}
);
width = 1141;
}
);
unicode = 0065;
},
{
glyphname = f;
lastChange = "2013-03-10 16:55:05 +0200";
layers = (
{
layerId = UUID0;
name = "Bold Italic";
paths = (
{
closed = 1;
nodes = (
"172 -492 OFFCURVE",
"307 -368 OFFCURVE",
"358 -121 CURVE",
"573 889 LINE",
"793 889 LINE",
"842 1118 LINE",
"623 1118 LINE",
"635 1180 LINE SMOOTH",
"651 1267 OFFCURVE",
"698 1325 OFFCURVE",
"774 1325 CURVE SMOOTH",
"817 1325 OFFCURVE",
"861 1315 OFFCURVE",
"907 1294 CURVE",
"987 1518 LINE",
"918 1551 OFFCURVE",
"839 1567 OFFCURVE",
"752 1567 CURVE SMOOTH",
"517 1567 OFFCURVE",
"395 1455 OFFCURVE",
"340 1202 CURVE SMOOTH",
"322 1118 LINE",
"139 1034 LINE",
"109 889 LINE",
"272 889 LINE",
"68 -76 LINE SMOOTH",
"43 -196 OFFCURVE",
"-23 -246 OFFCURVE",
"-104 -246 CURVE SMOOTH",
"-140 -246 OFFCURVE",
"-178 -239 OFFCURVE",
"-219 -225 CURVE",
"-219 -467 LINE",
"-172 -484 OFFCURVE",
"-114 -492 OFFCURVE",
"-45 -492 CURVE SMOOTH"
);
}
);
width = 764;
}
);
unicode = 0066;
},
{
glyphname = g;
lastChange = "2013-03-10 16:55:05 +0200";
layers = (
{
layerId = UUID0;
name = "Bold Italic";
paths = (
{
closed = 1;
nodes = (
"791 1116 LINE",
"736 1131 OFFCURVE",
"680 1139 OFFCURVE",
"625 1139 CURVE SMOOTH",
"481 1139 OFFCURVE",
"367 1100 OFFCURVE",
"283 1022 CURVE SMOOTH",
"200 945 OFFCURVE",
"158 840 OFFCURVE",
"158 707 CURVE SMOOTH",
"158 587 OFFCURVE",
"198 507 OFFCURVE",
"285 442 CURVE",
"149 379 OFFCURVE",
"94 316 OFFCURVE",
"94 221 CURVE SMOOTH",
"94 164 OFFCURVE",
"119 119 OFFCURVE",
"168 88 CURVE",
"-27 24 OFFCURVE",
"-115 -73 OFFCURVE",
"-115 -209 CURVE SMOOTH",
"-115 -297 OFFCURVE",
"-76 -366 OFFCURVE",
"1 -416 CURVE SMOOTH",
"79 -467 OFFCURVE",
"187 -492 OFFCURVE",
"326 -492 CURVE SMOOTH",
"519 -492 OFFCURVE",
"668 -455 OFFCURVE",
"772 -380 CURVE SMOOTH",
"876 -305 OFFCURVE",
"928 -198 OFFCURVE",
"928 -57 CURVE SMOOTH",
"928 103 OFFCURVE",
"833 183 OFFCURVE",
"616 211 CURVE SMOOTH",
"479 229 LINE SMOOTH",
"400 240 OFFCURVE",
"360 256 OFFCURVE",
"360 301 CURVE SMOOTH",
"360 335 OFFCURVE",
"388 361 OFFCURVE",
"444 379 CURVE",
"471 372 OFFCURVE",
"504 369 OFFCURVE",
"543 369 CURVE SMOOTH",
"682 369 OFFCURVE",
"791 407 OFFCURVE",
"872 482 CURVE SMOOTH",
"953 558 OFFCURVE",
"993 661 OFFCURVE",
"993 791 CURVE SMOOTH",
"993 835 OFFCURVE",
"988 874 OFFCURVE",
"977 909 CURVE",
"1151 950 LINE",
"1186 1116 LINE"
);
},
{
closed = 1;
nodes = (
"479 -20 LINE",
"549 -29 OFFCURVE",
"595 -41 OFFCURVE",
"616 -55 CURVE SMOOTH",
"638 -69 OFFCURVE",
"649 -89 OFFCURVE",
"649 -115 CURVE SMOOTH",
"649 -224 OFFCURVE",
"545 -287 OFFCURVE",
"344 -287 CURVE SMOOTH",
"215 -287 OFFCURVE",
"150 -249 OFFCURVE",
"150 -172 CURVE SMOOTH",
"150 -84 OFFCURVE",
"224 -25 OFFCURVE",
"365 -6 CURVE"
);
},
{
closed = 1;
nodes = (
"680 948 OFFCURVE",
"713 909 OFFCURVE",
"713 831 CURVE SMOOTH",
"713 753 OFFCURVE",
"697 688 OFFCURVE",
"666 637 CURVE SMOOTH",
"635 586 OFFCURVE",
"595 561 OFFCURVE",
"545 561 CURVE SMOOTH",
"476 561 OFFCURVE",
"442 601 OFFCURVE",
"442 680 CURVE SMOOTH",
"442 757 OFFCURVE",
"458 820 OFFCURVE",
"489 871 CURVE SMOOTH",
"521 922 OFFCURVE",
"563 948 OFFCURVE",
"614 948 CURVE SMOOTH"
);
}
);
width = 1108;
}
);
unicode = 0067;
},
{
glyphname = h;
lastChange = "2013-03-10 16:55:05 +0200";
layers = (
{
layerId = UUID0;
name = "Bold Italic";
paths = (
{
closed = 1;
nodes = (
"1110 637 LINE SMOOTH",
"1125 708 OFFCURVE",
"1133 768 OFFCURVE",
"1133 817 CURVE SMOOTH",
"1133 1024 OFFCURVE",
"1028 1139 OFFCURVE",
"844 1139 CURVE SMOOTH",
"711 1139 OFFCURVE",
"613 1072 OFFCURVE",
"530 969 CURVE",
"522 969 LINE",
"565 1110 OFFCURVE",
"594 1213 OFFCURVE",
"608 1278 CURVE SMOOTH",
"668 1556 LINE",
"367 1556 LINE",
"37 0 LINE",
"338 0 LINE",
"436 463 LINE SMOOTH",
"465 599 OFFCURVE",
"504 705 OFFCURVE",
"554 781 CURVE SMOOTH",
"604 857 OFFCURVE",
"660 895 OFFCURVE",
"721 895 CURVE SMOOTH",
"793 895 OFFCURVE",
"829 854 OFFCURVE",
"829 772 CURVE SMOOTH",
"829 738 OFFCURVE",
"824 698 OFFCURVE",
"813 653 CURVE",
"676 0 LINE",
"977 0 LINE"
);
}
);
width = 1237;
}
);
unicode = 0068;
},
{
glyphname = i;
lastChange = "2013-03-10 16:55:05 +0200";
layers = (
{
layerId = UUID0;
name = "Bold Italic";
paths = (
{
closed = 1;
nodes = (
"322 1298 OFFCURVE",
"372 1257 OFFCURVE",
"473 1257 CURVE SMOOTH",
"596 1257 OFFCURVE",
"653 1329 OFFCURVE",
"653 1436 CURVE SMOOTH",
"653 1513 OFFCURVE",
"601 1556 OFFCURVE",
"504 1556 CURVE SMOOTH",
"388 1556 OFFCURVE",
"322 1496 OFFCURVE",
"322 1380 CURVE SMOOTH"
);
},
{
closed = 1;
nodes = (
"575 1118 LINE",
"274 1118 LINE",
"37 0 LINE",
"338 0 LINE"
);
}
);
width = 608;
}
);
unicode = 0069;
},
{
glyphname = dotlessi;
lastChange = "2013-03-10 16:55:05 +0200";
layers = (
{
layerId = UUID0;
name = "Bold Italic";
paths = (
{
closed = 1;
nodes = (
"575 1118 LINE",
"274 1118 LINE",
"37 0 LINE",
"338 0 LINE"
);
}
);
width = 608;
}
);
unicode = 0131;
},
{
glyphname = j;
lastChange = "2013-03-10 16:55:05 +0200";
layers = (
{
layerId = UUID0;
name = "Bold Italic";
paths = (
{
closed = 1;
nodes = (
"127 -492 OFFCURVE",
"262 -368 OFFCURVE",
"313 -121 CURVE",
"578 1118 LINE",
"276 1118 LINE",
"23 -76 LINE SMOOTH",
"-1 -189 OFFCURVE",
"-59 -246 OFFCURVE",
"-150 -246 CURVE SMOOTH",
"-185 -246 OFFCURVE",
"-223 -239 OFFCURVE",
"-264 -225 CURVE",
"-264 -467 LINE",
"-217 -484 OFFCURVE",
"-159 -492 OFFCURVE",
"-90 -492 CURVE SMOOTH"
);
},
{
closed = 1;
nodes = (
"324 1298 OFFCURVE",
"374 1257 OFFCURVE",
"475 1257 CURVE SMOOTH",
"598 1257 OFFCURVE",
"655 1329 OFFCURVE",
"655 1436 CURVE SMOOTH",
"655 1513 OFFCURVE",
"603 1556 OFFCURVE",
"506 1556 CURVE SMOOTH",
"390 1556 OFFCURVE",
"324 1496 OFFCURVE",
"324 1380 CURVE SMOOTH"
);
}
);
width = 608;
}
);
unicode = 006A;
},
{
glyphname = k;
lastChange = "2013-03-10 16:55:05 +0200";
layers = (
{
layerId = UUID0;
name = "Bold Italic";
paths = (
{
closed = 1;
nodes = (
"467 643 LINE",
"463 643 LINE",
"491 745 LINE SMOOTH",
"505 796 OFFCURVE",
"515 835 OFFCURVE",
"520 862 CURVE",
"668 1556 LINE",
"367 1556 LINE",
"37 0 LINE",
"338 0 LINE",
"412 348 LINE",
"532 420 LINE",
"715 0 LINE",
"1051 0 LINE",
"766 614 LINE",
"1264 1118 LINE",
"920 1118 LINE"
);
}
);
width = 1163;
}
);
unicode = 006B;
},
{
glyphname = l;
lastChange = "2013-03-10 16:55:05 +0200";
layers = (
{
layerId = UUID0;
name = "Bold Italic";
paths = (
{
closed = 1;
nodes = (
"668 1556 LINE",
"367 1556 LINE",
"37 0 LINE",
"338 0 LINE"
);
}
);
width = 608;
}
);
unicode = 006C;
},
{
glyphname = m;
lastChange = "2013-03-10 16:55:05 +0200";
layers = (
{
layerId = UUID0;
name = "Bold Italic";
paths = (
{
closed = 1;
nodes = (
"705 1139 OFFCURVE",
"586 1063 OFFCURVE",
"489 911 CURVE",
"483 911 LINE",
"504 1118 LINE",
"274 1118 LINE",
"37 0 LINE",
"338 0 LINE",
"436 463 LINE SMOOTH",
"465 599 OFFCURVE",
"504 705 OFFCURVE",
"554 781 CURVE SMOOTH",
"604 857 OFFCURVE",
"660 895 OFFCURVE",
"721 895 CURVE SMOOTH",
"786 895 OFFCURVE",
"819 854 OFFCURVE",
"819 772 CURVE SMOOTH",
"819 738 OFFCURVE",
"814 698 OFFCURVE",
"803 653 CURVE",
"666 0 LINE",
"967 0 LINE",
"1063 465 LINE",
"1122 740 OFFCURVE",
"1225 895 OFFCURVE",
"1348 895 CURVE SMOOTH",
"1413 895 OFFCURVE",
"1446 854 OFFCURVE",
"1446 772 CURVE SMOOTH",
"1446 738 OFFCURVE",
"1441 698 OFFCURVE",
"1430 653 CURVE",
"1292 0 LINE",
"1593 0 LINE",
"1726 637 LINE SMOOTH",
"1741 706 OFFCURVE",
"1749 766 OFFCURVE",
"1749 817 CURVE SMOOTH",
"1749 1020 OFFCURVE",
"1651 1139 OFFCURVE",
"1470 1139 CURVE SMOOTH",
"1330 1139 OFFCURVE",
"1203 1058 OFFCURVE",
"1112 911 CURVE",
"1106 911 LINE",
"1077 1063 OFFCURVE",
"990 1139 OFFCURVE",
"844 1139 CURVE SMOOTH"
);
}
);
width = 1853;
}
);
unicode = 006D;
},
{
glyphname = n;
lastChange = "2013-03-10 16:55:05 +0200";
layers = (
{
layerId = UUID0;
name = "Bold Italic";
paths = (
{
closed = 1;
nodes = (
"1110 637 LINE SMOOTH",
"1125 708 OFFCURVE",
"1133 768 OFFCURVE",
"1133 817 CURVE SMOOTH",
"1133 1024 OFFCURVE",
"1028 1139 OFFCURVE",
"844 1139 CURVE SMOOTH",
"705 1139 OFFCURVE",
"586 1063 OFFCURVE",
"489 911 CURVE",
"483 911 LINE",
"504 1118 LINE",
"274 1118 LINE",
"37 0 LINE",
"338 0 LINE",
"436 463 LINE SMOOTH",
"465 599 OFFCURVE",
"504 705 OFFCURVE",
"554 781 CURVE SMOOTH",
"604 857 OFFCURVE",
"660 895 OFFCURVE",
"721 895 CURVE SMOOTH",
"793 895 OFFCURVE",
"829 854 OFFCURVE",
"829 772 CURVE SMOOTH",
"829 738 OFFCURVE",
"824 698 OFFCURVE",
"813 653 CURVE",
"676 0 LINE",
"977 0 LINE"
);
}
);
width = 1237;
}
);
unicode = 006E;
},
{
glyphname = o;
lastChange = "2013-03-10 16:55:05 +0200";
layers = (
{
layerId = UUID0;
name = "Bold Italic";
paths = (
{
closed = 1;
nodes = (
"805 610 OFFCURVE",
"794 530 OFFCURVE",
"771 457 CURVE SMOOTH",
"749 384 OFFCURVE",
"718 327 OFFCURVE",
"678 286 CURVE SMOOTH",
"638 245 OFFCURVE",
"593 225 OFFCURVE",
"543 225 CURVE SMOOTH",
"443 225 OFFCURVE",
"393 287 OFFCURVE",
"393 410 CURVE SMOOTH",
"393 493 OFFCURVE",
"405 574 OFFCURVE",
"430 653 CURVE SMOOTH",
"455 732 OFFCURVE",
"488 791 OFFCURVE",
"527 832 CURVE SMOOTH",
"567 873 OFFCURVE",
"612 893 OFFCURVE",
"662 893 CURVE SMOOTH",
"757 893 OFFCURVE",
"805 827 OFFCURVE",
"805 696 CURVE SMOOTH"
);
},
{
closed = 1;
nodes = (
"1108 834 OFFCURVE",
"1070 942 OFFCURVE",
"994 1021 CURVE SMOOTH",
"918 1100 OFFCURVE",
"815 1139 OFFCURVE",
"684 1139 CURVE SMOOTH",
"443 1139 OFFCURVE",
"257 1012 OFFCURVE",
"161 789 CURVE SMOOTH",
"114 678 OFFCURVE",
"90 552 OFFCURVE",
"90 410 CURVE SMOOTH",
"90 280 OFFCURVE",
"129 176 OFFCURVE",
"206 97 CURVE",
"284 19 OFFCURVE",
"388 -20 OFFCURVE",
"518 -20 CURVE",
"883 -26 OFFCURVE",
"1111 275 OFFCURVE",
"1108 696 CURVE"
);
}
);
width = 1198;
}
);
unicode = 006F;
},
{
glyphname = oslash;
lastChange = "2013-03-10 16:55:05 +0200";
layers = (
{
layerId = UUID0;
name = "Bold Italic";
paths = (
{
closed = 1;
nodes = (
"1108 798 OFFCURVE",
"1086 885 OFFCURVE",
"1042 956 CURVE",
"1126 1061 LINE",
"981 1171 LINE",
"911 1083 LINE",
"847 1120 OFFCURVE",
"771 1139 OFFCURVE",
"684 1139 CURVE SMOOTH",
"443 1139 OFFCURVE",
"257 1012 OFFCURVE",
"161 789 CURVE SMOOTH",
"114 678 OFFCURVE",
"90 552 OFFCURVE",
"90 410 CURVE SMOOTH",
"90 311 OFFCURVE",
"114 225 OFFCURVE",
"162 154 CURVE",
"43 6 LINE",
"184 -102 LINE",
"293 33 LINE",
"361 -2 OFFCURVE",
"436 -20 OFFCURVE",
"518 -20 CURVE",
"883 -26 OFFCURVE",
"1111 275 OFFCURVE",
"1108 696 CURVE"
);
},
{
closed = 1;
nodes = (
"697 903 OFFCURVE",
"727 895 OFFCURVE",
"750 879 CURVE",
"385 426 LINE",
"385 438 LINE SMOOTH",
"382 688 OFFCURVE",
"500 908 OFFCURVE",
"662 903 CURVE"
);
},
{
closed = 1;
nodes = (
"508 215 OFFCURVE",
"472 227 OFFCURVE",
"457 238 CURVE",
"815 682 LINE",
"815 666 LINE SMOOTH",
"815 543 OFFCURVE",
"789 437 OFFCURVE",
"736 348 CURVE SMOOTH",
"683 259 OFFCURVE",
"619 215 OFFCURVE",
"543 215 CURVE SMOOTH"
);
}
);
width = 1198;
}
);
unicode = 00F8;
},
{
glyphname = oe;
lastChange = "2013-03-10 16:55:05 +0200";
layers = (
{
layerId = UUID0;
name = "Bold Italic";
paths = (
{
closed = 1;
nodes = (
"1346 -20 OFFCURVE",
"1463 5 OFFCURVE",
"1587 66 CURVE",
"1587 293 LINE",
"1520 261 OFFCURVE",
"1462 239 OFFCURVE",
"1415 226 CURVE SMOOTH",
"1368 213 OFFCURVE",
"1315 207 OFFCURVE",
"1257 207 CURVE SMOOTH",
"1129 207 OFFCURVE",
"1059 282 OFFCURVE",
"1059 403 CURVE SMOOTH",
"1059 423 LINE",
"1061 444 LINE",
"1112 444 LINE SMOOTH",
"1318 444 OFFCURVE",
"1477 478 OFFCURVE",
"1588 545 CURVE SMOOTH",
"1699 613 OFFCURVE",
"1755 709 OFFCURVE",
"1755 834 CURVE SMOOTH",
"1755 929 OFFCURVE",
"1722 1003 OFFCURVE",
"1656 1057 CURVE SMOOTH",
"1590 1112 OFFCURVE",
"1498 1139 OFFCURVE",
"1380 1139 CURVE SMOOTH",
"1217 1139 OFFCURVE",
"1084 1086 OFFCURVE",
"981 979 CURVE",
"912 1086 OFFCURVE",
"807 1139 OFFCURVE",
"668 1139 CURVE",
"312 1144 OFFCURVE",
"86 845 OFFCURVE",
"90 414 CURVE",
"90 281 OFFCURVE",
"127 175 OFFCURVE",
"200 97 CURVE SMOOTH",
"274 19 OFFCURVE",
"373 -20 OFFCURVE",
"498 -20 CURVE SMOOTH",
"662 -20 OFFCURVE",
"768 34 OFFCURVE",
"852 125 CURVE",
"913 34 OFFCURVE",
"1043 -20 OFFCURVE",
"1198 -20 CURVE SMOOTH"
);
},
{
closed = 1;
nodes = (
"737 893 OFFCURVE",
"788 824 OFFCURVE",
"788 696 CURVE SMOOTH",
"788 561 OFFCURVE",
"765 449 OFFCURVE",
"718 359 CURVE SMOOTH",
"671 270 OFFCURVE",
"612 225 OFFCURVE",
"539 225 CURVE SMOOTH",
"442 225 OFFCURVE",
"393 293 OFFCURVE",
"393 414 CURVE SMOOTH",
"393 498 OFFCURVE",
"404 579 OFFCURVE",
"427 656 CURVE SMOOTH",
"450 733 OFFCURVE",
"481 792 OFFCURVE",
"518 832 CURVE SMOOTH",
"555 873 OFFCURVE",
"598 893 OFFCURVE",
"645 893 CURVE SMOOTH"
);
},
{
closed = 1;
nodes = (
"1431 922 OFFCURVE",
"1466 890 OFFCURVE",
"1466 827 CURVE SMOOTH",
"1466 716 OFFCURVE",
"1346 647 OFFCURVE",
"1139 647 CURVE SMOOTH",
"1094 647 LINE",
"1111 726 OFFCURVE",
"1145 791 OFFCURVE",
"1196 843 CURVE SMOOTH",
"1248 896 OFFCURVE",
"1303 922 OFFCURVE",
"1362 922 CURVE SMOOTH"
);
}
);
width = 1806;
}
);
unicode = 0153;
},
{
glyphname = p;
lastChange = "2013-03-10 16:55:05 +0200";
layers = (
{
layerId = UUID0;
name = "Bold Italic";
paths = (
{
closed = 1;
nodes = (
"694 1139 OFFCURVE",
"588 1075 OFFCURVE",
"496 948 CURVE",
"487 948 LINE",
"504 1118 LINE",
"274 1118 LINE",
"-68 -492 LINE",
"233 -492 LINE",
"305 -152 LINE",
"326 -61 OFFCURVE",
"340 37 OFFCURVE",
"348 143 CURVE",
"356 143 LINE",
"424 24 OFFCURVE",
"499 -20 OFFCURVE",
"610 -20 CURVE SMOOTH",
"705 -20 OFFCURVE",
"793 14 OFFCURVE",
"872 83 CURVE SMOOTH",
"951 152 OFFCURVE",
"1014 246 OFFCURVE",
"1059 363 CURVE SMOOTH",
"1105 481 OFFCURVE",
"1128 604 OFFCURVE",
"1128 731 CURVE SMOOTH",
"1128 860 OFFCURVE",
"1100 960 OFFCURVE",
"1043 1031 CURVE",
"987 1103 OFFCURVE",
"910 1139 OFFCURVE",
"813 1139 CURVE SMOOTH"
);
},
{
closed = 1;
nodes = (
"779 895 OFFCURVE",
"823 836 OFFCURVE",
"823 719 CURVE SMOOTH",
"823 641 OFFCURVE",
"810 562 OFFCURVE",
"785 481 CURVE SMOOTH",
"760 401 OFFCURVE",
"728 338 OFFCURVE",
"687 292 CURVE SMOOTH",
"646 246 OFFCURVE",
"604 223 OFFCURVE",
"559 223 CURVE SMOOTH",
"472 223 OFFCURVE",
"420 292 OFFCURVE",
"420 399 CURVE",
"415 667 OFFCURVE",
"557 898 OFFCURVE",
"692 895 CURVE"
);
}
);
width = 1219;
}
);
unicode = 0070;
},
{
glyphname = q;
lastChange = "2013-03-10 16:55:05 +0200";
layers = (
{
layerId = UUID0;
name = "Bold Italic";
paths = (
{
closed = 1;
nodes = (
"502 -20 OFFCURVE",
"592 25 OFFCURVE",
"688 150 CURVE",
"696 150 LINE",
"657 27 OFFCURVE",
"629 -75 OFFCURVE",
"612 -154 CURVE SMOOTH",
"539 -492 LINE",
"840 -492 LINE",
"1182 1118 LINE",
"950 1118 LINE",
"893 975 LINE",
"885 975 LINE",
"808 1094 OFFCURVE",
"723 1139 OFFCURVE",
"608 1139 CURVE SMOOTH",
"515 1139 OFFCURVE",
"429 1106 OFFCURVE",
"351 1040 CURVE SMOOTH",
"273 975 OFFCURVE",
"210 882 OFFCURVE",
"162 762 CURVE SMOOTH",
"114 643 OFFCURVE",
"90 517 OFFCURVE",
"90 385 CURVE SMOOTH",
"90 128 OFFCURVE",
"215 -20 OFFCURVE",
"391 -20 CURVE SMOOTH"
);
},
{
closed = 1;
nodes = (
"446 223 OFFCURVE",
"395 282 OFFCURVE",
"395 399 CURVE SMOOTH",
"395 476 OFFCURVE",
"407 554 OFFCURVE",
"431 633 CURVE SMOOTH",
"456 712 OFFCURVE",
"488 775 OFFCURVE",
"529 823 CURVE SMOOTH",
"570 871 OFFCURVE",
"614 895 OFFCURVE",
"659 895 CURVE SMOOTH",
"746 895 OFFCURVE",
"799 826 OFFCURVE",
"799 719 CURVE SMOOTH",
"799 540 OFFCURVE",
"747 386 OFFCURVE",
"662 293 CURVE SMOOTH",
"620 246 OFFCURVE",
"578 223 OFFCURVE",
"535 223 CURVE SMOOTH"
);
}
);
width = 1217;
}
);
unicode = 0071;
},
{
glyphname = r;
lastChange = "2013-03-10 16:55:05 +0200";
layers = (
{
layerId = UUID0;
name = "Bold Italic";
paths = (
{
closed = 1;
nodes = (
"705 1139 OFFCURVE",
"587 1063 OFFCURVE",
"489 911 CURVE",
"483 911 LINE",
"504 1118 LINE",
"274 1118 LINE",
"37 0 LINE",
"338 0 LINE",
"444 500 LINE",
"469 614 OFFCURVE",
"510 701 OFFCURVE",
"568 762 CURVE SMOOTH",
"627 823 OFFCURVE",
"695 854 OFFCURVE",
"772 854 CURVE SMOOTH",
"809 854 OFFCURVE",
"842 849 OFFCURVE",
"872 838 CURVE",
"938 1128 LINE",
"913 1135 OFFCURVE",
"881 1139 OFFCURVE",
"842 1139 CURVE SMOOTH"
);
}
);
width = 862;
}
);
unicode = 0072;
},
{
glyphname = s;
lastChange = "2013-03-10 16:55:05 +0200";
layers = (
{
layerId = UUID0;
name = "Bold Italic";
paths = (
{
closed = 1;
nodes = (
"829 497 OFFCURVE",
"760 592 OFFCURVE",
"596 676 CURVE SMOOTH",
"537 706 OFFCURVE",
"497 731 OFFCURVE",
"476 750 CURVE SMOOTH",
"455 770 OFFCURVE",
"444 793 OFFCURVE",
"444 819 CURVE SMOOTH",
"444 876 OFFCURVE",
"495 913 OFFCURVE",
"571 913 CURVE SMOOTH",
"650 913 OFFCURVE",
"736 885 OFFCURVE",
"829 829 CURVE",
"928 1044 LINE",
"820 1107 OFFCURVE",
"699 1139 OFFCURVE",
"565 1139 CURVE SMOOTH",
"292 1139 OFFCURVE",
"139 1009 OFFCURVE",
"139 782 CURVE SMOOTH",
"139 721 OFFCURVE",
"155 667 OFFCURVE",
"187 622 CURVE SMOOTH",
"219 577 OFFCURVE",
"275 532 OFFCURVE",
"356 487 CURVE SMOOTH",
"419 452 OFFCURVE",
"462 424 OFFCURVE",
"487 401 CURVE SMOOTH",
"512 378 OFFCURVE",
"524 353 OFFCURVE",
"524 324 CURVE SMOOTH",
"524 249 OFFCURVE",
"449 203 OFFCURVE",
"342 203 CURVE SMOOTH",
"234 203 OFFCURVE",
"128 233 OFFCURVE",
"23 293 CURVE",
"23 45 LINE",
"115 -2 OFFCURVE",
"215 -20 OFFCURVE",
"358 -20 CURVE SMOOTH",
"506 -20 OFFCURVE",
"621 13 OFFCURVE",
"704 80 CURVE SMOOTH",
"787 147 OFFCURVE",
"829 244 OFFCURVE",
"829 369 CURVE SMOOTH"
);
}
);
width = 969;
}
);
unicode = 0073;
},
{
glyphname = germandbls;
lastChange = "2013-03-10 16:55:05 +0200";
layers = (
{
layerId = UUID0;
name = "Bold Italic";
paths = (
{
closed = 1;
nodes = (
"679 1567 OFFCURVE",
"551 1533 OFFCURVE",
"461 1465 CURVE SMOOTH",
"371 1397 OFFCURVE",
"310 1288 OFFCURVE",
"279 1139 CURVE SMOOTH",
"25 -68 LINE SMOOTH",
"0 -187 OFFCURVE",
"-56 -246 OFFCURVE",
"-145 -246 CURVE SMOOTH",
"-181 -246 OFFCURVE",
"-219 -239 OFFCURVE",
"-260 -225 CURVE",
"-260 -467 LINE",
"-213 -484 OFFCURVE",
"-160 -492 OFFCURVE",
"-100 -492 CURVE SMOOTH",
"131 -492 OFFCURVE",
"267 -377 OFFCURVE",
"324 -113 CURVE",
"578 1106 LINE SMOOTH",
"611 1266 OFFCURVE",
"691 1329 OFFCURVE",
"819 1329 CURVE SMOOTH",
"932 1329 OFFCURVE",
"983 1277 OFFCURVE",
"983 1194 CURVE SMOOTH",
"983 1118 OFFCURVE",
"928 1071 OFFCURVE",
"840 1022 CURVE SMOOTH",
"762 978 OFFCURVE",
"708 936 OFFCURVE",
"678 895 CURVE SMOOTH",
"648 854 OFFCURVE",
"633 806 OFFCURVE",
"633 750 CURVE SMOOTH",
"633 705 OFFCURVE",
"645 663 OFFCURVE",
"668 624 CURVE SMOOTH",
"691 585 OFFCURVE",
"734 542 OFFCURVE",
"797 494 CURVE SMOOTH",
"852 453 OFFCURVE",
"888 420 OFFCURVE",
"905 397 CURVE SMOOTH",
"923 374 OFFCURVE",
"932 349 OFFCURVE",
"932 322 CURVE SMOOTH",
"932 251 OFFCURVE",
"872 203 OFFCURVE",
"737 203 CURVE SMOOTH",
"650 203 OFFCURVE",
"564 229 OFFCURVE",
"479 281 CURVE",
"479 41 LINE",
"552 0 OFFCURVE",
"651 -20 OFFCURVE",
"776 -20 CURVE SMOOTH",
"919 -20 OFFCURVE",
"1031 13 OFFCURVE",
"1113 80 CURVE SMOOTH",
"1196 147 OFFCURVE",
"1237 237 OFFCURVE",
"1237 350 CURVE SMOOTH",
"1237 405 OFFCURVE",
"1224 455 OFFCURVE",
"1199 500 CURVE SMOOTH",
"1174 545 OFFCURVE",
"1126 596 OFFCURVE",
"1055 651 CURVE",
"979 708 OFFCURVE",
"954 739 OFFCURVE",
"954 770 CURVE SMOOTH",
"954 789 OFFCURVE",
"962 807 OFFCURVE",
"977 824 CURVE SMOOTH",
"992 842 OFFCURVE",
"1024 865 OFFCURVE",
"1073 893 CURVE SMOOTH",
"1159 942 OFFCURVE",
"1218 993 OFFCURVE",
"1251 1045 CURVE SMOOTH",
"1284 1097 OFFCURVE",
"1300 1161 OFFCURVE",
"1300 1237 CURVE SMOOTH",
"1300 1337 OFFCURVE",
"1259 1417 OFFCURVE",
"1177 1477 CURVE SMOOTH",
"1095 1537 OFFCURVE",
"985 1567 OFFCURVE",
"846 1567 CURVE SMOOTH"
);
}
);
width = 1350;
}
);
unicode = 00DF;
},
{
glyphname = t;
lastChange = "2013-03-10 16:55:05 +0200";
layers = (
{
layerId = UUID0;
name = "Bold Italic";
paths = (
{
closed = 1;
nodes = (
"455 223 OFFCURVE",
"426 248 OFFCURVE",
"426 297 CURVE SMOOTH",
"426 312 OFFCURVE",
"428 330 OFFCURVE",
"432 350 CURVE SMOOTH",
"547 889 LINE",
"829 889 LINE",
"879 1118 LINE",
"596 1118 LINE",
"645 1356 LINE",
"451 1356 LINE",
"319 1120 LINE",
"123 1036 LINE",
"94 889 LINE",
"246 889 LINE",
"131 350 LINE",
"123 309 OFFCURVE",
"119 271 OFFCURVE",
"119 238 CURVE SMOOTH",
"119 62 OFFCURVE",
"210 -20 OFFCURVE",
"410 -20 CURVE SMOOTH",
"513 -20 OFFCURVE",
"602 -2 OFFCURVE",
"676 33 CURVE",
"676 258 LINE",
"611 235 OFFCURVE",
"557 223 OFFCURVE",
"514 223 CURVE SMOOTH"
);
}
);
width = 840;
}
);
unicode = 0074;
},
{
glyphname = u;
lastChange = "2013-03-10 16:55:05 +0200";
layers = (
{
layerId = UUID0;
name = "Bold Italic";
paths = (
{
closed = 1;
nodes = (
"135 514 LINE",
"119 434 OFFCURVE",
"111 363 OFFCURVE",
"111 301 CURVE SMOOTH",
"111 93 OFFCURVE",
"211 -20 OFFCURVE",
"395 -20 CURVE SMOOTH",
"535 -20 OFFCURVE",
"653 56 OFFCURVE",
"750 207 CURVE",
"756 207 LINE",
"735 0 LINE",
"965 0 LINE",
"1202 1118 LINE",
"901 1118 LINE",
"803 655 LINE SMOOTH",
"774 519 OFFCURVE",
"735 413 OFFCURVE",
"685 337 CURVE SMOOTH",
"635 261 OFFCURVE",
"579 223 OFFCURVE",
"518 223 CURVE SMOOTH",
"446 223 OFFCURVE",
"410 264 OFFCURVE",
"410 346 CURVE SMOOTH",
"410 380 OFFCURVE",
"415 420 OFFCURVE",
"426 465 CURVE",
"563 1118 LINE",
"262 1118 LINE"
);
}
);
width = 1237;
}
);
unicode = 0075;
},
{
glyphname = v;
lastChange = "2013-03-10 16:55:05 +0200";
layers = (
{
layerId = UUID0;
name = "Bold Italic";
paths = (
{
closed = 1;
nodes = (
"449 301 LINE",
"449 366 OFFCURVE",
"447 443 OFFCURVE",
"442 532 CURVE",
"397 1118 LINE",
"102 1118 LINE",
"240 0 LINE",
"563 0 LINE",
"1167 1118 LINE",
"844 1118 LINE",
"547 524 LINE",
"522 477 OFFCURVE",
"492 403 OFFCURVE",
"455 301 CURVE"
);
}
);
width = 1049;
}
);
unicode = 0076;
},
{
glyphname = w;
lastChange = "2013-03-10 16:55:05 +0200";
layers = (
{
layerId = UUID0;
name = "Bold Italic";
paths = (
{
closed = 1;
nodes = (
"862 860 LINE",
"855 737 OFFCURVE",
"852 623 OFFCURVE",
"852 520 CURVE",
"858 0 LINE",
"1188 0 LINE",
"1718 1118 LINE",
"1411 1118 LINE",
"1192 623 LINE SMOOTH",
"1177 590 OFFCURVE",
"1146 504 OFFCURVE",
"1097 365 CURVE SMOOTH",
"1069 285 LINE",
"1063 285 LINE",
"1070 388 OFFCURVE",
"1073 487 OFFCURVE",
"1073 582 CURVE SMOOTH",
"1073 1118 LINE",
"745 1118 LINE",
"514 582 LINE SMOOTH",
"512 579 OFFCURVE",
"497 540 OFFCURVE",
"468 463 CURVE SMOOTH",
"439 386 OFFCURVE",
"422 341 OFFCURVE",
"417 326 CURVE SMOOTH",
"403 285 LINE",
"399 285 LINE",
"406 456 LINE",
"410 623 LINE",
"406 1118 LINE",
"125 1118 LINE",
"176 0 LINE",
"500 0 LINE",
"733 541 LINE SMOOTH",
"774 635 OFFCURVE",
"815 741 OFFCURVE",
"856 860 CURVE"
);
}
);
width = 1614;
}
);
unicode = 0077;
},
{
glyphname = x;
lastChange = "2013-03-10 16:55:05 +0200";
layers = (
{
layerId = UUID0;
name = "Bold Italic";
paths = (
{
closed = 1;
nodes = (
"-100 0 LINE",
"250 0 LINE",
"514 342 LINE",
"639 0 LINE",
"965 0 LINE",
"721 557 LINE",
"1188 1118 LINE",
"834 1118 LINE",
"590 784 LINE",
"475 1118 LINE",
"154 1118 LINE",
"379 573 LINE"
);
}
);
width = 1087;
}
);
unicode = 0078;
},
{
glyphname = y;
lastChange = "2013-03-10 16:55:05 +0200";
layers = (
{
layerId = UUID0;
name = "Bold Italic";
paths = (
{
closed = 1;
nodes = (
"266 0 LINE",
"240 -49 LINE SMOOTH",
"168 -184 OFFCURVE",
"87 -246 OFFCURVE",
"-25 -246 CURVE SMOOTH",
"-57 -246 OFFCURVE",
"-96 -242 OFFCURVE",
"-141 -233 CURVE",
"-141 -473 LINE",
"-103 -486 OFFCURVE",
"-54 -492 OFFCURVE",
"6 -492 CURVE SMOOTH",
"210 -492 OFFCURVE",
"371 -381 OFFCURVE",
"489 -160 CURVE SMOOTH",
"1169 1118 LINE",
"842 1118 LINE",
"582 580 LINE SMOOTH",
"527 467 OFFCURVE",
"500 375 OFFCURVE",
"473 307 CURVE",
"467 307 LINE",
"467 421 OFFCURVE",
"462 519 OFFCURVE",
"453 600 CURVE SMOOTH",
"397 1118 LINE",
"102 1118 LINE"
);
}
);
width = 1063;
}
);
unicode = 0079;
},
{
glyphname = z;
lastChange = "2013-03-10 16:55:05 +0200";
layers = (
{
layerId = UUID0;
name = "Bold Italic";
paths = (
{
closed = 1;
nodes = (
"797 233 LINE",
"358 233 LINE",
"924 918 LINE",
"967 1118 LINE",
"217 1118 LINE",
"166 885 LINE",
"563 885 LINE",
"-12 180 LINE",
"-47 0 LINE",
"748 0 LINE"
);
}
);
width = 932;
}
);
unicode = 007A;
},
{
glyphname = ordfeminine;
lastChange = "2013-03-10 16:55:05 +0200";
layers = (
{
layerId = UUID0;
name = "Bold Italic";
paths = (
{
closed = 1;
nodes = (
"450 752 OFFCURVE",
"518 787 OFFCURVE",
"571 856 CURVE",
"573 856 LINE",
"565 764 LINE",
"719 764 LINE",
"877 1466 LINE",
"723 1466 LINE",
"684 1376 LINE",
"678 1376 LINE",
"638 1445 OFFCURVE",
"578 1479 OFFCURVE",
"498 1479 CURVE SMOOTH",
"365 1479 OFFCURVE",
"259 1396 OFFCURVE",
"198 1248 CURVE SMOOTH",
"167 1174 OFFCURVE",
"152 1098 OFFCURVE",
"152 1020 CURVE SMOOTH",
"152 849 OFFCURVE",
"232 752 OFFCURVE",
"369 752 CURVE SMOOTH"
);
},
{
closed = 1;
nodes = (
"385 903 OFFCURVE",
"356 940 OFFCURVE",
"356 1014 CURVE SMOOTH",
"356 1093 OFFCURVE",
"373 1165 OFFCURVE",
"406 1229 CURVE SMOOTH",
"440 1293 OFFCURVE",
"481 1325 OFFCURVE",
"530 1325 CURVE SMOOTH",
"589 1325 OFFCURVE",
"618 1290 OFFCURVE",
"618 1219 CURVE SMOOTH",
"618 1168 OFFCURVE",
"609 1117 OFFCURVE",
"591 1064 CURVE SMOOTH",
"574 1012 OFFCURVE",
"552 972 OFFCURVE",
"526 944 CURVE SMOOTH",
"500 917 OFFCURVE",
"472 903 OFFCURVE",
"442 903 CURVE SMOOTH"
);
}
);
width = 772;
}
);
unicode = 00AA;
},
{
glyphname = ordmasculine;
lastChange = "2013-03-10 16:55:05 +0200";
layers = (
{
layerId = UUID0;
name = "Bold Italic";
paths = (
{
closed = 1;
nodes = (
"809 1378 OFFCURVE",
"715 1479 OFFCURVE",
"543 1479 CURVE SMOOTH",
"428 1479 OFFCURVE",
"335 1438 OFFCURVE",
"266 1357 CURVE SMOOTH",
"197 1276 OFFCURVE",
"162 1169 OFFCURVE",
"162 1038 CURVE SMOOTH",
"162 857 OFFCURVE",
"253 752 OFFCURVE",
"432 752 CURVE SMOOTH",
"581 752 OFFCURVE",
"696 822 OFFCURVE",
"760 961 CURVE SMOOTH",
"793 1031 OFFCURVE",
"809 1109 OFFCURVE",
"809 1194 CURVE SMOOTH"
);
},
{
closed = 1;
nodes = (
"573 1315 OFFCURVE",
"598 1279 OFFCURVE",
"598 1208 CURVE SMOOTH",
"598 1127 OFFCURVE",
"584 1057 OFFCURVE",
"556 1000 CURVE SMOOTH",
"528 943 OFFCURVE",
"493 915 OFFCURVE",
"451 915 CURVE SMOOTH",
"398 915 OFFCURVE",
"371 952 OFFCURVE",
"371 1026 CURVE SMOOTH",
"371 1099 OFFCURVE",
"385 1166 OFFCURVE",
"414 1225 CURVE SMOOTH",
"443 1285 OFFCURVE",
"479 1315 OFFCURVE",
"522 1315 CURVE SMOOTH"
);
}
);
width = 754;
}
);
unicode = 00BA;
},
{
glyphname = "alef-hb";
lastChange = "2013-03-10 17:04:25 +0200";
layers = (
{
anchors = (
{
name = bottom;
position = "{496, -152}";
},
{
name = bottomleft;
position = "{-117, 0}";
},
{
name = center;
position = "{512, 205}";
},
{
name = top;
position = "{766, 1118}";
},
{
name = topleft;
position = "{242, 1160}";
}
);
layerId = UUID0;
name = "Bold Italic";
paths = (
{
closed = 1;
nodes = (
"1041 1289 LINE",
"941 825 LINE SMOOTH",
"923 737 OFFCURVE",
"891 679 OFFCURVE",
"824 651 CURVE",
"741 848 LINE",
"575 1290 LINE",
"229 1290 LINE",
"420 838 LINE",
"169 769 OFFCURVE",
"108 605 OFFCURVE",
"78 461 CURVE SMOOTH",
"-20 0 LINE",
"284 0 LINE",
"384 464 LINE SMOOTH",
"402 553 OFFCURVE",
"434 611 OFFCURVE",
"505 639 CURVE",
"753 0 LINE",
"1100 0 LINE",
"908 452 LINE",
"1155 521 OFFCURVE",
"1216 684 OFFCURVE",
"1247 828 CURVE SMOOTH",
"1345 1290 LINE"
);
}
);
width = 1329;
}
);
unicode = 05D0;
},
{
glyphname = "bet-hb";
lastChange = "2013-03-10 17:04:25 +0200";
layers = (
{
anchors = (
{
name = bottom;
position = "{419, -152}";
},
{
name = bottomleft;
position = "{-119, 0}";
},
{
name = center;
position = "{384, 665}";
},
{
name = top;
position = "{689, 1118}";
},
{
name = topleft;
position = "{262, 1160}";
}
);
layerId = UUID0;
name = "Bold Italic";
paths = (
{
closed = 1;
nodes = (
"388 1310 OFFCURVE",
"237 1292 OFFCURVE",
"237 1292 CURVE",
"186 1051 LINE",
"186 1051 OFFCURVE",
"371 1075 OFFCURVE",
"516 1075 CURVE SMOOTH",
"661 1075 OFFCURVE",
"759 1020 OFFCURVE",
"721 844 CURVE SMOOTH",
"591 233 LINE",
"591 233 OFFCURVE",
"12 233 OFFCURVE",
"12 233 CURVE SMOOTH",
"12 233 OFFCURVE",
"-37 0 OFFCURVE",
"-37 0 CURVE SMOOTH",
"-37 0 OFFCURVE",
"995 0 OFFCURVE",
"995 0 CURVE SMOOTH",
"995 0 OFFCURVE",
"1044 233 OFFCURVE",
"1044 233 CURVE SMOOTH",
"1044 233 OFFCURVE",
"896 233 OFFCURVE",
"896 233 CURVE",
"1026 843 LINE SMOOTH",
"1088 1134 OFFCURVE",
"1059 1310 OFFCURVE",
"605 1310 CURVE SMOOTH"
);
}
);
width = 1182;
}
);
unicode = 05D1;
},
{
glyphname = "gimel-hb";
lastChange = "2013-03-10 17:04:25 +0200";
layers = (
{
anchors = (
{
name = bottom;
position = "{270, -152}";
},
{
name = bottomleft;
position = "{-117, 0}";
},
{
name = center;
position = "{310, 665}";
},
{
name = top;
position = "{577, 1118}";
},
{
name = topleft;
position = "{342, 1160}";
}
);
layerId = UUID0;
name = "Bold Italic";
paths = (
{
closed = 1;
nodes = (
"428 1310 OFFCURVE",
"335 1287 OFFCURVE",
"335 1287 CURVE SMOOTH",
"335 1287 OFFCURVE",
"284 1046 OFFCURVE",
"284 1046 CURVE SMOOTH",
"284 1046 OFFCURVE",
"371 1069 OFFCURVE",
"464 1069 CURVE SMOOTH",
"567 1069 OFFCURVE",
"564 983 OFFCURVE",
"548 908 CURVE SMOOTH",
"471 544 LINE SMOOTH",
"444 420 OFFCURVE",
"357 319 OFFCURVE",
"245 286 CURVE SMOOTH",
"110 246 OFFCURVE",
"12 274 OFFCURVE",
"13 274 CURVE",
"-69 -9 LINE",
"-69 -9 OFFCURVE",
"-21 -20 OFFCURVE",
"30 -20 CURVE SMOOTH",
"263 -20 OFFCURVE",
"409 188 OFFCURVE",
"409 188 CURVE SMOOTH",
"409 188 OFFCURVE",
"424 188 OFFCURVE",
"424 188 CURVE SMOOTH",
"424 188 OFFCURVE",
"429 0 OFFCURVE",
"429 0 CURVE SMOOTH",
"429 0 OFFCURVE",
"660 0 OFFCURVE",
"660 0 CURVE",
"853 908 LINE SMOOTH",
"901 1134 OFFCURVE",
"890 1310 OFFCURVE",
"551 1310 CURVE SMOOTH"
);
}
);
width = 951;
}
);
unicode = 05D2;
},
{
glyphname = "dalet-hb";
lastChange = "2013-03-10 17:04:25 +0200";
layers = (
{
anchors = (
{
name = bottom;
position = "{586, -152}";
},
{
name = bottomleft;
position = "{-117, 0}";
},
{
name = center;
position = "{362, 665}";
},
{
name = top;
position = "{662, 1118}";
},
{
name = topleft;
position = "{209, 1160}";
}
);
layerId = UUID0;
name = "Bold Italic";
paths = (
{
closed = 1;
nodes = (
"180 1290 LINE",
"131 1057 LINE",
"832 1057 LINE",
"830 1050 LINE",
"830 1050 OFFCURVE",
"669 1003 OFFCURVE",
"628 808 CURVE SMOOTH",
"456 0 LINE",
"456 0 OFFCURVE",
"761 0 OFFCURVE",
"761 0 CURVE",
"931 801 LINE SMOOTH",
"953 904 OFFCURVE",
"985 971 OFFCURVE",
"1066 1022 CURVE SMOOTH",
"1102 1043 OFFCURVE",
"1133 1058 OFFCURVE",
"1164 1069 CURVE",
"1211 1290 LINE"
);
}
);
width = 1121;
}
);
unicode = 05D3;
},
{
glyphname = "he-hb";
lastChange = "2013-03-10 17:04:25 +0200";
layers = (
{
anchors = (
{
name = bottom;
position = "{501, -152}";
},
{
name = bottomleft;
position = "{-119, 0}";
},
{
name = center;
position = "{675, 665}";
},
{
name = top;
position = "{771, 1118}";
},
{
name = topleft;
position = "{310, 1160}";
}
);
layerId = UUID0;
name = "Bold Italic";
paths = (
{
closed = 1;
nodes = (
"504 1310 OFFCURVE",
"290 1267 OFFCURVE",
"290 1267 CURVE",
"241 1036 LINE",
"241 1036 OFFCURVE",
"517 1075 OFFCURVE",
"720 1075 CURVE SMOOTH",
"865 1075 OFFCURVE",
"963 1020 OFFCURVE",
"925 844 CURVE SMOOTH",
"746 0 LINE",
"1052 0 LINE",
"1231 843 LINE SMOOTH",
"1293 1134 OFFCURVE",
"1263 1310 OFFCURVE",
"809 1310 CURVE SMOOTH"
);
},
{
closed = 1;
nodes = (
"196 823 LINE",
"21 0 LINE",
"327 0 LINE",
"502 823 LINE"
);
}
);
width = 1345;
}
);
unicode = 05D4;
},
{
glyphname = "vav-hb";
lastChange = "2013-03-10 17:04:25 +0200";
layers = (
{
anchors = (
{
name = bottom;
position = "{144, -152}";
},
{
name = bottomleft;
position = "{-117, 0}";
},
{
name = center;
position = "{36, 665}";
},
{
name = top;
position = "{414, 1118}";
},
{
name = topleft;
position = "{357, 1160}";
}
);
layerId = UUID0;
name = "Bold Italic";
paths = (
{
closed = 1;
nodes = (
"297 1290 LINE",
"23 0 LINE",
"328 0 LINE",
"602 1290 LINE"
);
}
);
width = 625;
}
);
unicode = 05D5;
},
{
glyphname = "zayin-hb";
lastChange = "2013-03-10 17:04:25 +0200";
layers = (
{
anchors = (
{
name = bottom;
position = "{150, -152}";
},
{
name = bottomleft;
position = "{-117, 0}";
},
{
name = center;
position = "{20, 665}";
},
{
name = top;
position = "{452, 1118}";
},
{
name = topleft;
position = "{278, 1160}";
}
);
layerId = UUID0;
name = "Bold Italic";
paths = (
{
closed = 1;
nodes = (
"249 1290 LINE",
"200 1057 LINE",
"514 1057 LINE",
"512 1050 LINE",
"512 1050 OFFCURVE",
"222 943 OFFCURVE",
"114 434 CURVE SMOOTH",
"22 0 LINE",
"22 0 OFFCURVE",
"327 0 OFFCURVE",
"327 0 CURVE",
"419 434 LINE SMOOTH",
"456 606 OFFCURVE",
"490 780 OFFCURVE",
"627 948 CURVE SMOOTH",
"685 1019 OFFCURVE",
"742 1057 OFFCURVE",
"742 1057 CURVE",
"791 1290 LINE"
);
}
);
width = 701;
}
);
unicode = 05D6;
},
{
glyphname = "het-hb";
lastChange = "2013-03-10 17:04:25 +0200";
layers = (
{
anchors = (
{
name = bottom;
position = "{501, -152}";
},
{
name = bottomleft;
position = "{-119, 0}";
},
{
name = center;
position = "{675, 665}";
},
{
name = top;
position = "{771, 1118}";
},
{
name = topleft;
position = "{316, 1160}";
}
);
layerId = UUID0;
name = "Bold Italic";
paths = (
{
closed = 1;
nodes = (
"504 1310 OFFCURVE",
"290 1267 OFFCURVE",
"290 1267 CURVE",
"21 0 LINE",
"327 0 LINE",
"554 1068 LINE",
"610 1072 OFFCURVE",
"667 1075 OFFCURVE",
"720 1075 CURVE SMOOTH",
"865 1075 OFFCURVE",
"963 1020 OFFCURVE",
"925 844 CURVE SMOOTH",
"746 0 LINE",
"1052 0 LINE",
"1231 843 LINE SMOOTH",
"1293 1134 OFFCURVE",
"1263 1310 OFFCURVE",
"809 1310 CURVE SMOOTH"
);
}
);
width = 1345;
}
);
unicode = 05D7;
},
{
glyphname = "tet-hb";
lastChange = "2013-03-10 17:04:25 +0200";
layers = (
{
anchors = (
{
name = bottom;
position = "{513, -152}";
},
{
name = bottomleft;
position = "{-117, 0}";
},
{
name = center;
position = "{701, 665}";
},
{
name = top;
position = "{766, 1118}";
},
{
name = topleft;
position = "{312, 1160}";
}
);
layerId = UUID0;
name = "Bold Italic";
paths = (
{
closed = 1;
nodes = (
"851 1310 OFFCURVE",
"774 1288 OFFCURVE",
"774 1288 CURVE",
"726 1063 LINE",
"726 1063 OFFCURVE",
"767 1068 OFFCURVE",
"791 1068 CURVE SMOOTH",
"957 1068 OFFCURVE",
"1011 1023 OFFCURVE",
"931 645 CURVE SMOOTH",
"867 343 OFFCURVE",
"760 225 OFFCURVE",
"604 225 CURVE SMOOTH",
"444 225 OFFCURVE",
"402 367 OFFCURVE",
"461 645 CURVE SMOOTH",
"504 845 OFFCURVE",
"598 1288 OFFCURVE",
"598 1288 CURVE SMOOTH",
"598 1288 OFFCURVE",
"291 1288 OFFCURVE",
"291 1288 CURVE SMOOTH",
"291 1288 OFFCURVE",
"187 798 OFFCURVE",
"154 645 CURVE SMOOTH",
"62 214 OFFCURVE",
"247 -20 OFFCURVE",
"542 -20 CURVE SMOOTH",
"899 -20 OFFCURVE",
"1147 215 OFFCURVE",
"1238 645 CURVE SMOOTH",
"1346 1155 OFFCURVE",
"1236 1310 OFFCURVE",
"934 1310 CURVE SMOOTH"
);
}
);
width = 1330;
}
);
unicode = 05D8;
},
{
glyphname = "yod-hb";
lastChange = "2013-03-12 15:15:46 +0200";
layers = (
{
anchors = (
{
name = bottom;
position = "{129, -152}";
},
{
name = bottomleft;
position = "{-114, 0}";
},
{
name = center;
position = "{75, 852}";
},
{
name = top;
position = "{399, 1118}";
},
{
name = topleft;
position = "{323, 1160}";
}
);
layerId = UUID0;
name = "Bold Italic";
paths = (
{
closed = 1;
nodes = (
"287 1290 LINE",
"105 436 LINE",
"207 436 LINE",
"465 694 LINE",
"592 1290 LINE"
);
}
);
width = 592;
}
);
unicode = 05D9;
},
{
glyphname = "finalkaf-hb";
lastChange = "2013-03-12 07:33:51 +0200";
layers = (
{
anchors = (
{
name = bottom;
position = "{96, 185}";
},
{
name = bottomleft;
position = "{-108, 0}";
},
{
name = center;
position = "{328, 665}";
},
{
name = top;
position = "{657, 1118}";
},
{
name = topleft;
position = "{219, 1160}";
}
);
layerId = UUID0;
name = "Bold Italic";
paths = (
{
closed = 1;
nodes = (
"413 1310 OFFCURVE",
"280 1299 OFFCURVE",
"189 1288 CURVE",
"139 1053 LINE",
"236 1063 OFFCURVE",
"369 1075 OFFCURVE",
"480 1075 CURVE SMOOTH",
"682 1075 OFFCURVE",
"702 926 OFFCURVE",
"664 750 CURVE SMOOTH",
"400 -492 LINE",
"400 -492 OFFCURVE",
"706 -492 OFFCURVE",
"706 -492 CURVE",
"964 719 LINE SMOOTH",
"1026 1010 OFFCURVE",
"975 1310 OFFCURVE",
"569 1310 CURVE SMOOTH"
);
}
);
width = 1093;
}
);
unicode = 05DA;
},
{
glyphname = "kaf-hb";
lastChange = "2013-03-10 17:04:25 +0200";
layers = (
{
anchors = (
{
name = bottom;
position = "{261, -152}";
},
{
name = bottomleft;
position = "{-117, 0}";
},
{
name = center;
position = "{352, 665}";
},
{
name = top;
position = "{629, 1118}";
},
{
name = topleft;
position = "{233, 1160}";
}
);
layerId = UUID0;
name = "Bold Italic";
paths = (
{
closed = 1;
nodes = (
"426 1310 OFFCURVE",
"294 1299 OFFCURVE",
"203 1288 CURVE",
"153 1053 LINE",
"250 1063 OFFCURVE",
"382 1075 OFFCURVE",
"493 1075 CURVE SMOOTH",
"695 1075 OFFCURVE",
"716 926 OFFCURVE",
"678 750 CURVE SMOOTH",
"634 540 LINE SMOOTH",
"596 364 OFFCURVE",
"515 226 OFFCURVE",
"313 226 CURVE SMOOTH",
"202 226 OFFCURVE",
"52 237 OFFCURVE",
"-19 246 CURVE",
"-69 8 LINE",
"16 -9 OFFCURVE",
"144 -20 OFFCURVE",
"300 -20 CURVE SMOOTH",
"736 -20 OFFCURVE",
"884 280 OFFCURVE",
"946 571 CURVE SMOOTH",
"978 719 LINE SMOOTH",
"1040 1010 OFFCURVE",
"988 1310 OFFCURVE",
"582 1310 CURVE SMOOTH"
);
}
);
width = 1055;
}
);
unicode = 05DB;
},
{
glyphname = "lamed-hb";
lastChange = "2013-03-12 07:34:12 +0200";
layers = (
{
anchors = (
{
name = bottom;
position = "{440, -152}";
},
{
name = bottomleft;
position = "{-113, 0}";
},
{
name = center;
position = "{317, 665}";
},
{
name = top;
position = "{662, 1118}";
},
{
name = topleft;
position = "{46, 1160}";
}
);
layerId = UUID0;
name = "Bold Italic";
paths = (
{
closed = 1;
nodes = (
"267 1556 LINE",
"161 1057 LINE",
"838 1057 LINE",
"838 1057 OFFCURVE",
"550 479 OFFCURVE",
"550 479 CURVE SMOOTH",
"550 479 OFFCURVE",
"341 0 OFFCURVE",
"341 0 CURVE SMOOTH",
"341 0 OFFCURVE",
"638 0 OFFCURVE",
"638 0 CURVE",
"847 479 LINE",
"1153 1092 LINE",
"1195 1290 LINE",
"516 1290 LINE",
"572 1556 LINE"
);
}
);
width = 1115;
}
);
unicode = 05DC;
},
{
glyphname = "finalmem-hb";
lastChange = "2013-03-10 17:04:25 +0200";
layers = (
{
anchors = (
{
name = bottom;
position = "{501, -152}";
},
{
name = bottomleft;
position = "{-119, 0}";
},
{
name = center;
position = "{675, 665}";
},
{
name = top;
position = "{771, 1118}";
},
{
name = topleft;
position = "{319, 1160}";
}
);
layerId = UUID0;
name = "Bold Italic";
paths = (
{
closed = 1;
nodes = (
"504 1310 OFFCURVE",
"290 1267 OFFCURVE",
"290 1267 CURVE",
"21 0 LINE",
"1052 0 LINE",
"1250 931 LINE SMOOTH",
"1306 1194 OFFCURVE",
"1182 1310 OFFCURVE",
"809 1310 CURVE SMOOTH"
);
},
{
closed = 1;
nodes = (
"872 1075 OFFCURVE",
"970 1057 OFFCURVE",
"944 931 CURVE SMOOTH",
"795 233 LINE",
"376 233 LINE",
"554 1068 LINE",
"610 1072 OFFCURVE",
"667 1075 OFFCURVE",
"720 1075 CURVE SMOOTH"
);
}
);
width = 1345;
}
);
unicode = 05DD;
},
{
glyphname = "mem-hb";
lastChange = "2013-03-10 17:04:25 +0200";
layers = (
{
anchors = (
{
name = bottom;
position = "{535, -152}";
},
{
name = bottomleft;
position = "{-119, 0}";
},
{
name = center;
position = "{709, 665}";
},
{
name = top;
position = "{805, 1118}";
},
{
name = topleft;
position = "{249, 1160}";
}
);
layerId = UUID0;
name = "Bold Italic";
paths = (
{
closed = 1;
nodes = (
"712 1310 OFFCURVE",
"569 1093 OFFCURVE",
"569 1093 CURVE SMOOTH",
"569 1093 OFFCURVE",
"550 1093 OFFCURVE",
"550 1093 CURVE SMOOTH",
"550 1093 OFFCURVE",
"550 1145 OFFCURVE",
"546 1200 CURVE SMOOTH",
"542 1252 OFFCURVE",
"535 1291 OFFCURVE",
"535 1291 CURVE SMOOTH",
"535 1291 OFFCURVE",
"244 1293 OFFCURVE",
"243 1291 CURVE SMOOTH",
"243 1289 OFFCURVE",
"249 1257 OFFCURVE",
"255 1176 CURVE SMOOTH",
"262 1081 OFFCURVE",
"257 965 OFFCURVE",
"212 819 CURVE SMOOTH",
"-37 0 LINE",
"-37 0 OFFCURVE",
"261 0 OFFCURVE",
"261 0 CURVE",
"520 860 LINE",
"520 860 OFFCURVE",
"652 1068 OFFCURVE",
"818 1068 CURVE SMOOTH",
"1019 1068 OFFCURVE",
"991 864 OFFCURVE",
"956 695 CURVE SMOOTH",
"857 233 LINE",
"857 233 OFFCURVE",
"617 233 OFFCURVE",
"617 233 CURVE SMOOTH",
"617 233 OFFCURVE",
"568 0 OFFCURVE",
"568 0 CURVE SMOOTH",
"568 0 OFFCURVE",
"1120 0 OFFCURVE",
"1120 0 CURVE",
"1275 730 LINE SMOOTH",
"1337 1020 OFFCURVE",
"1318 1310 OFFCURVE",
"1000 1310 CURVE SMOOTH"
);
}
);
width = 1413;
}
);
unicode = 05DE;
},
{
glyphname = "finalnun-hb";
lastChange = "2013-03-12 07:34:36 +0200";
layers = (
{
anchors = (
{
name = bottom;
position = "{-365, 188}";
},
{
name = bottomleft;
position = "{-109, 0}";
},
{
name = center;
position = "{-32, 665}";
},
{
name = top;
position = "{410, 1118}";
},
{
name = topleft;
position = "{242, 1160}";
}
);
layerId = UUID0;
name = "Bold Italic";
paths = (
{
closed = 1;
nodes = (
"523 1290 OFFCURVE",
"220 1290 OFFCURVE",
"218 1290 CURVE SMOOTH",
"216 1290 OFFCURVE",
"253 1123 OFFCURVE",
"190 825 CURVE SMOOTH",
"166 714 OFFCURVE",
"-90 -492 OFFCURVE",
"-90 -492 CURVE SMOOTH",
"-90 -492 OFFCURVE",
"215 -492 OFFCURVE",
"215 -492 CURVE",
"495 825 LINE SMOOTH",
"558 1123 OFFCURVE",
"521 1290 OFFCURVE",
"523 1290 CURVE"
);
}
);
width = 602;
}
);
unicode = 05DF;
},
{
glyphname = "nun-hb";
lastChange = "2013-03-10 17:04:25 +0200";
layers = (
{
anchors = (
{
name = bottom;
position = "{268, -152}";
},
{
name = bottomleft;
position = "{-119, 0}";
},
{
name = center;
position = "{229, 665}";
},
{
name = top;
position = "{538, 1118}";
},
{
name = topleft;
position = "{304, 1160}";
}
);
layerId = UUID0;
name = "Bold Italic";
paths = (
{
closed = 1;
nodes = (
"390 1310 OFFCURVE",
"321 1299 OFFCURVE",
"286 1292 CURVE",
"235 1052 LINE",
"268 1059 OFFCURVE",
"327 1069 OFFCURVE",
"390 1069 CURVE SMOOTH",
"493 1069 OFFCURVE",
"490 983 OFFCURVE",
"474 908 CURVE SMOOTH",
"379 463 LINE",
"347 310 OFFCURVE",
"312 233 OFFCURVE",
"312 233 CURVE",
"2 233 LINE",
"-47 0 LINE",
"536 0 LINE",
"536 0 OFFCURVE",
"622 172 OFFCURVE",
"667 383 CURVE",
"779 908 LINE SMOOTH",
"827 1134 OFFCURVE",
"791 1310 OFFCURVE",
"477 1310 CURVE SMOOTH"
);
}
);
width = 879;
}
);
unicode = 05E0;
},
{
glyphname = "samekh-hb";
lastChange = "2013-03-10 17:04:25 +0200";
layers = (
{
anchors = (
{
name = bottom;
position = "{465, -152}";
},
{
name = bottomleft;
position = "{-117, 0}";
},
{
name = center;
position = "{638, 665}";
},
{
name = top;
position = "{735, 1118}";
},
{
name = topleft;
position = "{267, 1160}";
}
);
layerId = UUID0;
name = "Bold Italic";
paths = (
{
closed = 1;
nodes = (
"484 1310 OFFCURVE",
"247 1282 OFFCURVE",
"247 1282 CURVE",
"198 1051 LINE",
"332 1060 LINE",
"331 1052 LINE",
"245 986 OFFCURVE",
"128 816 OFFCURVE",
"92 645 CURVE SMOOTH",
"3 224 OFFCURVE",
"159 -20 OFFCURVE",
"496 -20 CURVE SMOOTH",
"826 -20 OFFCURVE",
"1087 224 OFFCURVE",
"1176 645 CURVE SMOOTH",
"1265 1066 OFFCURVE",
"1117 1310 OFFCURVE",
"775 1310 CURVE SMOOTH"
);
},
{
closed = 1;
nodes = (
"888 1075 OFFCURVE",
"924 916 OFFCURVE",
"866 645 CURVE SMOOTH",
"808 374 OFFCURVE",
"707 223 OFFCURVE",
"544 223 CURVE SMOOTH",
"381 223 OFFCURVE",
"344 374 OFFCURVE",
"402 645 CURVE SMOOTH",
"445 845 OFFCURVE",
"518 972 OFFCURVE",
"612 1073 CURVE",
"612 1073 OFFCURVE",
"655 1075 OFFCURVE",
"725 1075 CURVE SMOOTH"
);
}
);
width = 1268;
}
);
unicode = 05E1;
},
{
glyphname = "ayin-hb";
lastChange = "2013-03-10 17:04:25 +0200";
layers = (
{
anchors = (
{
name = bottom;
position = "{486, -152}";
},
{
name = bottomleft;
position = "{-111, 0}";
},
{
name = center;
position = "{740, 805}";
},
{
name = top;
position = "{756, 1118}";
},
{
name = topleft;
position = "{283, 1160}";
}
);
layerId = UUID0;
name = "Bold Italic";
paths = (
{
closed = 1;
nodes = (
"260 1290 LINE",
"316 225 LINE",
"-23 176 LINE",
"-73 -60 LINE",
"348 0 LINE SMOOTH",
"984 105 OFFCURVE",
"1118 557 OFFCURVE",
"1169 729 CURVE SMOOTH",
"1338 1289 LINE",
"1036 1289 LINE",
"855 685 LINE SMOOTH",
"796 487 OFFCURVE",
"712 367 OFFCURVE",
"591 299 CURVE",
"598 708 LINE",
"564 1290 LINE"
);
}
);
width = 1297;
}
);
unicode = 05E2;
},
{
glyphname = "finalpe-hb";
lastChange = "2013-03-12 07:35:03 +0200";
layers = (
{
anchors = (
{
name = bottom;
position = "{307, 184}";
},
{
name = bottomleft;
position = "{-108, 0}";
},
{
name = center;
position = "{669, 865}";
},
{
name = top;
position = "{764, 1118}";
},
{
name = topleft;
position = "{266, 1160}";
}
);
layerId = UUID0;
name = "Bold Italic";
paths = (
{
closed = 1;
nodes = (
"519 1312 OFFCURVE",
"199 1209 OFFCURVE",
"123 853 CURVE SMOOTH",
"45 484 OFFCURVE",
"307 452 OFFCURVE",
"447 433 CURVE SMOOTH",
"498 426 LINE",
"498 426 OFFCURVE",
"598 654 OFFCURVE",
"598 654 CURVE",
"561 661 LINE SMOOTH",
"519 669 OFFCURVE",
"405 721 OFFCURVE",
"436 864 CURVE SMOOTH",
"443 898 OFFCURVE",
"490 1067 OFFCURVE",
"712 1067 CURVE SMOOTH",
"934 1067 OFFCURVE",
"895 842 OFFCURVE",
"853 646 CURVE",
"853 647 OFFCURVE",
"611 -492 OFFCURVE",
"611 -492 CURVE SMOOTH",
"611 -492 OFFCURVE",
"922 -492 OFFCURVE",
"922 -492 CURVE SMOOTH",
"922 -492 OFFCURVE",
"1164 645 OFFCURVE",
"1164 646 CURVE SMOOTH",
"1282 1201 OFFCURVE",
"1009 1312 OFFCURVE",
"764 1312 CURVE SMOOTH"
);
}
);
width = 1309;
}
);
unicode = 05E3;
},
{
glyphname = "pe-hb";
lastChange = "2013-03-10 17:04:25 +0200";
layers = (
{
anchors = (
{
name = bottom;
position = "{466, -152}";
},
{
name = bottomleft;
position = "{-117, 0}";
},
{
name = center;
position = "{682, 868}";
},
{
name = top;
position = "{736, 1118}";
},
{
name = topleft;
position = "{282, 1160}";
}
);
layerId = UUID0;
name = "Bold Italic";
paths = (
{
closed = 1;
nodes = (
"531 1310 OFFCURVE",
"212 1209 OFFCURVE",
"136 853 CURVE SMOOTH",
"58 484 OFFCURVE",
"320 452 OFFCURVE",
"460 433 CURVE SMOOTH",
"511 426 LINE",
"511 426 OFFCURVE",
"611 654 OFFCURVE",
"611 654 CURVE",
"574 661 LINE SMOOTH",
"532 669 OFFCURVE",
"418 721 OFFCURVE",
"449 864 CURVE SMOOTH",
"456 898 OFFCURVE",
"503 1067 OFFCURVE",
"725 1067 CURVE SMOOTH",
"947 1067 OFFCURVE",
"908 842 OFFCURVE",
"866 646 CURVE SMOOTH",
"825 450 OFFCURVE",
"765 214 OFFCURVE",
"543 214 CURVE SMOOTH",
"306 214 OFFCURVE",
"80 232 OFFCURVE",
"80 232 CURVE",
"33 8 LINE",
"33 8 OFFCURVE",
"205 -20 OFFCURVE",
"493 -20 CURVE SMOOTH",
"782 -20 OFFCURVE",
"1059 91 OFFCURVE",
"1177 646 CURVE SMOOTH",
"1295 1201 OFFCURVE",
"1021 1310 OFFCURVE",
"776 1310 CURVE SMOOTH"
);
}
);
width = 1269;
}
);
unicode = 05E4;
},
{
glyphname = "finaltsadi-hb";
lastChange = "2013-03-12 07:35:21 +0200";
layers = (
{
anchors = (
{
name = bottom;
position = "{-200, 188}";
},
{
name = bottomleft;
position = "{-108, 0}";
},
{
name = center;
position = "{708, 968}";
},
{
name = top;
position = "{697, 1118}";
},
{
name = topleft;
position = "{198, 1160}";
}
);
layerId = UUID0;
name = "Bold Italic";
paths = (
{
closed = 1;
nodes = (
"912 1290 LINE",
"814 825 LINE SMOOTH",
"786 694 OFFCURVE",
"731 643 OFFCURVE",
"626 643 CURVE SMOOTH",
"613 643 OFFCURVE",
"593 644 OFFCURVE",
"574 646 CURVE",
"574 661 LINE",
"488 1290 LINE",
"154 1290 LINE",
"288 577 LINE",
"61 -492 LINE",
"366 -492 LINE",
"564 440 LINE",
"587 437 OFFCURVE",
"614 435 OFFCURVE",
"644 435 CURVE SMOOTH",
"961 435 OFFCURVE",
"1079 640 OFFCURVE",
"1119 828 CURVE SMOOTH",
"1217 1290 LINE"
);
}
);
width = 1173;
}
);
unicode = 05E5;
},
{
glyphname = "tsadi-hb";
lastChange = "2013-03-10 17:04:25 +0200";
layers = (
{
anchors = (
{
name = bottom;
position = "{416, -152}";
},
{
name = bottomleft;
position = "{-117, 0}";
},
{
name = center;
position = "{243, 520}";
},
{
name = top;
position = "{738, 1118}";
},
{
name = topleft;
position = "{230, 1160}";
}
);
layerId = UUID0;
name = "Bold Italic";
paths = (
{
closed = 1;
nodes = (
"202 1290 LINE",
"505 573 LINE",
"711 223 LINE",
"710 219 LINE",
"485 233 LINE",
"-13 233 LINE",
"-62 0 LINE",
"1040 0 LINE",
"1077 176 LINE",
"890 505 LINE",
"1137 683 OFFCURVE",
"1211 933 OFFCURVE",
"1247 1051 CURVE SMOOTH",
"1319 1289 LINE",
"1017 1289 LINE",
"933 1007 LINE SMOOTH",
"893 876 OFFCURVE",
"844 779 OFFCURVE",
"781 709 CURVE",
"544 1290 LINE"
);
}
);
width = 1274;
}
);
unicode = 05E6;
},
{
glyphname = "qof-hb";
lastChange = "2013-03-12 07:35:45 +0200";
layers = (
{
anchors = (
{
name = bottom;
position = "{649, -152}";
},
{
name = bottomleft;
position = "{-111, 0}";
},
{
name = center;
position = "{626, 665}";
},
{
name = top;
position = "{749, 1118}";
},
{
name = topleft;
position = "{321, 1160}";
}
);
layerId = UUID0;
name = "Bold Italic";
paths = (
{
closed = 1;
nodes = (
"303 1290 LINE",
"254 1057 LINE",
"1009 1057 LINE",
"692 505 LINE SMOOTH",
"606 357 OFFCURVE",
"523 133 OFFCURVE",
"502 34 CURVE SMOOTH",
"494 0 LINE",
"797 0 LINE",
"805 34 LINE SMOOTH",
"829 150 OFFCURVE",
"901 327 OFFCURVE",
"1011 517 CURVE SMOOTH",
"1353 1106 LINE",
"1392 1290 LINE"
);
},
{
closed = 1;
nodes = (
"194 772 LINE",
"-74 -493 LINE",
"-74 -493 OFFCURVE",
"209 -493 OFFCURVE",
"209 -493 CURVE",
"477 772 LINE"
);
}
);
width = 1310;
}
);
unicode = 05E7;
},
{
glyphname = "resh-hb";
lastChange = "2013-03-12 07:36:06 +0200";
layers = (
{
anchors = (
{
name = bottom;
position = "{604, -152}";
},
{
name = bottomleft;
position = "{-110, 0}";
},
{
name = center;
position = "{335, 665}";
},
{
name = top;
position = "{648, 1118}";
},
{
name = topleft;
position = "{225, 1160}";
}
);
layerId = UUID0;
name = "Bold Italic";
paths = (
{
closed = 1;
nodes = (
"405 1310 OFFCURVE",
"278 1299 OFFCURVE",
"187 1289 CURVE",
"137 1054 LINE",
"233 1064 OFFCURVE",
"359 1075 OFFCURVE",
"466 1075 CURVE SMOOTH",
"611 1075 OFFCURVE",
"709 1020 OFFCURVE",
"671 844 CURVE SMOOTH",
"492 0 LINE",
"798 0 LINE",
"977 843 LINE SMOOTH",
"1039 1134 OFFCURVE",
"1009 1310 OFFCURVE",
"555 1310 CURVE SMOOTH"
);
}
);
width = 1082;
}
);
unicode = 05E8;
},
{
glyphname = "shin-hb";
lastChange = "2013-03-10 17:04:25 +0200";
layers = (
{
anchors = (
{
name = bottom;
position = "{476, -152}";
},
{
name = bottomleft;
position = "{-117, 0}";
},
{
name = center;
position = "{857, 413}";
},
{
name = top;
position = "{912, 1160}";
},
{
name = topleft;
position = "{254, 1160}";
},
{
name = topright;
position = "{1694, 1160}";
}
);
layerId = UUID0;
name = "Bold Italic";
paths = (
{
closed = 1;
nodes = (
"1360 1290 LINE",
"1191 721 LINE SMOOTH",
"1106 431 OFFCURVE",
"952 233 OFFCURVE",
"721 233 CURVE SMOOTH",
"395 233 LINE",
"422 437 LINE",
"440 436 OFFCURVE",
"457 435 OFFCURVE",
"478 435 CURVE SMOOTH",
"796 435 OFFCURVE",
"917 640 OFFCURVE",
"972 828 CURVE SMOOTH",
"1107 1290 LINE",
"817 1290 LINE",
"680 825 LINE SMOOTH",
"641 694 OFFCURVE",
"583 643 OFFCURVE",
"478 643 CURVE SMOOTH",
"470 643 OFFCURVE",
"460 643 OFFCURVE",
"448 644 CURVE",
"531 1290 LINE",
"239 1290 LINE",
"74 0 LINE",
"658 0 LINE SMOOTH",
"1280 0 OFFCURVE",
"1433 557 OFFCURVE",
"1485 729 CURVE SMOOTH",
"1652 1290 LINE"
);
}
);
width = 1605;
}
);
unicode = 05E9;
},
{
glyphname = "tav-hb";
lastChange = "2013-03-10 17:04:25 +0200";
layers = (
{
anchors = (
{
name = bottom;
position = "{549, -152}";
},
{
name = bottomleft;
position = "{-117, 0}";
},
{
name = center;
position = "{792, 665}";
},
{
name = top;
position = "{819, 1118}";
},
{
name = topleft;
position = "{309, 1160}";
}
);
layerId = UUID0;
name = "Bold Italic";
paths = (
{
closed = 1;
nodes = (
"596 1310 OFFCURVE",
"281 1267 OFFCURVE",
"281 1267 CURVE",
"232 1036 LINE",
"232 1036 OFFCURVE",
"293 1042 OFFCURVE",
"380 1050 CURVE",
"238 382 LINE SMOOTH",
"222 306 OFFCURVE",
"189 221 OFFCURVE",
"86 221 CURVE SMOOTH",
"47 221 OFFCURVE",
"-16 239 OFFCURVE",
"-16 239 CURVE",
"-66 7 LINE",
"-66 7 OFFCURVE",
"-17 -20 OFFCURVE",
"71 -20 CURVE SMOOTH",
"385 -20 OFFCURVE",
"495 156 OFFCURVE",
"543 382 CURVE SMOOTH",
"690 1072 LINE",
"734 1074 OFFCURVE",
"775 1075 OFFCURVE",
"812 1075 CURVE SMOOTH",
"957 1075 OFFCURVE",
"1054 1020 OFFCURVE",
"1016 844 CURVE SMOOTH",
"837 0 LINE",
"1144 0 LINE",
"1323 843 LINE SMOOTH",
"1385 1134 OFFCURVE",
"1355 1310 OFFCURVE",
"901 1310 CURVE SMOOTH"
);
}
);
width = 1435;
}
);
unicode = 05EA;
},
{
glyphname = zero;
lastChange = "2013-03-10 16:55:05 +0200";
layers = (
{
layerId = UUID0;
name = "Bold Italic";
paths = (
{
closed = 1;
nodes = (
"1110 1327 OFFCURVE",
"977 1485 OFFCURVE",
"711 1485 CURVE SMOOTH",
"459 1485 OFFCURVE",
"262 1324 OFFCURVE",
"150 1004 CURVE SMOOTH",
"94 844 OFFCURVE",
"66 665 OFFCURVE",
"66 467 CURVE SMOOTH",
"66 143 OFFCURVE",
"205 -20 OFFCURVE",
"469 -20 CURVE SMOOTH",
"672 -20 OFFCURVE",
"829 74 OFFCURVE",
"941 261 CURVE SMOOTH",
"1054 448 OFFCURVE",
"1110 699 OFFCURVE",
"1110 1012 CURVE SMOOTH"
);
},
{
closed = 1;
nodes = (
"767 1235 OFFCURVE",
"807 1170 OFFCURVE",
"807 1022 CURVE SMOOTH",
"807 895 OFFCURVE",
"791 766 OFFCURVE",
"760 636 CURVE SMOOTH",
"729 506 OFFCURVE",
"691 406 OFFCURVE",
"644 335 CURVE SMOOTH",
"598 264 OFFCURVE",
"548 229 OFFCURVE",
"494 229 CURVE SMOOTH",
"401 229 OFFCURVE",
"369 308 OFFCURVE",
"369 461 CURVE SMOOTH",
"369 574 OFFCURVE",
"385 697 OFFCURVE",
"417 829 CURVE SMOOTH",
"449 961 OFFCURVE",
"488 1062 OFFCURVE",
"534 1131 CURVE SMOOTH",
"581 1200 OFFCURVE",
"631 1235 OFFCURVE",
"684 1235 CURVE SMOOTH"
);
}
);
width = 1128;
}
);
unicode = 0030;
},
{
glyphname = one;
lastChange = "2013-03-10 16:55:05 +0200";
layers = (
{
layerId = UUID0;
name = "Bold Italic";
paths = (
{
closed = 1;
nodes = (
"997 1462 LINE",
"748 1462 LINE",
"182 1114 LINE",
"315 899 LINE",
"455 986 OFFCURVE",
"542 1043 OFFCURVE",
"577 1069 CURVE SMOOTH",
"639 1116 LINE",
"612 1026 OFFCURVE",
"586 930 OFFCURVE",
"563 829 CURVE",
"383 0 LINE",
"688 0 LINE"
);
}
);
width = 1128;
}
);
unicode = 0031;
},
{
glyphname = two;
lastChange = "2013-03-10 16:55:05 +0200";
layers = (
{
layerId = UUID0;
name = "Bold Italic";
paths = (
{
closed = 1;
nodes = (
"967 260 LINE",
"399 260 LINE",
"399 270 LINE",
"668 492 LINE SMOOTH",
"791 593 OFFCURVE",
"880 674 OFFCURVE",
"934 737 CURVE SMOOTH",
"989 800 OFFCURVE",
"1030 862 OFFCURVE",
"1057 925 CURVE SMOOTH",
"1084 988 OFFCURVE",
"1098 1055 OFFCURVE",
"1098 1126 CURVE SMOOTH",
"1098 1233 OFFCURVE",
"1061 1320 OFFCURVE",
"987 1385 CURVE SMOOTH",
"913 1450 OFFCURVE",
"813 1483 OFFCURVE",
"686 1483 CURVE SMOOTH",
"599 1483 OFFCURVE",
"516 1467 OFFCURVE",
"436 1435 CURVE SMOOTH",
"356 1404 OFFCURVE",
"272 1351 OFFCURVE",
"184 1276 CURVE",
"330 1073 LINE",
"398 1130 OFFCURVE",
"455 1169 OFFCURVE",
"501 1191 CURVE SMOOTH",
"548 1214 OFFCURVE",
"593 1225 OFFCURVE",
"637 1225 CURVE SMOOTH",
"729 1225 OFFCURVE",
"788 1171 OFFCURVE",
"788 1071 CURVE SMOOTH",
"788 1015 OFFCURVE",
"765 955 OFFCURVE",
"719 891 CURVE SMOOTH",
"674 828 OFFCURVE",
"591 743 OFFCURVE",
"471 637 CURVE SMOOTH",
"-6 213 LINE",
"-49 0 LINE",
"913 0 LINE"
);
}
);
width = 1128;
}
);
unicode = 0032;
},
{
glyphname = three;
lastChange = "2013-03-10 16:55:05 +0200";
layers = (
{
layerId = UUID0;
name = "Bold Italic";
paths = (
{
closed = 1;
nodes = (
"1104 1251 OFFCURVE",
"1068 1332 OFFCURVE",
"996 1392 CURVE SMOOTH",
"924 1453 OFFCURVE",
"825 1483 OFFCURVE",
"698 1483 CURVE SMOOTH",
"606 1483 OFFCURVE",
"524 1472 OFFCURVE",
"451 1450 CURVE SMOOTH",
"379 1429 OFFCURVE",
"302 1391 OFFCURVE",
"219 1337 CURVE",
"346 1133 LINE",
"448 1200 OFFCURVE",
"544 1233 OFFCURVE",
"633 1233 CURVE SMOOTH",
"737 1233 OFFCURVE",
"797 1181 OFFCURVE",
"797 1092 CURVE SMOOTH",
"797 1019 OFFCURVE",
"765 961 OFFCURVE",
"701 920 CURVE SMOOTH",
"637 879 OFFCURVE",
"549 858 OFFCURVE",
"438 858 CURVE SMOOTH",
"365 858 LINE",
"319 637 LINE",
"457 637 LINE SMOOTH",
"629 637 OFFCURVE",
"715 580 OFFCURVE",
"715 465 CURVE SMOOTH",
"715 314 OFFCURVE",
"598 225 OFFCURVE",
"387 225 CURVE SMOOTH",
"263 225 OFFCURVE",
"126 259 OFFCURVE",
"14 326 CURVE",
"14 59 LINE",
"113 6 OFFCURVE",
"242 -20 OFFCURVE",
"401 -20 CURVE",
"778 -24 OFFCURVE",
"1017 175 OFFCURVE",
"1014 440 CURVE",
"1014 601 OFFCURVE",
"923 713 OFFCURVE",
"748 748 CURVE",
"748 752 LINE",
"859 771 OFFCURVE",
"946 816 OFFCURVE",
"1009 887 CURVE SMOOTH",
"1072 958 OFFCURVE",
"1104 1045 OFFCURVE",
"1104 1149 CURVE SMOOTH"
);
}
);
width = 1128;
}
);
unicode = 0033;
},
{
glyphname = four;
lastChange = "2013-03-10 16:55:05 +0200";
layers = (
{
layerId = UUID0;
name = "Bold Italic";
paths = (
{
closed = 1;
nodes = (
"1079 543 LINE",
"909 543 LINE",
"1104 1462 LINE",
"793 1462 LINE",
"23 537 LINE",
"-25 303 LINE",
"565 303 LINE",
"502 0 LINE",
"795 0 LINE",
"858 303 LINE",
"1028 303 LINE"
);
},
{
closed = 1;
nodes = (
"305 543 LINE",
"618 915 LINE",
"683 994 OFFCURVE",
"727 1054 OFFCURVE",
"750 1096 CURVE",
"756 1096 LINE",
"747 1073 OFFCURVE",
"733 1026 OFFCURVE",
"714 955 CURVE SMOOTH",
"695 884 OFFCURVE",
"682 830 OFFCURVE",
"674 791 CURVE",
"616 543 LINE"
);
}
);
width = 1128;
}
);
unicode = 0034;
},
{
glyphname = five;
lastChange = "2013-03-10 16:55:05 +0200";
layers = (
{
layerId = UUID0;
name = "Bold Italic";
paths = (
{
closed = 1;
nodes = (
"586 922 OFFCURVE",
"544 917 OFFCURVE",
"496 907 CURVE",
"584 1200 LINE",
"1073 1200 LINE",
"1128 1462 LINE",
"373 1462 LINE",
"166 729 LINE",
"270 651 LINE",
"344 673 OFFCURVE",
"415 684 OFFCURVE",
"483 684 CURVE SMOOTH",
"628 684 OFFCURVE",
"707 621 OFFCURVE",
"707 496 CURVE SMOOTH",
"707 414 OFFCURVE",
"678 349 OFFCURVE",
"620 302 CURVE SMOOTH",
"562 255 OFFCURVE",
"482 231 OFFCURVE",
"379 231 CURVE SMOOTH",
"260 231 OFFCURVE",
"143 264 OFFCURVE",
"27 330 CURVE",
"27 61 LINE",
"68 38 OFFCURVE",
"122 18 OFFCURVE",
"189 3 CURVE SMOOTH",
"257 -12 OFFCURVE",
"330 -20 OFFCURVE",
"408 -20 CURVE",
"794 -24 OFFCURVE",
"1020 199 OFFCURVE",
"1018 532 CURVE",
"1018 655 OFFCURVE",
"983 750 OFFCURVE",
"912 819 CURVE SMOOTH",
"841 888 OFFCURVE",
"745 922 OFFCURVE",
"623 922 CURVE SMOOTH"
);
}
);
width = 1128;
}
);
unicode = 0035;
},
{
glyphname = six;
lastChange = "2013-03-10 16:55:05 +0200";
layers = (
{
layerId = UUID0;
name = "Bold Italic";
paths = (
{
closed = 1;
nodes = (
"88 156 OFFCURVE",
"233 -20 OFFCURVE",
"516 -20 CURVE SMOOTH",
"727 -20 OFFCURVE",
"889 74 OFFCURVE",
"984 266 CURVE SMOOTH",
"1031 363 OFFCURVE",
"1055 467 OFFCURVE",
"1055 580 CURVE SMOOTH",
"1055 815 OFFCURVE",
"936 950 OFFCURVE",
"727 950 CURVE SMOOTH",
"596 950 OFFCURVE",
"493 895 OFFCURVE",
"416 784 CURVE",
"412 784 LINE",
"456 942 OFFCURVE",
"518 1057 OFFCURVE",
"597 1129 CURVE SMOOTH",
"677 1201 OFFCURVE",
"782 1237 OFFCURVE",
"911 1237 CURVE SMOOTH",
"982 1237 OFFCURVE",
"1046 1229 OFFCURVE",
"1102 1212 CURVE",
"1153 1458 LINE",
"1088 1476 OFFCURVE",
"1013 1485 OFFCURVE",
"930 1485 CURVE SMOOTH",
"654 1485 OFFCURVE",
"459 1388 OFFCURVE",
"316 1199 CURVE SMOOTH",
"245 1105 OFFCURVE",
"190 993 OFFCURVE",
"149 864 CURVE SMOOTH",
"108 735 OFFCURVE",
"88 604 OFFCURVE",
"88 469 CURVE SMOOTH"
);
},
{
closed = 1;
nodes = (
"441 227 OFFCURVE",
"383 301 OFFCURVE",
"383 422 CURVE SMOOTH",
"383 555 OFFCURVE",
"431 630 OFFCURVE",
"503 677 CURVE SMOOTH",
"540 701 OFFCURVE",
"578 713 OFFCURVE",
"618 713 CURVE SMOOTH",
"710 713 OFFCURVE",
"754 652 OFFCURVE",
"754 557 CURVE SMOOTH",
"754 462 OFFCURVE",
"733 384 OFFCURVE",
"691 321 CURVE SMOOTH",
"650 258 OFFCURVE",
"596 227 OFFCURVE",
"530 227 CURVE SMOOTH"
);
}
);
width = 1128;
}
);
unicode = 0036;
},
{
glyphname = seven;
lastChange = "2013-03-10 16:55:05 +0200";
layers = (
{
layerId = UUID0;
name = "Bold Italic";
paths = (
{
closed = 1;
nodes = (
"424 0 LINE",
"1176 1268 LINE",
"1217 1462 LINE",
"242 1462 LINE",
"186 1202 LINE",
"815 1202 LINE",
"78 0 LINE"
);
}
);
width = 1128;
}
);
unicode = 0037;
},
{
glyphname = eight;
lastChange = "2013-03-10 16:55:05 +0200";
layers = (
{
layerId = UUID0;
name = "Bold Italic";
paths = (
{
closed = 1;
nodes = (
"426 1489 OFFCURVE",
"234 1312 OFFCURVE",
"238 1075 CURVE",
"238 964 OFFCURVE",
"293 864 OFFCURVE",
"403 776 CURVE",
"171 691 OFFCURVE",
"55 549 OFFCURVE",
"55 350 CURVE SMOOTH",
"55 237 OFFCURVE",
"96 147 OFFCURVE",
"177 80 CURVE SMOOTH",
"259 13 OFFCURVE",
"371 -20 OFFCURVE",
"514 -20 CURVE",
"825 -24 OFFCURVE",
"1036 157 OFFCURVE",
"1032 401 CURVE",
"1032 550 OFFCURVE",
"960 672 OFFCURVE",
"815 766 CURVE",
"1015 835 OFFCURVE",
"1126 972 OFFCURVE",
"1126 1151 CURVE",
"1130 1346 OFFCURVE",
"968 1488 OFFCURVE",
"721 1485 CURVE"
);
},
{
closed = 1;
nodes = (
"694 571 OFFCURVE",
"739 496 OFFCURVE",
"739 399 CURVE SMOOTH",
"739 342 OFFCURVE",
"721 296 OFFCURVE",
"684 260 CURVE SMOOTH",
"648 225 OFFCURVE",
"599 207 OFFCURVE",
"537 207 CURVE SMOOTH",
"424 207 OFFCURVE",
"352 275 OFFCURVE",
"352 383 CURVE SMOOTH",
"352 504 OFFCURVE",
"427 583 OFFCURVE",
"582 643 CURVE"
);
},
{
closed = 1;
nodes = (
"778 1260 OFFCURVE",
"836 1205 OFFCURVE",
"836 1114 CURVE SMOOTH",
"836 1015 OFFCURVE",
"774 941 OFFCURVE",
"651 893 CURVE",
"569 939 OFFCURVE",
"528 1006 OFFCURVE",
"528 1094 CURVE SMOOTH",
"528 1191 OFFCURVE",
"593 1260 OFFCURVE",
"694 1260 CURVE SMOOTH"
);
}
);
width = 1128;
}
);
unicode = 0038;
},
{
glyphname = nine;
lastChange = "2013-03-10 16:55:05 +0200";
layers = (
{
layerId = UUID0;
name = "Bold Italic";
paths = (
{
closed = 1;
nodes = (
"1092 1318 OFFCURVE",
"949 1485 OFFCURVE",
"678 1485 CURVE SMOOTH",
"461 1485 OFFCURVE",
"293 1395 OFFCURVE",
"196 1208 CURVE SMOOTH",
"147 1115 OFFCURVE",
"123 1014 OFFCURVE",
"123 903 CURVE SMOOTH",
"123 782 OFFCURVE",
"153 686 OFFCURVE",
"212 617 CURVE SMOOTH",
"272 548 OFFCURVE",
"356 514 OFFCURVE",
"465 514 CURVE SMOOTH",
"588 514 OFFCURVE",
"686 567 OFFCURVE",
"760 672 CURVE",
"764 672 LINE",
"736 560 OFFCURVE",
"703 474 OFFCURVE",
"664 414 CURVE SMOOTH",
"626 355 OFFCURVE",
"578 309 OFFCURVE",
"520 276 CURVE SMOOTH",
"463 243 OFFCURVE",
"394 227 OFFCURVE",
"313 227 CURVE SMOOTH",
"236 227 OFFCURVE",
"160 241 OFFCURVE",
"86 268 CURVE",
"86 12 LINE",
"161 -9 OFFCURVE",
"241 -20 OFFCURVE",
"326 -20 CURVE SMOOTH",
"643 -20 OFFCURVE",
"861 131 OFFCURVE",
"993 468 CURVE SMOOTH",
"1059 637 OFFCURVE",
"1092 814 OFFCURVE",
"1092 1001 CURVE SMOOTH"
);
},
{
closed = 1;
nodes = (
"745 1237 OFFCURVE",
"791 1159 OFFCURVE",
"791 1047 CURVE",
"794 861 OFFCURVE",
"686 755 OFFCURVE",
"567 752 CURVE",
"476 752 OFFCURVE",
"424 812 OFFCURVE",
"424 928 CURVE",
"422 1089 OFFCURVE",
"515 1242 OFFCURVE",
"645 1237 CURVE"
);
}
);
width = 1128;
}
);
unicode = 0039;
},
{
glyphname = fraction;
lastChange = "2013-03-10 16:55:05 +0200";
layers = (
{
layerId = UUID0;
name = "Bold Italic";
paths = (
{
closed = 1;
nodes = (
"555 1462 LINE",
"-532 0 LINE",
"-293 0 LINE",
"791 1462 LINE"
);
}
);
width = 256;
}
);
unicode = 2044;
},
{
glyphname = asterisk;
lastChange = "2013-03-10 16:55:05 +0200";
layers = (
{
layerId = UUID0;
name = "Bold Italic";
paths = (
{
closed = 1;
nodes = (
"629 1573 LINE",
"596 1204 LINE",
"258 1378 LINE",
"172 1141 LINE",
"498 1049 LINE",
"223 801 LINE",
"430 637 LINE",
"627 915 LINE",
"717 578 LINE",
"963 651 LINE",
"803 987 LINE",
"1141 944 LINE",
"1159 1198 LINE",
"772 1169 LINE",
"885 1522 LINE"
);
}
);
width = 1116;
}
);
unicode = 002A;
},
{
glyphname = backslash;
lastChange = "2013-03-10 16:55:05 +0200";
layers = (
{
layerId = UUID0;
name = "Bold Italic";
paths = (
{
closed = 1;
nodes = (
"221 1462 LINE",
"438 0 LINE",
"705 0 LINE",
"481 1462 LINE"
);
}
);
width = 862;
}
);
unicode = 005C;
},
{
glyphname = bullet;
lastChange = "2013-03-10 16:55:05 +0200";
layers = (
{
layerId = UUID0;
name = "Bold Italic";
paths = (
{
closed = 1;
nodes = (
"104 523 OFFCURVE",
"198 430 OFFCURVE",
"354 430 CURVE SMOOTH",
"459 430 OFFCURVE",
"541 463 OFFCURVE",
"602 530 CURVE SMOOTH",
"663 597 OFFCURVE",
"694 689 OFFCURVE",
"694 807 CURVE SMOOTH",
"694 972 OFFCURVE",
"609 1065 OFFCURVE",
"449 1065 CURVE",
"240 1071 OFFCURVE",
"103 899 OFFCURVE",
"104 686 CURVE SMOOTH"
);
}
);
width = 739;
}
);
unicode = 2022;
},
{
glyphname = colon;
lastChange = "2013-03-10 16:55:05 +0200";
layers = (
{
layerId = UUID0;
name = "Bold Italic";
paths = (
{
closed = 1;
nodes = (
"207 849 OFFCURVE",
"266 799 OFFCURVE",
"362 799 CURVE SMOOTH",
"422 799 OFFCURVE",
"470 817 OFFCURVE",
"506 853 CURVE SMOOTH",
"543 889 OFFCURVE",
"561 936 OFFCURVE",
"561 993 CURVE SMOOTH",
"561 1085 OFFCURVE",
"503 1139 OFFCURVE",
"412 1139 CURVE SMOOTH",
"287 1139 OFFCURVE",
"207 1063 OFFCURVE",
"207 940 CURVE SMOOTH"
);
},
{
closed = 1;
nodes = (
"25 26 OFFCURVE",
"83 -27 OFFCURVE",
"180 -27 CURVE SMOOTH",
"239 -27 OFFCURVE",
"287 -9 OFFCURVE",
"324 27 CURVE SMOOTH",
"361 63 OFFCURVE",
"379 110 OFFCURVE",
"379 168 CURVE SMOOTH",
"379 260 OFFCURVE",
"320 313 OFFCURVE",
"229 313 CURVE SMOOTH",
"100 313 OFFCURVE",
"25 235 OFFCURVE",
"25 115 CURVE SMOOTH"
);
}
);
width = 584;
}
);
unicode = 003A;
},
{
glyphname = comma;
lastChange = "2013-03-10 16:55:05 +0200";
layers = (
{
layerId = UUID0;
name = "Bold Italic";
paths = (
{
closed = 1;
nodes = (
"92 238 LINE",
"12 15 OFFCURVE",
"-53 -153 OFFCURVE",
"-102 -264 CURVE",
"123 -264 LINE",
"219 -115 OFFCURVE",
"306 45 OFFCURVE",
"385 215 CURVE",
"377 238 LINE"
);
}
);
width = 569;
}
);
unicode = 002C;
},
{
glyphname = exclam;
lastChange = "2013-03-10 16:55:05 +0200";
layers = (
{
layerId = UUID0;
name = "Bold Italic";
paths = (
{
closed = 1;
nodes = (
"647 1462 LINE",
"307 1462 LINE",
"150 485 LINE",
"391 485 LINE"
);
},
{
closed = 1;
nodes = (
"25 26 OFFCURVE",
"83 -27 OFFCURVE",
"180 -27 CURVE SMOOTH",
"239 -27 OFFCURVE",
"287 -9 OFFCURVE",
"324 27 CURVE SMOOTH",
"361 63 OFFCURVE",
"379 110 OFFCURVE",
"379 168 CURVE SMOOTH",
"379 260 OFFCURVE",
"320 313 OFFCURVE",
"229 313 CURVE SMOOTH",
"100 313 OFFCURVE",
"25 235 OFFCURVE",
"25 115 CURVE SMOOTH"
);
}
);
width = 586;
}
);
unicode = 0021;
},
{
glyphname = exclamdown;
lastChange = "2013-03-10 16:55:05 +0200";
layers = (
{
layerId = UUID0;
name = "Bold Italic";
paths = (
{
closed = 1;
nodes = (
"-74 -371 LINE",
"266 -371 LINE",
"424 606 LINE",
"182 606 LINE"
);
},
{
closed = 1;
nodes = (
"549 1066 OFFCURVE",
"490 1118 OFFCURVE",
"393 1118 CURVE SMOOTH",
"333 1118 OFFCURVE",
"285 1100 OFFCURVE",
"249 1063 CURVE SMOOTH",
"213 1027 OFFCURVE",
"195 981 OFFCURVE",
"195 924 CURVE SMOOTH",
"195 831 OFFCURVE",
"253 778 OFFCURVE",
"344 778 CURVE SMOOTH",
"469 778 OFFCURVE",
"549 854 OFFCURVE",
"549 977 CURVE SMOOTH"
);
}
);
width = 586;
}
);
unicode = 00A1;
},
{
glyphname = numbersign;
lastChange = "2013-03-10 16:55:05 +0200";
layers = (
{
layerId = UUID0;
name = "Bold Italic";
paths = (
{
closed = 1;
nodes = (
"1315 846 LINE",
"1333 1055 LINE",
"1094 1055 LINE",
"1210 1462 LINE",
"995 1462 LINE",
"879 1055 LINE",
"680 1055 LINE",
"797 1462 LINE",
"580 1462 LINE",
"461 1055 LINE",
"172 1055 LINE",
"154 846 LINE",
"406 846 LINE",
"336 614 LINE",
"59 614 LINE",
"41 408 LINE",
"279 408 LINE",
"166 0 LINE",
"381 0 LINE",
"496 408 LINE",
"690 408 LINE",
"573 0 LINE",
"793 0 LINE",
"909 408 LINE",
"1206 408 LINE",
"1225 614 LINE",
"967 614 LINE",
"1036 846 LINE"
);
},
{
closed = 1;
nodes = (
"623 846 LINE",
"819 846 LINE",
"750 614 LINE",
"553 614 LINE"
);
}
);
width = 1323;
}
);
unicode = 0023;
},
{
glyphname = period;
lastChange = "2013-03-10 16:55:05 +0200";
layers = (
{
layerId = UUID0;
name = "Bold Italic";
paths = (
{
closed = 1;
nodes = (
"25 26 OFFCURVE",
"83 -27 OFFCURVE",
"180 -27 CURVE SMOOTH",
"239 -27 OFFCURVE",
"287 -9 OFFCURVE",
"324 27 CURVE SMOOTH",
"361 63 OFFCURVE",
"379 110 OFFCURVE",
"379 168 CURVE SMOOTH",
"379 260 OFFCURVE",
"320 313 OFFCURVE",
"229 313 CURVE SMOOTH",
"100 313 OFFCURVE",
"25 235 OFFCURVE",
"25 115 CURVE SMOOTH"
);
}
);
width = 584;
}
);
unicode = 002E;
},
{
glyphname = question;
lastChange = "2013-03-10 16:55:05 +0200";
layers = (
{
layerId = UUID0;
name = "Bold Italic";
paths = (
{
closed = 1;
nodes = (
"518 485 LINE",
"530 534 OFFCURVE",
"543 570 OFFCURVE",
"556 593 CURVE SMOOTH",
"569 616 OFFCURVE",
"587 638 OFFCURVE",
"608 658 CURVE SMOOTH",
"630 678 OFFCURVE",
"662 702 OFFCURVE",
"705 731 CURVE SMOOTH",
"796 792 OFFCURVE",
"859 841 OFFCURVE",
"895 878 CURVE SMOOTH",
"931 916 OFFCURVE",
"958 957 OFFCURVE",
"977 1001 CURVE SMOOTH",
"996 1046 OFFCURVE",
"1006 1096 OFFCURVE",
"1006 1151 CURVE SMOOTH",
"1006 1256 OFFCURVE",
"972 1337 OFFCURVE",
"903 1395 CURVE SMOOTH",
"834 1454 OFFCURVE",
"741 1483 OFFCURVE",
"623 1483 CURVE SMOOTH",
"480 1483 OFFCURVE",
"331 1441 OFFCURVE",
"178 1358 CURVE",
"270 1137 LINE",
"367 1182 OFFCURVE",
"434 1210 OFFCURVE",
"471 1221 CURVE SMOOTH",
"509 1232 OFFCURVE",
"545 1237 OFFCURVE",
"578 1237 CURVE SMOOTH",
"667 1237 OFFCURVE",
"711 1197 OFFCURVE",
"711 1118 CURVE SMOOTH",
"711 1083 OFFCURVE",
"700 1051 OFFCURVE",
"677 1022 CURVE SMOOTH",
"655 993 OFFCURVE",
"603 951 OFFCURVE",
"520 895 CURVE SMOOTH",
"441 841 OFFCURVE",
"384 789 OFFCURVE",
"347 740 CURVE SMOOTH",
"311 691 OFFCURVE",
"287 632 OFFCURVE",
"274 563 CURVE SMOOTH",
"260 485 LINE"
);
},
{
closed = 1;
nodes = (
"166 27 OFFCURVE",
"223 -27 OFFCURVE",
"322 -27 CURVE SMOOTH",
"381 -27 OFFCURVE",
"428 -9 OFFCURVE",
"465 27 CURVE SMOOTH",
"502 63 OFFCURVE",
"520 110 OFFCURVE",
"520 168 CURVE SMOOTH",
"520 260 OFFCURVE",
"462 313 OFFCURVE",
"371 313 CURVE SMOOTH",
"244 313 OFFCURVE",
"166 236 OFFCURVE",
"166 115 CURVE SMOOTH"
);
}
);
width = 940;
}
);
unicode = 003F;
},
{
glyphname = questiondown;
lastChange = "2013-03-10 16:55:05 +0200";
layers = (
{
layerId = UUID0;
name = "Bold Italic";
paths = (
{
closed = 1;
nodes = (
"420 606 LINE",
"412 573 LINE SMOOTH",
"401 532 OFFCURVE",
"384 496 OFFCURVE",
"361 466 CURVE SMOOTH",
"338 437 OFFCURVE",
"295 401 OFFCURVE",
"233 360 CURVE SMOOTH",
"144 301 OFFCURVE",
"81 252 OFFCURVE",
"44 213 CURVE SMOOTH",
"7 175 OFFCURVE",
"-20 134 OFFCURVE",
"-39 89 CURVE SMOOTH",
"-58 45 OFFCURVE",
"-68 -4 OFFCURVE",
"-68 -59 CURVE SMOOTH",
"-68 -164 OFFCURVE",
"-34 -245 OFFCURVE",
"35 -303 CURVE SMOOTH",
"104 -362 OFFCURVE",
"197 -391 OFFCURVE",
"315 -391 CURVE SMOOTH",
"464 -391 OFFCURVE",
"613 -349 OFFCURVE",
"760 -266 CURVE",
"668 -45 LINE",
"571 -90 OFFCURVE",
"504 -118 OFFCURVE",
"466 -129 CURVE SMOOTH",
"429 -140 OFFCURVE",
"393 -145 OFFCURVE",
"360 -145 CURVE SMOOTH",
"271 -145 OFFCURVE",
"227 -106 OFFCURVE",
"227 -27 CURVE SMOOTH",
"227 10 OFFCURVE",
"238 42 OFFCURVE",
"261 71 CURVE SMOOTH",
"284 100 OFFCURVE",
"337 142 OFFCURVE",
"418 197 CURVE SMOOTH",
"493 248 OFFCURVE",
"549 298 OFFCURVE",
"587 348 CURVE SMOOTH",
"626 398 OFFCURVE",
"651 458 OFFCURVE",
"664 528 CURVE SMOOTH",
"678 606 LINE"
);
},
{
closed = 1;
nodes = (
"772 1066 OFFCURVE",
"713 1118 OFFCURVE",
"616 1118 CURVE SMOOTH",
"557 1118 OFFCURVE",
"509 1100 OFFCURVE",
"472 1064 CURVE SMOOTH",
"436 1028 OFFCURVE",
"418 981 OFFCURVE",
"418 924 CURVE SMOOTH",
"418 831 OFFCURVE",
"476 778 OFFCURVE",
"567 778 CURVE SMOOTH",
"692 778 OFFCURVE",
"772 854 OFFCURVE",
"772 977 CURVE SMOOTH"
);
}
);
width = 940;
}
);
unicode = 00BF;
},
{
glyphname = quotedbl;
lastChange = "2013-03-10 16:55:05 +0200";
layers = (
{
layerId = UUID0;
name = "Bold Italic";
paths = (
{
closed = 1;
nodes = (
"272 1462 LINE",
"201 934 LINE",
"397 934 LINE",
"549 1462 LINE"
);
},
{
closed = 1;
nodes = (
"678 1462 LINE",
"604 934 LINE",
"803 934 LINE",
"954 1462 LINE"
);
}
);
width = 928;
}
);
unicode = 0022;
},
{
glyphname = quotesingle;
lastChange = "2013-03-10 16:55:05 +0200";
layers = (
{
layerId = UUID0;
name = "Bold Italic";
paths = (
{
closed = 1;
nodes = (
"272 1462 LINE",
"201 934 LINE",
"397 934 LINE",
"549 1462 LINE"
);
}
);
width = 522;
}
);
unicode = 0027;
},
{
glyphname = semicolon;
lastChange = "2013-03-10 16:55:05 +0200";
layers = (
{
layerId = UUID0;
name = "Bold Italic";
paths = (
{
closed = 1;
nodes = (
"377 238 LINE",
"92 238 LINE",
"12 15 OFFCURVE",
"-53 -153 OFFCURVE",
"-102 -264 CURVE",
"123 -264 LINE",
"219 -115 OFFCURVE",
"306 45 OFFCURVE",
"385 215 CURVE"
);
},
{
closed = 1;
nodes = (
"207 849 OFFCURVE",
"266 799 OFFCURVE",
"362 799 CURVE SMOOTH",
"422 799 OFFCURVE",
"470 817 OFFCURVE",
"506 853 CURVE SMOOTH",
"543 889 OFFCURVE",
"561 936 OFFCURVE",
"561 993 CURVE SMOOTH",
"561 1085 OFFCURVE",
"503 1139 OFFCURVE",
"412 1139 CURVE SMOOTH",
"287 1139 OFFCURVE",
"207 1063 OFFCURVE",
"207 940 CURVE SMOOTH"
);
}
);
width = 584;
}
);
unicode = 003B;
},
{
glyphname = slash;
lastChange = "2013-03-10 16:55:05 +0200";
layers = (
{
layerId = UUID0;
name = "Bold Italic";
paths = (
{
closed = 1;
nodes = (
"719 1462 LINE",
"-90 0 LINE",
"205 0 LINE",
"1014 1462 LINE"
);
}
);
width = 862;
}
);
unicode = 002F;
},
{
glyphname = underscore;
lastChange = "2013-03-10 16:55:05 +0200";
layers = (
{
layerId = UUID0;
name = "Bold Italic";
paths = (
{
closed = 1;
nodes = (
"666 -184 LINE",
"-156 -184 LINE",
"-186 -324 LINE",
"635 -324 LINE"
);
}
);
width = 819;
}
);
unicode = 005F;
},
{
glyphname = braceleft;
lastChange = "2013-03-10 16:55:05 +0200";
layers = (
{
layerId = UUID0;
name = "Bold Italic";
paths = (
{
closed = 1;
nodes = (
"201 308 OFFCURVE",
"196 279 OFFCURVE",
"186 233 CURVE SMOOTH",
"147 49 LINE SMOOTH",
"138 4 OFFCURVE",
"133 -38 OFFCURVE",
"133 -76 CURVE SMOOTH",
"133 -237 OFFCURVE",
"250 -324 OFFCURVE",
"473 -324 CURVE SMOOTH",
"526 -324 LINE",
"526 -98 LINE",
"449 -98 OFFCURVE",
"401 -76 OFFCURVE",
"401 -4 CURVE SMOOTH",
"401 11 OFFCURVE",
"403 28 OFFCURVE",
"408 47 CURVE",
"444 225 LINE SMOOTH",
"454 271 OFFCURVE",
"459 309 OFFCURVE",
"459 338 CURVE SMOOTH",
"459 442 OFFCURVE",
"404 520 OFFCURVE",
"291 555 CURVE",
"291 563 LINE",
"445 582 OFFCURVE",
"537 661 OFFCURVE",
"567 799 CURVE SMOOTH",
"633 1096 LINE",
"653 1195 OFFCURVE",
"699 1234 OFFCURVE",
"819 1237 CURVE",
"868 1462 LINE",
"784 1462 LINE SMOOTH",
"666 1462 OFFCURVE",
"576 1439 OFFCURVE",
"514 1392 CURVE SMOOTH",
"452 1346 OFFCURVE",
"408 1266 OFFCURVE",
"383 1153 CURVE SMOOTH",
"322 868 LINE",
"293 739 OFFCURVE",
"200 688 OFFCURVE",
"37 688 CURVE",
"-8 459 LINE",
"131 459 OFFCURVE",
"201 412 OFFCURVE",
"201 319 CURVE SMOOTH"
);
}
);
width = 727;
}
);
unicode = 007B;
},
{
glyphname = braceright;
lastChange = "2013-03-10 16:55:05 +0200";
layers = (
{
layerId = UUID0;
name = "Bold Italic";
paths = (
{
closed = 1;
nodes = (
"223 1462 LINE",
"182 1237 LINE",
"279 1237 OFFCURVE",
"328 1215 OFFCURVE",
"328 1143 CURVE SMOOTH",
"328 1129 OFFCURVE",
"326 1112 OFFCURVE",
"322 1092 CURVE SMOOTH",
"285 913 LINE SMOOTH",
"275 867 OFFCURVE",
"270 830 OFFCURVE",
"270 801 CURVE SMOOTH",
"270 690 OFFCURVE",
"326 618 OFFCURVE",
"438 584 CURVE",
"438 575 LINE",
"290 556 OFFCURVE",
"195 488 OFFCURVE",
"162 340 CURVE SMOOTH",
"96 43 LINE",
"76 -54 OFFCURVE",
"24 -94 OFFCURVE",
"-100 -98 CURVE",
"-100 -324 LINE",
"-55 -324 LINE SMOOTH",
"63 -324 OFFCURVE",
"153 -301 OFFCURVE",
"215 -254 CURVE SMOOTH",
"278 -207 OFFCURVE",
"321 -127 OFFCURVE",
"346 -14 CURVE SMOOTH",
"408 270 LINE SMOOTH",
"436 399 OFFCURVE",
"529 451 OFFCURVE",
"692 451 CURVE",
"737 680 LINE",
"598 680 OFFCURVE",
"528 726 OFFCURVE",
"528 819 CURVE SMOOTH",
"528 830 OFFCURVE",
"533 859 OFFCURVE",
"543 905 CURVE SMOOTH",
"582 1090 LINE SMOOTH",
"591 1135 OFFCURVE",
"596 1177 OFFCURVE",
"596 1214 CURVE SMOOTH",
"596 1379 OFFCURVE",
"483 1462 OFFCURVE",
"256 1462 CURVE SMOOTH"
);
}
);
width = 727;
}
);
unicode = 007D;
},
{
glyphname = bracketleft;
lastChange = "2013-03-10 16:55:05 +0200";
layers = (
{
layerId = UUID0;
name = "Bold Italic";
paths = (
{
closed = 1;
nodes = (
"481 -113 LINE",
"266 -113 LINE",
"557 1251 LINE",
"772 1251 LINE",
"817 1462 LINE",
"344 1462 LINE",
"-37 -324 LINE",
"436 -324 LINE"
);
}
);
width = 678;
}
);
unicode = 005B;
},
{
glyphname = bracketright;
lastChange = "2013-03-10 16:55:05 +0200";
layers = (
{
layerId = UUID0;
name = "Bold Italic";
paths = (
{
closed = 1;
nodes = (
"-137 -324 LINE",
"334 -324 LINE",
"715 1462 LINE",
"242 1462 LINE",
"197 1251 LINE",
"412 1251 LINE",
"121 -113 LINE",
"-92 -113 LINE"
);
}
);
width = 678;
}
);
unicode = 005D;
},
{
glyphname = parenleft;
lastChange = "2013-03-10 16:55:05 +0200";
layers = (
{
layerId = UUID0;
name = "Bold Italic";
paths = (
{
closed = 1;
nodes = (
"74 55 OFFCURVE",
"124 -147 OFFCURVE",
"223 -324 CURVE",
"457 -324 LINE",
"379 -133 OFFCURVE",
"340 65 OFFCURVE",
"340 270 CURVE SMOOTH",
"340 701 OFFCURVE",
"500 1091 OFFCURVE",
"840 1462 CURVE",
"578 1462 LINE",
"405 1284 OFFCURVE",
"278 1099 OFFCURVE",
"196 907 CURVE SMOOTH",
"115 716 OFFCURVE",
"74 507 OFFCURVE",
"74 281 CURVE SMOOTH"
);
}
);
width = 694;
}
);
unicode = 0028;
},
{
glyphname = parenright;
lastChange = "2013-03-10 16:55:05 +0200";
layers = (
{
layerId = UUID0;
name = "Bold Italic";
paths = (
{
closed = 1;
nodes = (
"618 1085 OFFCURVE",
"568 1286 OFFCURVE",
"469 1462 CURVE",
"236 1462 LINE",
"313 1271 OFFCURVE",
"352 1073 OFFCURVE",
"352 868 CURVE SMOOTH",
"352 437 OFFCURVE",
"186 39 OFFCURVE",
"-147 -324 CURVE",
"115 -324 LINE",
"285 -149 OFFCURVE",
"411 35 OFFCURVE",
"494 227 CURVE SMOOTH",
"577 420 OFFCURVE",
"618 630 OFFCURVE",
"618 858 CURVE SMOOTH"
);
}
);
width = 694;
}
);
unicode = 0029;
},
{
glyphname = emdash;
lastChange = "2013-03-10 16:55:05 +0200";
layers = (
{
layerId = UUID0;
name = "Bold Italic";
paths = (
{
closed = 1;
nodes = (
"1876 436 LINE",
"1925 666 LINE",
"90 666 LINE",
"41 436 LINE"
);
}
);
width = 1966;
}
);
unicode = 2014;
},
{
glyphname = endash;
lastChange = "2013-03-10 16:55:05 +0200";
layers = (
{
layerId = UUID0;
name = "Bold Italic";
paths = (
{
closed = 1;
nodes = (
"893 436 LINE",
"942 666 LINE",
"90 666 LINE",
"41 436 LINE"
);
}
);
width = 983;
}
);
unicode = 2013;
},
{
glyphname = hyphen;
lastChange = "2013-03-10 16:55:05 +0200";
layers = (
{
layerId = UUID0;
name = "Bold Italic";
paths = (
{
closed = 1;
nodes = (
"565 424 LINE",
"618 674 LINE",
"94 674 LINE",
"41 424 LINE"
);
}
);
width = 659;
}
);
unicode = 002D;
},
{
glyphname = guillemotleft;
lastChange = "2013-03-10 16:55:05 +0200";
layers = (
{
layerId = UUID0;
name = "Bold Italic";
paths = (
{
closed = 1;
nodes = (
"72 551 LINE",
"274 90 LINE",
"520 193 LINE",
"385 543 LINE",
"664 877 LINE",
"473 1032 LINE",
"72 569 LINE"
);
},
{
closed = 1;
nodes = (
"559 551 LINE",
"762 90 LINE",
"1008 193 LINE",
"872 543 LINE",
"1151 877 LINE",
"961 1032 LINE",
"559 569 LINE"
);
}
);
width = 1151;
}
);
unicode = 00AB;
},
{
glyphname = guillemotright;
lastChange = "2013-03-10 16:55:05 +0200";
layers = (
{
layerId = UUID0;
name = "Bold Italic";
paths = (
{
closed = 1;
nodes = (
"1079 553 LINE",
"877 1014 LINE",
"631 911 LINE",
"766 561 LINE",
"487 227 LINE",
"678 72 LINE",
"1079 535 LINE"
);
},
{
closed = 1;
nodes = (
"592 553 LINE",
"389 1014 LINE",
"143 911 LINE",
"279 561 LINE",
"0 227 LINE",
"190 72 LINE",
"592 535 LINE"
);
}
);
width = 1151;
}
);
unicode = 00BB;
},
{
glyphname = guilsinglleft;
lastChange = "2013-03-10 16:55:05 +0200";
layers = (
{
layerId = UUID0;
name = "Bold Italic";
paths = (
{
closed = 1;
nodes = (
"72 551 LINE",
"274 90 LINE",
"520 193 LINE",
"385 543 LINE",
"664 877 LINE",
"473 1032 LINE",
"72 569 LINE"
);
}
);
width = 664;
}
);
unicode = 2039;
},
{
glyphname = guilsinglright;
lastChange = "2013-03-10 16:55:05 +0200";
layers = (
{
layerId = UUID0;
name = "Bold Italic";
paths = (
{
closed = 1;
nodes = (
"592 553 LINE",
"389 1014 LINE",
"143 911 LINE",
"279 561 LINE",
"0 227 LINE",
"190 72 LINE",
"592 535 LINE"
);
}
);
width = 664;
}
);
unicode = 203A;
},
{
glyphname = quotedblbase;
lastChange = "2013-03-10 16:55:05 +0200";
layers = (
{
layerId = UUID0;
name = "Bold Italic";
paths = (
{
closed = 1;
nodes = (
"92 238 LINE",
"21 41 OFFCURVE",
"-43 -126 OFFCURVE",
"-102 -264 CURVE",
"123 -264 LINE",
"229 -96 OFFCURVE",
"316 64 OFFCURVE",
"385 215 CURVE",
"377 238 LINE"
);
},
{
closed = 1;
nodes = (
"541 238 LINE",
"460 23 OFFCURVE",
"412 -104 OFFCURVE",
"395 -145 CURVE SMOOTH",
"346 -264 LINE",
"571 -264 LINE",
"680 -92 OFFCURVE",
"767 68 OFFCURVE",
"834 215 CURVE",
"825 238 LINE"
);
}
);
width = 1018;
}
);
unicode = 201E;
},
{
glyphname = quotedblleft;
lastChange = "2013-03-10 16:55:05 +0200";
layers = (
{
layerId = UUID0;
name = "Bold Italic";
paths = (
{
closed = 1;
nodes = (
"854 961 LINE",
"919 1144 OFFCURVE",
"984 1311 OFFCURVE",
"1049 1462 CURVE",
"823 1462 LINE",
"717 1294 OFFCURVE",
"630 1134 OFFCURVE",
"561 983 CURVE",
"569 961 LINE"
);
},
{
closed = 1;
nodes = (
"408 961 LINE",
"477 1153 OFFCURVE",
"541 1320 OFFCURVE",
"602 1462 CURVE",
"377 1462 LINE",
"271 1294 OFFCURVE",
"184 1134 OFFCURVE",
"115 983 CURVE",
"123 961 LINE"
);
}
);
width = 887;
}
);
unicode = 201C;
},
{
glyphname = quotedblright;
lastChange = "2013-03-10 16:55:05 +0200";
layers = (
{
layerId = UUID0;
name = "Bold Italic";
paths = (
{
closed = 1;
nodes = (
"301 1462 LINE",
"230 1265 OFFCURVE",
"165 1098 OFFCURVE",
"106 961 CURVE",
"332 961 LINE",
"438 1129 OFFCURVE",
"525 1289 OFFCURVE",
"594 1440 CURVE",
"586 1462 LINE"
);
},
{
closed = 1;
nodes = (
"748 1462 LINE",
"665 1241 OFFCURVE",
"615 1111 OFFCURVE",
"599 1072 CURVE SMOOTH",
"584 1033 OFFCURVE",
"568 996 OFFCURVE",
"553 961 CURVE",
"778 961 LINE",
"884 1129 OFFCURVE",
"971 1289 OFFCURVE",
"1040 1440 CURVE",
"1032 1462 LINE"
);
}
);
width = 887;
}
);
unicode = 201D;
},
{
glyphname = quoteleft;
lastChange = "2013-03-10 16:55:05 +0200";
layers = (
{
layerId = UUID0;
name = "Bold Italic";
paths = (
{
closed = 1;
nodes = (
"408 961 LINE",
"477 1153 OFFCURVE",
"541 1320 OFFCURVE",
"602 1462 CURVE",
"377 1462 LINE",
"271 1294 OFFCURVE",
"184 1134 OFFCURVE",
"115 983 CURVE",
"123 961 LINE"
);
}
);
width = 440;
}
);
unicode = 2018;
},
{
glyphname = quoteright;
lastChange = "2013-03-10 16:55:05 +0200";
layers = (
{
layerId = UUID0;
name = "Bold Italic";
paths = (
{
closed = 1;
nodes = (
"301 1462 LINE",
"230 1265 OFFCURVE",
"165 1098 OFFCURVE",
"106 961 CURVE",
"332 961 LINE",
"438 1129 OFFCURVE",
"525 1289 OFFCURVE",
"594 1440 CURVE",
"586 1462 LINE"
);
}
);
width = 440;
}
);
unicode = 2019;
},
{
glyphname = quotesinglbase;
lastChange = "2013-03-10 16:55:05 +0200";
layers = (
{
layerId = UUID0;
name = "Bold Italic";
paths = (
{
closed = 1;
nodes = (
"92 238 LINE",
"21 41 OFFCURVE",
"-43 -126 OFFCURVE",
"-102 -264 CURVE",
"123 -264 LINE",
"229 -96 OFFCURVE",
"316 64 OFFCURVE",
"385 215 CURVE",
"377 238 LINE"
);
}
);
width = 569;
}
);
unicode = 201A;
},
{
glyphname = "geresh-hb";
lastChange = "2013-03-12 15:18:13 +0200";
layers = (
{
layerId = UUID0;
name = "Bold Italic";
paths = (
{
closed = 1;
nodes = (
"279 1290 LINE",
"208 1093 OFFCURVE",
"143 926 OFFCURVE",
"84 789 CURVE",
"310 789 LINE",
"416 957 OFFCURVE",
"503 1117 OFFCURVE",
"572 1268 CURVE",
"564 1290 LINE"
);
}
);
width = 444;
}
);
unicode = 05F3;
},
{
glyphname = "gershayim-hb";
lastChange = "2013-03-12 15:17:05 +0200";
layers = (
{
layerId = UUID0;
name = "Bold Italic";
paths = (
{
closed = 1;
nodes = (
"301 1290 LINE",
"230 1093 OFFCURVE",
"165 926 OFFCURVE",
"106 789 CURVE",
"332 789 LINE",
"438 957 OFFCURVE",
"525 1117 OFFCURVE",
"594 1268 CURVE",
"586 1290 LINE"
);
},
{
closed = 1;
nodes = (
"748 1290 LINE",
"665 1069 OFFCURVE",
"615 939 OFFCURVE",
"599 900 CURVE SMOOTH",
"584 861 OFFCURVE",
"568 824 OFFCURVE",
"553 789 CURVE",
"778 789 LINE",
"884 957 OFFCURVE",
"971 1117 OFFCURVE",
"1040 1268 CURVE",
"1032 1290 LINE"
);
}
);
width = 911;
}
);
unicode = 05F4;
},
{
glyphname = "maqaf-hb";
lastChange = "2013-03-10 17:04:49 +0200";
layers = (
{
layerId = UUID0;
name = "Bold Italic";
paths = (
{
closed = 1;
nodes = (
"88 1290 LINE",
"34 1040 LINE",
"571 1040 LINE",
"625 1290 LINE"
);
}
);
width = 659;
}
);
unicode = 05BE;
},
{
glyphname = .notdef;
lastChange = "2013-03-10 16:55:05 +0200";
layers = (
{
layerId = UUID0;
name = "Bold Italic";
paths = (
{
closed = 1;
nodes = (
"193 0 LINE",
"1034 0 LINE",
"1034 1462 LINE",
"193 1462 LINE"
);
},
{
closed = 1;
nodes = (
"297 1358 LINE",
"930 1358 LINE",
"930 104 LINE",
"297 104 LINE"
);
}
);
width = 1229;
}
);
},
{
glyphname = florin;
lastChange = "2013-03-10 16:55:05 +0200";
layers = (
{
layerId = UUID0;
name = "Bold Italic";
paths = (
{
closed = 1;
nodes = (
"361 -492 OFFCURVE",
"496 -368 OFFCURVE",
"547 -121 CURVE",
"743 805 LINE",
"963 805 LINE",
"1012 1034 LINE",
"793 1034 LINE",
"805 1096 LINE SMOOTH",
"821 1183 OFFCURVE",
"868 1241 OFFCURVE",
"944 1241 CURVE SMOOTH",
"987 1241 OFFCURVE",
"1031 1231 OFFCURVE",
"1077 1210 CURVE",
"1157 1434 LINE",
"1088 1467 OFFCURVE",
"1009 1483 OFFCURVE",
"922 1483 CURVE SMOOTH",
"687 1483 OFFCURVE",
"565 1371 OFFCURVE",
"510 1118 CURVE SMOOTH",
"492 1034 LINE",
"303 954 LINE",
"274 805 LINE",
"442 805 LINE",
"256 -76 LINE SMOOTH",
"232 -189 OFFCURVE",
"175 -246 OFFCURVE",
"84 -246 CURVE SMOOTH",
"48 -246 OFFCURVE",
"10 -239 OFFCURVE",
"-31 -225 CURVE",
"-31 -467 LINE",
"16 -484 OFFCURVE",
"74 -492 OFFCURVE",
"143 -492 CURVE SMOOTH"
);
}
);
width = 1128;
}
);
unicode = 0192;
},
{
glyphname = Euro;
lastChange = "2013-03-10 16:55:05 +0200";
layers = (
{
layerId = UUID0;
name = "Bold Italic";
paths = (
{
closed = 1;
nodes = (
"930 1237 OFFCURVE",
"960 1232 OFFCURVE",
"989 1222 CURVE SMOOTH",
"1018 1213 OFFCURVE",
"1062 1192 OFFCURVE",
"1120 1159 CURVE",
"1245 1382 LINE",
"1188 1420 OFFCURVE",
"1133 1447 OFFCURVE",
"1080 1462 CURVE SMOOTH",
"1027 1477 OFFCURVE",
"968 1485 OFFCURVE",
"901 1485 CURVE SMOOTH",
"760 1485 OFFCURVE",
"635 1438 OFFCURVE",
"526 1343 CURVE SMOOTH",
"417 1249 OFFCURVE",
"334 1118 OFFCURVE",
"276 950 CURVE",
"141 950 LINE",
"102 774 LINE",
"227 774 LINE",
"218 742 OFFCURVE",
"211 704 OFFCURVE",
"205 659 CURVE",
"78 659 LINE",
"41 481 LINE",
"193 481 LINE",
"193 147 OFFCURVE",
"342 -20 OFFCURVE",
"639 -20 CURVE SMOOTH",
"775 -20 OFFCURVE",
"885 1 OFFCURVE",
"969 43 CURVE",
"969 301 LINE",
"869 259 OFFCURVE",
"775 238 OFFCURVE",
"686 238 CURVE SMOOTH",
"549 238 OFFCURVE",
"494 321 OFFCURVE",
"494 481 CURVE",
"774 481 LINE",
"811 659 LINE",
"512 659 LINE",
"521 713 OFFCURVE",
"530 751 OFFCURVE",
"537 774 CURVE",
"897 774 LINE",
"936 950 LINE",
"588 950 LINE",
"663 1134 OFFCURVE",
"770 1237 OFFCURVE",
"899 1237 CURVE SMOOTH"
);
}
);
width = 1128;
}
);
unicode = 20AC;
},
{
glyphname = cent;
lastChange = "2013-03-10 16:55:05 +0200";
layers = (
{
layerId = UUID0;
name = "Bold Italic";
paths = (
{
closed = 1;
nodes = (
"616 172 LINE",
"725 178 OFFCURVE",
"824 205 OFFCURVE",
"915 252 CURVE",
"915 498 LINE",
"823 451 OFFCURVE",
"741 416 OFFCURVE",
"641 416 CURVE SMOOTH",
"532 416 OFFCURVE",
"469 480 OFFCURVE",
"469 608 CURVE SMOOTH",
"469 737 OFFCURVE",
"497 849 OFFCURVE",
"552 944 CURVE SMOOTH",
"607 1039 OFFCURVE",
"679 1087 OFFCURVE",
"768 1087 CURVE SMOOTH",
"856 1087 OFFCURVE",
"920 1061 OFFCURVE",
"991 1030 CURVE",
"1083 1260 LINE",
"1012 1294 OFFCURVE",
"937 1316 OFFCURVE",
"858 1325 CURVE",
"893 1483 LINE",
"705 1483 LINE",
"672 1325 LINE",
"469 1294 OFFCURVE",
"310 1155 OFFCURVE",
"226 939 CURVE SMOOTH",
"185 831 OFFCURVE",
"164 713 OFFCURVE",
"164 584 CURVE SMOOTH",
"164 373 OFFCURVE",
"257 238 OFFCURVE",
"436 190 CURVE",
"387 -20 LINE",
"575 -20 LINE"
);
}
);
width = 1128;
}
);
unicode = 00A2;
},
{
glyphname = dollar;
lastChange = "2013-03-10 16:55:05 +0200";
layers = (
{
layerId = UUID0;
name = "Bold Italic";
paths = (
{
closed = 1;
nodes = (
"1034 609 OFFCURVE",
"989 694 OFFCURVE",
"904 758 CURVE SMOOTH",
"861 791 OFFCURVE",
"796 824 OFFCURVE",
"709 858 CURVE",
"772 1157 LINE",
"845 1151 OFFCURVE",
"926 1126 OFFCURVE",
"1014 1083 CURVE",
"1120 1315 LINE",
"1034 1360 OFFCURVE",
"936 1390 OFFCURVE",
"825 1405 CURVE",
"858 1556 LINE",
"719 1556 LINE",
"684 1405 LINE",
"535 1395 OFFCURVE",
"419 1354 OFFCURVE",
"334 1283 CURVE SMOOTH",
"249 1212 OFFCURVE",
"207 1119 OFFCURVE",
"207 1004 CURVE SMOOTH",
"207 839 OFFCURVE",
"309 720 OFFCURVE",
"526 639 CURVE",
"455 317 LINE",
"318 324 OFFCURVE",
"183 363 OFFCURVE",
"51 434 CURVE",
"51 168 LINE",
"148 119 OFFCURVE",
"267 90 OFFCURVE",
"406 82 CURVE",
"362 -119 LINE",
"502 -119 LINE",
"541 80 LINE",
"864 103 OFFCURVE",
"1034 251 OFFCURVE",
"1034 496 CURVE SMOOTH"
);
},
{
closed = 1;
nodes = (
"651 584 LINE",
"698 565 OFFCURVE",
"735 526 OFFCURVE",
"735 465 CURVE SMOOTH",
"735 382 OFFCURVE",
"678 334 OFFCURVE",
"594 322 CURVE"
);
},
{
closed = 1;
nodes = (
"582 911 LINE",
"529 932 OFFCURVE",
"502 969 OFFCURVE",
"502 1022 CURVE SMOOTH",
"502 1102 OFFCURVE",
"550 1148 OFFCURVE",
"633 1157 CURVE"
);
}
);
width = 1128;
}
);
unicode = 0024;
},
{
glyphname = sterling;
lastChange = "2013-03-10 16:55:05 +0200";
layers = (
{
layerId = UUID0;
name = "Bold Italic";
paths = (
{
closed = 1;
nodes = (
"616 1485 OFFCURVE",
"452 1344 OFFCURVE",
"397 1081 CURVE",
"348 834 LINE",
"156 834 LINE",
"111 614 LINE",
"303 614 LINE",
"281 510 LINE",
"249 366 OFFCURVE",
"168 278 OFFCURVE",
"37 246 CURVE",
"-12 0 LINE",
"981 0 LINE",
"1036 260 LINE",
"381 260 LINE",
"492 310 OFFCURVE",
"562 400 OFFCURVE",
"590 530 CURVE SMOOTH",
"608 614 LINE",
"907 614 LINE",
"952 834 LINE",
"653 834 LINE",
"700 1063 LINE",
"727 1187 OFFCURVE",
"791 1235 OFFCURVE",
"891 1235 CURVE SMOOTH",
"955 1235 OFFCURVE",
"1034 1212 OFFCURVE",
"1128 1167 CURVE",
"1241 1399 LINE",
"1125 1456 OFFCURVE",
"1002 1485 OFFCURVE",
"872 1485 CURVE SMOOTH"
);
}
);
width = 1128;
}
);
unicode = 00A3;
},
{
glyphname = yen;
lastChange = "2013-03-10 16:55:05 +0200";
layers = (
{
layerId = UUID0;
name = "Bold Italic";
paths = (
{
closed = 1;
nodes = (
"494 1462 LINE",
"197 1462 LINE",
"389 715 LINE",
"193 715 LINE",
"154 537 LINE",
"406 537 LINE",
"377 399 LINE",
"125 399 LINE",
"88 221 LINE",
"340 221 LINE",
"293 0 LINE",
"584 0 LINE",
"631 221 LINE",
"883 221 LINE",
"920 399 LINE",
"668 399 LINE",
"696 537 LINE",
"948 537 LINE",
"987 715 LINE",
"784 715 LINE",
"1290 1462 LINE",
"979 1462 LINE",
"608 872 LINE"
);
}
);
width = 1128;
}
);
unicode = 00A5;
},
{
glyphname = asciitilde;
lastChange = "2013-03-10 16:55:05 +0200";
layers = (
{
layerId = UUID0;
name = "Bold Italic";
paths = (
{
closed = 1;
nodes = (
"370 672 OFFCURVE",
"397 669 OFFCURVE",
"422 663 CURVE SMOOTH",
"447 657 OFFCURVE",
"490 641 OFFCURVE",
"549 616 CURVE SMOOTH",
"614 589 OFFCURVE",
"663 572 OFFCURVE",
"696 564 CURVE SMOOTH",
"729 557 OFFCURVE",
"766 553 OFFCURVE",
"805 553 CURVE SMOOTH",
"907 553 OFFCURVE",
"992 589 OFFCURVE",
"1061 662 CURVE",
"1061 893 LINE",
"980 813 OFFCURVE",
"895 772 OFFCURVE",
"827 772 CURVE SMOOTH",
"763 772 OFFCURVE",
"706 791 OFFCURVE",
"621 827 CURVE SMOOTH",
"564 851 OFFCURVE",
"517 868 OFFCURVE",
"482 877 CURVE SMOOTH",
"447 886 OFFCURVE",
"408 891 OFFCURVE",
"365 891 CURVE SMOOTH",
"262 891 OFFCURVE",
"176 855 OFFCURVE",
"109 782 CURVE",
"109 551 LINE",
"181 624 OFFCURVE",
"270 672 OFFCURVE",
"342 672 CURVE SMOOTH"
);
}
);
width = 1128;
}
);
unicode = 007E;
},
{
glyphname = divide;
lastChange = "2013-03-10 16:55:05 +0200";
layers = (
{
layerId = UUID0;
name = "Bold Italic";
paths = (
{
closed = 1;
nodes = (
"1061 612 LINE",
"1061 831 LINE",
"109 831 LINE",
"109 612 LINE"
);
},
{
closed = 1;
nodes = (
"444 274 OFFCURVE",
"497 221 OFFCURVE",
"584 221 CURVE SMOOTH",
"671 221 OFFCURVE",
"723 280 OFFCURVE",
"723 373 CURVE SMOOTH",
"723 470 OFFCURVE",
"672 524 OFFCURVE",
"584 524 CURVE SMOOTH",
"496 524 OFFCURVE",
"444 474 OFFCURVE",
"444 373 CURVE SMOOTH"
);
},
{
closed = 1;
nodes = (
"444 974 OFFCURVE",
"497 920 OFFCURVE",
"584 920 CURVE SMOOTH",
"671 920 OFFCURVE",
"723 978 OFFCURVE",
"723 1071 CURVE SMOOTH",
"723 1166 OFFCURVE",
"673 1223 OFFCURVE",
"584 1223 CURVE SMOOTH",
"496 1223 OFFCURVE",
"444 1171 OFFCURVE",
"444 1071 CURVE SMOOTH"
);
}
);
width = 1128;
}
);
unicode = 00F7;
},
{
glyphname = equal;
lastChange = "2013-03-10 16:55:05 +0200";
layers = (
{
layerId = UUID0;
name = "Bold Italic";
paths = (
{
closed = 1;
nodes = (
"1061 807 LINE",
"1061 1024 LINE",
"109 1024 LINE",
"109 807 LINE"
);
},
{
closed = 1;
nodes = (
"1061 418 LINE",
"1061 637 LINE",
"109 637 LINE",
"109 418 LINE"
);
}
);
width = 1128;
}
);
unicode = 003D;
},
{
glyphname = greater;
lastChange = "2013-03-10 16:55:05 +0200";
layers = (
{
layerId = UUID0;
name = "Bold Italic";
paths = (
{
closed = 1;
nodes = (
"109 203 LINE",
"1061 641 LINE",
"1061 784 LINE",
"109 1280 LINE",
"109 1040 LINE",
"752 723 LINE",
"109 442 LINE"
);
}
);
width = 1128;
}
);
unicode = 003E;
},
{
glyphname = integral;
lastChange = "2013-03-10 16:55:05 +0200";
layers = (
{
layerId = UUID0;
name = "Bold Italic";
paths = (
{
closed = 1;
nodes = (
"732 1300 OFFCURVE",
"785 1287 OFFCURVE",
"844 1262 CURVE",
"844 1516 LINE",
"787 1543 OFFCURVE",
"722 1556 OFFCURVE",
"649 1556 CURVE SMOOTH",
"400 1556 OFFCURVE",
"268 1425 OFFCURVE",
"268 1178 CURVE SMOOTH",
"268 -94 LINE SMOOTH",
"268 -189 OFFCURVE",
"231 -236 OFFCURVE",
"158 -236 CURVE SMOOTH",
"113 -236 OFFCURVE",
"61 -223 OFFCURVE",
"0 -197 CURVE",
"0 -451 LINE",
"57 -478 OFFCURVE",
"122 -492 OFFCURVE",
"195 -492 CURVE SMOOTH",
"440 -492 OFFCURVE",
"575 -362 OFFCURVE",
"575 -113 CURVE SMOOTH",
"575 1163 LINE SMOOTH",
"575 1250 OFFCURVE",
"618 1300 OFFCURVE",
"686 1300 CURVE SMOOTH"
);
}
);
width = 844;
}
);
unicode = 222B;
},
{
glyphname = less;
lastChange = "2013-03-10 16:55:05 +0200";
layers = (
{
layerId = UUID0;
name = "Bold Italic";
paths = (
{
closed = 1;
nodes = (
"1061 442 LINE",
"418 723 LINE",
"1061 1040 LINE",
"1061 1280 LINE",
"109 784 LINE",
"109 641 LINE",
"1061 203 LINE"
);
}
);
width = 1128;
}
);
unicode = 003C;
},
{
glyphname = logicalnot;
lastChange = "2013-03-10 16:55:05 +0200";
layers = (
{
layerId = UUID0;
name = "Bold Italic";
paths = (
{
closed = 1;
nodes = (
"1061 831 LINE",
"109 831 LINE",
"109 612 LINE",
"842 612 LINE",
"842 248 LINE",
"1061 248 LINE"
);
}
);
width = 1128;
}
);
unicode = 00AC;
},
{
glyphname = notequal;
lastChange = "2013-03-10 16:55:05 +0200";
layers = (
{
layerId = UUID0;
name = "Bold Italic";
paths = (
{
closed = 1;
nodes = (
"1061 418 LINE",
"1061 637 LINE",
"664 637 LINE",
"743 807 LINE",
"1061 807 LINE",
"1061 1024 LINE",
"844 1024 LINE",
"936 1219 LINE",
"735 1305 LINE",
"604 1024 LINE",
"109 1024 LINE",
"109 807 LINE",
"504 807 LINE",
"424 637 LINE",
"109 637 LINE",
"109 418 LINE",
"322 418 LINE",
"233 227 LINE",
"434 143 LINE",
"561 418 LINE"
);
}
);
width = 1128;
}
);
unicode = 2260;
},
{
glyphname = percent;
lastChange = "2013-03-10 16:55:05 +0200";
layers = (
{
layerId = UUID0;
name = "Bold Italic";
paths = (
{
closed = 1;
nodes = (
"556 1274 OFFCURVE",
"575 1242 OFFCURVE",
"575 1178 CURVE SMOOTH",
"575 1082 OFFCURVE",
"559 990 OFFCURVE",
"528 903 CURVE SMOOTH",
"497 816 OFFCURVE",
"459 772 OFFCURVE",
"416 772 CURVE SMOOTH",
"379 772 OFFCURVE",
"360 804 OFFCURVE",
"360 868 CURVE SMOOTH",
"360 967 OFFCURVE",
"376 1060 OFFCURVE",
"407 1145 CURVE SMOOTH",
"439 1231 OFFCURVE",
"476 1274 OFFCURVE",
"518 1274 CURVE SMOOTH"
);
},
{
closed = 1;
nodes = (
"821 1376 OFFCURVE",
"718 1483 OFFCURVE",
"535 1483 CURVE SMOOTH",
"371 1483 OFFCURVE",
"245 1387 OFFCURVE",
"170 1196 CURVE SMOOTH",
"133 1101 OFFCURVE",
"115 998 OFFCURVE",
"115 885 CURVE SMOOTH",
"115 681 OFFCURVE",
"212 565 OFFCURVE",
"397 565 CURVE SMOOTH",
"560 565 OFFCURVE",
"690 663 OFFCURVE",
"765 855 CURVE SMOOTH",
"802 951 OFFCURVE",
"821 1054 OFFCURVE",
"821 1165 CURVE SMOOTH"
);
},
{
closed = 1;
nodes = (
"1319 1462 LINE",
"231 0 LINE",
"471 0 LINE",
"1554 1462 LINE"
);
},
{
closed = 1;
nodes = (
"1415 690 OFFCURVE",
"1434 658 OFFCURVE",
"1434 594 CURVE SMOOTH",
"1434 529 OFFCURVE",
"1426 464 OFFCURVE",
"1410 397 CURVE SMOOTH",
"1395 331 OFFCURVE",
"1375 280 OFFCURVE",
"1351 243 CURVE SMOOTH",
"1327 206 OFFCURVE",
"1301 188 OFFCURVE",
"1274 188 CURVE SMOOTH",
"1237 188 OFFCURVE",
"1219 220 OFFCURVE",
"1219 285 CURVE SMOOTH",
"1219 350 OFFCURVE",
"1227 415 OFFCURVE",
"1242 480 CURVE SMOOTH",
"1257 545 OFFCURVE",
"1277 597 OFFCURVE",
"1301 634 CURVE SMOOTH",
"1325 671 OFFCURVE",
"1350 690 OFFCURVE",
"1376 690 CURVE SMOOTH"
);
},
{
closed = 1;
nodes = (
"1679 793 OFFCURVE",
"1576 899 OFFCURVE",
"1393 899 CURVE SMOOTH",
"1228 899 OFFCURVE",
"1097 800 OFFCURVE",
"1026 605 CURVE SMOOTH",
"991 508 OFFCURVE",
"973 401 OFFCURVE",
"973 283 CURVE SMOOTH",
"973 91 OFFCURVE",
"1070 -18 OFFCURVE",
"1262 -18 CURVE SMOOTH",
"1423 -18 OFFCURVE",
"1553 81 OFFCURVE",
"1625 276 CURVE SMOOTH",
"1661 374 OFFCURVE",
"1679 479 OFFCURVE",
"1679 590 CURVE SMOOTH"
);
}
);
width = 1753;
}
);
unicode = 0025;
},
{
glyphname = perthousand;
lastChange = "2013-03-10 16:55:05 +0200";
layers = (
{
layerId = UUID0;
name = "Bold Italic";
paths = (
{
closed = 1;
nodes = (
"556 1274 OFFCURVE",
"575 1242 OFFCURVE",
"575 1178 CURVE SMOOTH",
"575 1082 OFFCURVE",
"559 990 OFFCURVE",
"528 903 CURVE SMOOTH",
"497 816 OFFCURVE",
"459 772 OFFCURVE",
"416 772 CURVE SMOOTH",
"379 772 OFFCURVE",
"360 804 OFFCURVE",
"360 868 CURVE SMOOTH",
"360 967 OFFCURVE",
"376 1060 OFFCURVE",
"407 1145 CURVE SMOOTH",
"439 1231 OFFCURVE",
"476 1274 OFFCURVE",
"518 1274 CURVE SMOOTH"
);
},
{
closed = 1;
nodes = (
"821 1376 OFFCURVE",
"718 1483 OFFCURVE",
"535 1483 CURVE SMOOTH",
"371 1483 OFFCURVE",
"245 1387 OFFCURVE",
"170 1196 CURVE SMOOTH",
"133 1101 OFFCURVE",
"115 998 OFFCURVE",
"115 885 CURVE SMOOTH",
"115 681 OFFCURVE",
"212 565 OFFCURVE",
"397 565 CURVE SMOOTH",
"560 565 OFFCURVE",
"690 663 OFFCURVE",
"765 855 CURVE SMOOTH",
"802 951 OFFCURVE",
"821 1054 OFFCURVE",
"821 1165 CURVE SMOOTH"
);
},
{
closed = 1;
nodes = (
"1319 1462 LINE",
"231 0 LINE",
"471 0 LINE",
"1554 1462 LINE"
);
},
{
closed = 1;
nodes = (
"2156 690 OFFCURVE",
"2175 658 OFFCURVE",
"2175 594 CURVE SMOOTH",
"2175 498 OFFCURVE",
"2159 406 OFFCURVE",
"2128 319 CURVE SMOOTH",
"2097 232 OFFCURVE",
"2059 188 OFFCURVE",
"2015 188 CURVE SMOOTH",
"1978 188 OFFCURVE",
"1960 220 OFFCURVE",
"1960 285 CURVE SMOOTH",
"1960 347 OFFCURVE",
"1968 411 OFFCURVE",
"1983 478 CURVE SMOOTH",
"1998 545 OFFCURVE",
"2018 597 OFFCURVE",
"2042 634 CURVE SMOOTH",
"2067 671 OFFCURVE",
"2092 690 OFFCURVE",
"2118 690 CURVE SMOOTH"
);
},
{
closed = 1;
nodes = (
"2421 793 OFFCURVE",
"2317 899 OFFCURVE",
"2134 899 CURVE SMOOTH",
"1969 899 OFFCURVE",
"1838 798 OFFCURVE",
"1767 605 CURVE SMOOTH",
"1732 509 OFFCURVE",
"1714 402 OFFCURVE",
"1714 283 CURVE SMOOTH",
"1714 91 OFFCURVE",
"1811 -18 OFFCURVE",
"2003 -18 CURVE SMOOTH",
"2163 -18 OFFCURVE",
"2292 80 OFFCURVE",
"2365 276 CURVE SMOOTH",
"2402 374 OFFCURVE",
"2421 479 OFFCURVE",
"2421 590 CURVE SMOOTH"
);
},
{
closed = 1;
nodes = (
"1415 690 OFFCURVE",
"1434 658 OFFCURVE",
"1434 594 CURVE SMOOTH",
"1434 529 OFFCURVE",
"1426 464 OFFCURVE",
"1410 397 CURVE SMOOTH",
"1395 331 OFFCURVE",
"1375 280 OFFCURVE",
"1351 243 CURVE SMOOTH",
"1327 206 OFFCURVE",
"1301 188 OFFCURVE",
"1274 188 CURVE SMOOTH",
"1237 188 OFFCURVE",
"1219 220 OFFCURVE",
"1219 285 CURVE SMOOTH",
"1219 350 OFFCURVE",
"1227 415 OFFCURVE",
"1242 480 CURVE SMOOTH",
"1257 545 OFFCURVE",
"1277 597 OFFCURVE",
"1301 634 CURVE SMOOTH",
"1325 671 OFFCURVE",
"1350 690 OFFCURVE",
"1376 690 CURVE SMOOTH"
);
},
{
closed = 1;
nodes = (
"1679 793 OFFCURVE",
"1576 899 OFFCURVE",
"1393 899 CURVE SMOOTH",
"1228 899 OFFCURVE",
"1097 800 OFFCURVE",
"1026 605 CURVE SMOOTH",
"991 508 OFFCURVE",
"973 401 OFFCURVE",
"973 283 CURVE SMOOTH",
"973 91 OFFCURVE",
"1070 -18 OFFCURVE",
"1262 -18 CURVE SMOOTH",
"1423 -18 OFFCURVE",
"1553 81 OFFCURVE",
"1625 276 CURVE SMOOTH",
"1661 374 OFFCURVE",
"1679 479 OFFCURVE",
"1679 590 CURVE SMOOTH"
);
}
);
width = 2494;
}
);
unicode = 2030;
},
{
glyphname = plus;
lastChange = "2013-03-10 16:55:05 +0200";
layers = (
{
layerId = UUID0;
name = "Bold Italic";
paths = (
{
closed = 1;
nodes = (
"475 248 LINE",
"694 248 LINE",
"694 612 LINE",
"1061 612 LINE",
"1061 831 LINE",
"694 831 LINE",
"694 1200 LINE",
"475 1200 LINE",
"475 831 LINE",
"109 831 LINE",
"109 612 LINE",
"475 612 LINE"
);
}
);
width = 1128;
}
);
unicode = 002B;
},
{
glyphname = plusminus;
lastChange = "2013-03-10 16:55:05 +0200";
layers = (
{
layerId = UUID0;
name = "Bold Italic";
paths = (
{
closed = 1;
nodes = (
"475 309 LINE",
"694 309 LINE",
"694 674 LINE",
"1061 674 LINE",
"1061 893 LINE",
"694 893 LINE",
"694 1262 LINE",
"475 1262 LINE",
"475 893 LINE",
"109 893 LINE",
"109 674 LINE",
"475 674 LINE"
);
},
{
closed = 1;
nodes = (
"1061 0 LINE",
"1061 219 LINE",
"109 219 LINE",
"109 0 LINE"
);
}
);
width = 1128;
}
);
unicode = 00B1;
},
{
glyphname = lozenge;
lastChange = "2013-03-10 16:55:05 +0200";
layers = (
{
layerId = UUID0;
name = "Bold Italic";
paths = (
{
closed = 1;
nodes = (
"678 1473 LINE",
"563 1473 LINE",
"113 735 LINE",
"563 0 LINE",
"678 0 LINE",
"1128 735 LINE"
);
},
{
closed = 1;
nodes = (
"621 326 LINE",
"377 735 LINE",
"621 1145 LINE",
"864 735 LINE"
);
}
);
width = 1194;
}
);
unicode = 25CA;
},
{
glyphname = ampersand;
lastChange = "2013-03-10 16:55:05 +0200";
layers = (
{
layerId = UUID0;
name = "Bold Italic";
paths = (
{
closed = 1;
nodes = (
"1120 287 LINE",
"1238 410 OFFCURVE",
"1341 575 OFFCURVE",
"1430 784 CURVE",
"1130 784 LINE",
"1102 711 OFFCURVE",
"1076 653 OFFCURVE",
"1051 610 CURVE SMOOTH",
"1027 567 OFFCURVE",
"1000 527 OFFCURVE",
"971 489 CURVE",
"776 752 LINE",
"1019 849 OFFCURVE",
"1141 991 OFFCURVE",
"1141 1178 CURVE SMOOTH",
"1141 1273 OFFCURVE",
"1109 1347 OFFCURVE",
"1044 1402 CURVE SMOOTH",
"979 1457 OFFCURVE",
"891 1485 OFFCURVE",
"778 1485 CURVE SMOOTH",
"645 1485 OFFCURVE",
"540 1447 OFFCURVE",
"461 1372 CURVE SMOOTH",
"383 1297 OFFCURVE",
"344 1195 OFFCURVE",
"344 1065 CURVE SMOOTH",
"344 980 OFFCURVE",
"369 894 OFFCURVE",
"420 807 CURVE",
"290 742 OFFCURVE",
"199 675 OFFCURVE",
"146 606 CURVE SMOOTH",
"94 537 OFFCURVE",
"68 455 OFFCURVE",
"68 358 CURVE SMOOTH",
"68 114 OFFCURVE",
"221 -20 OFFCURVE",
"500 -20 CURVE SMOOTH",
"652 -20 OFFCURVE",
"786 19 OFFCURVE",
"903 98 CURVE",
"975 0 LINE",
"1325 0 LINE"
);
},
{
closed = 1;
nodes = (
"766 295 LINE",
"695 256 OFFCURVE",
"622 236 OFFCURVE",
"545 236 CURVE SMOOTH",
"498 236 OFFCURVE",
"459 250 OFFCURVE",
"428 279 CURVE SMOOTH",
"398 308 OFFCURVE",
"383 344 OFFCURVE",
"383 387 CURVE SMOOTH",
"383 439 OFFCURVE",
"395 483 OFFCURVE",
"418 518 CURVE SMOOTH",
"441 554 OFFCURVE",
"482 589 OFFCURVE",
"541 623 CURVE"
);
},
{
closed = 1;
nodes = (
"639 956 OFFCURVE",
"621 1024 OFFCURVE",
"621 1085 CURVE SMOOTH",
"621 1182 OFFCURVE",
"672 1251 OFFCURVE",
"760 1251 CURVE SMOOTH",
"813 1251 OFFCURVE",
"860 1219 OFFCURVE",
"860 1143 CURVE SMOOTH",
"860 1103 OFFCURVE",
"846 1066 OFFCURVE",
"817 1031 CURVE SMOOTH",
"789 996 OFFCURVE",
"737 959 OFFCURVE",
"662 920 CURVE"
);
}
);
width = 1450;
}
);
unicode = 0026;
},
{
glyphname = asciicircum;
lastChange = "2013-03-10 16:55:05 +0200";
layers = (
{
layerId = UUID0;
name = "Bold Italic";
paths = (
{
closed = 1;
nodes = (
"264 520 LINE",
"666 1153 LINE",
"840 520 LINE",
"1063 520 LINE",
"786 1470 LINE",
"639 1470 LINE",
"20 520 LINE"
);
}
);
width = 1081;
}
);
unicode = 005E;
},
{
glyphname = at;
lastChange = "2013-03-10 16:55:05 +0200";
layers = (
{
layerId = UUID0;
name = "Bold Italic";
paths = (
{
closed = 1;
nodes = (
"1733 1037 OFFCURVE",
"1673 1189 OFFCURVE",
"1552 1298 CURVE SMOOTH",
"1431 1407 OFFCURVE",
"1265 1462 OFFCURVE",
"1053 1462 CURVE SMOOTH",
"870 1462 OFFCURVE",
"704 1421 OFFCURVE",
"555 1338 CURVE SMOOTH",
"407 1256 OFFCURVE",
"293 1142 OFFCURVE",
"212 997 CURVE SMOOTH",
"132 852 OFFCURVE",
"92 686 OFFCURVE",
"92 500 CURVE",
"87 95 OFFCURVE",
"367 -191 OFFCURVE",
"801 -186 CURVE",
"958 -186 OFFCURVE",
"1113 -156 OFFCURVE",
"1266 -96 CURVE",
"1266 90 LINE",
"1187 59 OFFCURVE",
"1113 37 OFFCURVE",
"1044 24 CURVE SMOOTH",
"976 11 OFFCURVE",
"903 4 OFFCURVE",
"825 4 CURVE SMOOTH",
"664 4 OFFCURVE",
"538 50 OFFCURVE",
"449 141 CURVE SMOOTH",
"360 233 OFFCURVE",
"315 360 OFFCURVE",
"315 522 CURVE SMOOTH",
"315 669 OFFCURVE",
"345 799 OFFCURVE",
"406 914 CURVE SMOOTH",
"467 1029 OFFCURVE",
"552 1117 OFFCURVE",
"661 1180 CURVE SMOOTH",
"770 1243 OFFCURVE",
"893 1274 OFFCURVE",
"1028 1274 CURVE SMOOTH",
"1343 1274 OFFCURVE",
"1511 1120 OFFCURVE",
"1511 836 CURVE SMOOTH",
"1511 765 OFFCURVE",
"1499 693 OFFCURVE",
"1476 622 CURVE SMOOTH",
"1453 551 OFFCURVE",
"1423 494 OFFCURVE",
"1384 451 CURVE SMOOTH",
"1345 408 OFFCURVE",
"1304 387 OFFCURVE",
"1260 387 CURVE SMOOTH",
"1221 387 OFFCURVE",
"1202 410 OFFCURVE",
"1202 455 CURVE SMOOTH",
"1202 498 OFFCURVE",
"1214 537 OFFCURVE",
"1229 596 CURVE SMOOTH",
"1335 1016 LINE",
"1240 1053 OFFCURVE",
"1131 1071 OFFCURVE",
"1008 1071 CURVE SMOOTH",
"909 1071 OFFCURVE",
"820 1046 OFFCURVE",
"740 995 CURVE SMOOTH",
"660 945 OFFCURVE",
"597 877 OFFCURVE",
"552 790 CURVE SMOOTH",
"507 704 OFFCURVE",
"485 612 OFFCURVE",
"485 514 CURVE SMOOTH",
"485 314 OFFCURVE",
"585 205 OFFCURVE",
"754 205 CURVE SMOOTH",
"866 205 OFFCURVE",
"947 249 OFFCURVE",
"1014 352 CURVE",
"1020 352 LINE",
"1041 259 OFFCURVE",
"1120 205 OFFCURVE",
"1237 205 CURVE SMOOTH",
"1331 205 OFFCURVE",
"1416 233 OFFCURVE",
"1491 288 CURVE SMOOTH",
"1567 343 OFFCURVE",
"1626 420 OFFCURVE",
"1669 519 CURVE SMOOTH",
"1712 618 OFFCURVE",
"1733 725 OFFCURVE",
"1733 840 CURVE SMOOTH"
);
},
{
closed = 1;
nodes = (
"1026 889 OFFCURVE",
"1053 886 OFFCURVE",
"1077 879 CURVE",
"1020 657 LINE",
"972 477 OFFCURVE",
"901 387 OFFCURVE",
"807 387 CURVE SMOOTH",
"747 387 OFFCURVE",
"713 439 OFFCURVE",
"713 526 CURVE SMOOTH",
"713 585 OFFCURVE",
"725 643 OFFCURVE",
"749 700 CURVE SMOOTH",
"774 757 OFFCURVE",
"807 803 OFFCURVE",
"849 837 CURVE SMOOTH",
"892 872 OFFCURVE",
"940 889 OFFCURVE",
"995 889 CURVE SMOOTH"
);
}
);
width = 1753;
}
);
unicode = 0040;
},
{
glyphname = bar;
lastChange = "2013-03-10 16:55:05 +0200";
layers = (
{
layerId = UUID0;
name = "Bold Italic";
paths = (
{
closed = 1;
nodes = (
"455 -465 LINE",
"674 -465 LINE",
"674 1550 LINE",
"455 1550 LINE"
);
}
);
width = 1128;
}
);
unicode = 007C;
},
{
glyphname = copyright;
lastChange = "2013-03-10 16:55:05 +0200";
layers = (
{
layerId = UUID0;
name = "Bold Italic";
paths = (
{
closed = 1;
nodes = (
"993 1010 OFFCURVE",
"1061 991 OFFCURVE",
"1137 952 CURVE",
"1212 1126 LINE",
"1117 1174 OFFCURVE",
"1023 1198 OFFCURVE",
"928 1198 CURVE SMOOTH",
"789 1198 OFFCURVE",
"681 1156 OFFCURVE",
"602 1072 CURVE SMOOTH",
"524 988 OFFCURVE",
"485 871 OFFCURVE",
"485 721 CURVE SMOOTH",
"485 578 OFFCURVE",
"522 466 OFFCURVE",
"596 384 CURVE SMOOTH",
"670 303 OFFCURVE",
"772 262 OFFCURVE",
"903 262 CURVE SMOOTH",
"990 262 OFFCURVE",
"1078 281 OFFCURVE",
"1165 319 CURVE",
"1165 510 LINE",
"1126 491 OFFCURVE",
"1084 477 OFFCURVE",
"1040 466 CURVE SMOOTH",
"997 456 OFFCURVE",
"961 451 OFFCURVE",
"932 451 CURVE SMOOTH",
"793 451 OFFCURVE",
"717 544 OFFCURVE",
"717 723 CURVE SMOOTH",
"717 911 OFFCURVE",
"784 1010 OFFCURVE",
"932 1010 CURVE SMOOTH"
);
},
{
closed = 1;
nodes = (
"125 599 OFFCURVE",
"157 475 OFFCURVE",
"222 360 CURVE SMOOTH",
"287 245 OFFCURVE",
"378 152 OFFCURVE",
"495 83 CURVE SMOOTH",
"612 14 OFFCURVE",
"739 -20 OFFCURVE",
"877 -20 CURVE SMOOTH",
"1014 -20 OFFCURVE",
"1141 14 OFFCURVE",
"1257 82 CURVE SMOOTH",
"1373 150 OFFCURVE",
"1464 242 OFFCURVE",
"1529 358 CURVE SMOOTH",
"1595 474 OFFCURVE",
"1628 598 OFFCURVE",
"1628 731 CURVE SMOOTH",
"1628 865 OFFCURVE",
"1594 991 OFFCURVE",
"1526 1108 CURVE",
"1459 1226 OFFCURVE",
"1367 1318 OFFCURVE",
"1250 1384 CURVE SMOOTH",
"1134 1450 OFFCURVE",
"1010 1483 OFFCURVE",
"877 1483 CURVE SMOOTH",
"742 1483 OFFCURVE",
"617 1449 OFFCURVE",
"500 1382 CURVE SMOOTH",
"383 1315 OFFCURVE",
"292 1223 OFFCURVE",
"225 1106 CURVE SMOOTH",
"158 989 OFFCURVE",
"125 864 OFFCURVE",
"125 731 CURVE SMOOTH"
);
},
{
closed = 1;
nodes = (
"266 840 OFFCURVE",
"293 941 OFFCURVE",
"347 1035 CURVE SMOOTH",
"401 1129 OFFCURVE",
"475 1203 OFFCURVE",
"570 1258 CURVE SMOOTH",
"665 1313 OFFCURVE",
"768 1341 OFFCURVE",
"877 1341 CURVE SMOOTH",
"988 1341 OFFCURVE",
"1090 1313 OFFCURVE",
"1184 1258 CURVE SMOOTH",
"1279 1203 OFFCURVE",
"1353 1128 OFFCURVE",
"1406 1034 CURVE",
"1460 941 OFFCURVE",
"1487 840 OFFCURVE",
"1487 731 CURVE SMOOTH",
"1487 622 OFFCURVE",
"1460 521 OFFCURVE",
"1406 427 CURVE SMOOTH",
"1353 334 OFFCURVE",
"1279 259 OFFCURVE",
"1185 204 CURVE SMOOTH",
"1091 149 OFFCURVE",
"988 121 OFFCURVE",
"877 121 CURVE SMOOTH",
"768 121 OFFCURVE",
"666 148 OFFCURVE",
"571 203 CURVE SMOOTH",
"476 258 OFFCURVE",
"402 332 OFFCURVE",
"347 426 CURVE SMOOTH",
"293 520 OFFCURVE",
"266 622 OFFCURVE",
"266 731 CURVE SMOOTH"
);
}
);
width = 1704;
}
);
unicode = 00A9;
},
{
glyphname = dagger;
lastChange = "2013-03-10 16:55:05 +0200";
layers = (
{
layerId = UUID0;
name = "Bold Italic";
paths = (
{
closed = 1;
nodes = (
"1036 1169 LINE",
"713 1141 LINE",
"854 1556 LINE",
"571 1556 LINE",
"537 1141 LINE",
"242 1169 LINE",
"190 928 LINE",
"496 956 LINE",
"240 0 LINE",
"522 0 LINE",
"674 958 LINE",
"985 928 LINE"
);
}
);
width = 1036;
}
);
unicode = 2020;
},
{
glyphname = daggerdbl;
lastChange = "2013-03-10 16:55:05 +0200";
layers = (
{
layerId = UUID0;
name = "Bold Italic";
paths = (
{
closed = 1;
nodes = (
"694 786 LINE",
"694 997 LINE",
"1006 969 LINE",
"1057 1210 LINE",
"733 1182 LINE",
"866 1556 LINE",
"582 1556 LINE",
"555 1182 LINE",
"244 1210 LINE",
"193 969 LINE",
"516 997 LINE",
"426 786 LINE",
"422 559 LINE",
"111 588 LINE",
"59 346 LINE",
"383 375 LINE",
"250 0 LINE",
"535 0 LINE",
"561 375 LINE",
"872 346 LINE",
"924 588 LINE",
"600 559 LINE"
);
}
);
width = 1057;
}
);
unicode = 2021;
},
{
glyphname = degree;
lastChange = "2013-03-10 16:55:05 +0200";
layers = (
{
layerId = UUID0;
name = "Bold Italic";
paths = (
{
closed = 1;
nodes = (
"159 949 OFFCURVE",
"325 788 OFFCURVE",
"510 793 CURVE",
"697 788 OFFCURVE",
"861 951 OFFCURVE",
"856 1137 CURVE",
"861 1320 OFFCURVE",
"696 1488 OFFCURVE",
"510 1483 CURVE",
"328 1488 OFFCURVE",
"158 1323 OFFCURVE",
"164 1137 CURVE"
);
},
{
closed = 1;
nodes = (
"354 1178 OFFCURVE",
"369 1215 OFFCURVE",
"399 1246 CURVE SMOOTH",
"430 1278 OFFCURVE",
"467 1294 OFFCURVE",
"510 1294 CURVE SMOOTH",
"553 1294 OFFCURVE",
"590 1278 OFFCURVE",
"620 1247 CURVE SMOOTH",
"651 1216 OFFCURVE",
"666 1179 OFFCURVE",
"666 1137 CURVE SMOOTH",
"666 1096 OFFCURVE",
"651 1060 OFFCURVE",
"621 1029 CURVE SMOOTH",
"591 998 OFFCURVE",
"554 983 OFFCURVE",
"510 983 CURVE SMOOTH",
"467 983 OFFCURVE",
"430 998 OFFCURVE",
"399 1028 CURVE",
"369 1059 OFFCURVE",
"354 1095 OFFCURVE",
"354 1137 CURVE SMOOTH"
);
}
);
width = 877;
}
);
unicode = 00B0;
},
{
glyphname = paragraph;
lastChange = "2013-03-10 16:55:05 +0200";
layers = (
{
layerId = UUID0;
name = "Bold Italic";
paths = (
{
closed = 1;
nodes = (
"1202 1556 LINE",
"598 1556 LINE SMOOTH",
"283 1556 OFFCURVE",
"147 1383 OFFCURVE",
"147 1042 CURVE SMOOTH",
"147 707 OFFCURVE",
"279 541 OFFCURVE",
"567 541 CURVE SMOOTH",
"623 541 OFFCURVE",
"672 547 OFFCURVE",
"713 559 CURVE",
"713 -260 LINE",
"874 -260 LINE",
"874 1356 LINE",
"1040 1356 LINE",
"1040 -260 LINE",
"1202 -260 LINE"
);
}
);
width = 1341;
}
);
unicode = 00B6;
},
{
glyphname = registered;
lastChange = "2013-03-10 16:55:05 +0200";
layers = (
{
layerId = UUID0;
name = "Bold Italic";
paths = (
{
closed = 1;
nodes = (
"1237 1076 OFFCURVE",
"1110 1167 OFFCURVE",
"879 1167 CURVE SMOOTH",
"571 1167 LINE",
"571 293 LINE",
"801 293 LINE",
"801 590 LINE",
"868 590 LINE",
"1006 293 LINE",
"1260 293 LINE",
"1063 653 LINE",
"1178 697 OFFCURVE",
"1237 784 OFFCURVE",
"1237 899 CURVE SMOOTH"
);
},
{
closed = 1;
nodes = (
"801 999 LINE",
"854 999 LINE SMOOTH",
"962 999 OFFCURVE",
"1006 960 OFFCURVE",
"1006 881 CURVE SMOOTH",
"1006 800 OFFCURVE",
"948 758 OFFCURVE",
"852 758 CURVE SMOOTH",
"801 758 LINE"
);
},
{
closed = 1;
nodes = (
"125 599 OFFCURVE",
"157 475 OFFCURVE",
"222 360 CURVE SMOOTH",
"287 245 OFFCURVE",
"378 152 OFFCURVE",
"495 83 CURVE SMOOTH",
"612 14 OFFCURVE",
"739 -20 OFFCURVE",
"877 -20 CURVE SMOOTH",
"1014 -20 OFFCURVE",
"1141 14 OFFCURVE",
"1257 82 CURVE SMOOTH",
"1373 150 OFFCURVE",
"1464 242 OFFCURVE",
"1529 358 CURVE SMOOTH",
"1595 474 OFFCURVE",
"1628 598 OFFCURVE",
"1628 731 CURVE SMOOTH",
"1628 865 OFFCURVE",
"1594 991 OFFCURVE",
"1526 1108 CURVE",
"1459 1226 OFFCURVE",
"1367 1318 OFFCURVE",
"1250 1384 CURVE SMOOTH",
"1134 1450 OFFCURVE",
"1010 1483 OFFCURVE",
"877 1483 CURVE SMOOTH",
"742 1483 OFFCURVE",
"617 1449 OFFCURVE",
"500 1382 CURVE SMOOTH",
"383 1315 OFFCURVE",
"292 1223 OFFCURVE",
"225 1106 CURVE SMOOTH",
"158 989 OFFCURVE",
"125 864 OFFCURVE",
"125 731 CURVE SMOOTH"
);
},
{
closed = 1;
nodes = (
"266 840 OFFCURVE",
"293 941 OFFCURVE",
"347 1035 CURVE SMOOTH",
"401 1129 OFFCURVE",
"475 1203 OFFCURVE",
"570 1258 CURVE SMOOTH",
"665 1313 OFFCURVE",
"768 1341 OFFCURVE",
"877 1341 CURVE SMOOTH",
"988 1341 OFFCURVE",
"1090 1313 OFFCURVE",
"1184 1258 CURVE SMOOTH",
"1279 1203 OFFCURVE",
"1353 1128 OFFCURVE",
"1406 1034 CURVE",
"1460 941 OFFCURVE",
"1487 840 OFFCURVE",
"1487 731 CURVE SMOOTH",
"1487 622 OFFCURVE",
"1460 521 OFFCURVE",
"1406 427 CURVE SMOOTH",
"1353 334 OFFCURVE",
"1279 259 OFFCURVE",
"1185 204 CURVE SMOOTH",
"1091 149 OFFCURVE",
"988 121 OFFCURVE",
"877 121 CURVE SMOOTH",
"768 121 OFFCURVE",
"666 148 OFFCURVE",
"571 203 CURVE SMOOTH",
"476 258 OFFCURVE",
"402 332 OFFCURVE",
"347 426 CURVE SMOOTH",
"293 520 OFFCURVE",
"266 622 OFFCURVE",
"266 731 CURVE SMOOTH"
);
}
);
width = 1704;
}
);
unicode = 00AE;
},
{
glyphname = section;
lastChange = "2013-03-10 16:55:05 +0200";
layers = (
{
layerId = UUID0;
name = "Bold Italic";
paths = (
{
closed = 1;
nodes = (
"150 624 OFFCURVE",
"239 529 OFFCURVE",
"395 453 CURVE SMOOTH",
"458 422 OFFCURVE",
"500 396 OFFCURVE",
"522 373 CURVE SMOOTH",
"544 351 OFFCURVE",
"555 327 OFFCURVE",
"555 301 CURVE SMOOTH",
"555 225 OFFCURVE",
"497 174 OFFCURVE",
"365 174 CURVE SMOOTH",
"250 174 OFFCURVE",
"135 209 OFFCURVE",
"20 279 CURVE",
"20 55 LINE",
"108 5 OFFCURVE",
"220 -20 OFFCURVE",
"356 -20 CURVE SMOOTH",
"502 -20 OFFCURVE",
"617 11 OFFCURVE",
"701 72 CURVE SMOOTH",
"785 134 OFFCURVE",
"827 219 OFFCURVE",
"827 326 CURVE SMOOTH",
"827 403 OFFCURVE",
"788 473 OFFCURVE",
"737 520 CURVE",
"866 597 OFFCURVE",
"930 698 OFFCURVE",
"930 823 CURVE SMOOTH",
"930 954 OFFCURVE",
"849 1055 OFFCURVE",
"688 1126 CURVE SMOOTH",
"572 1178 OFFCURVE",
"520 1217 OFFCURVE",
"520 1274 CURVE SMOOTH",
"520 1345 OFFCURVE",
"568 1380 OFFCURVE",
"664 1380 CURVE SMOOTH",
"754 1380 OFFCURVE",
"848 1352 OFFCURVE",
"946 1296 CURVE",
"1028 1489 LINE",
"913 1548 OFFCURVE",
"799 1577 OFFCURVE",
"684 1577 CURVE SMOOTH",
"553 1577 OFFCURVE",
"449 1548 OFFCURVE",
"371 1491 CURVE SMOOTH",
"293 1434 OFFCURVE",
"254 1356 OFFCURVE",
"254 1257 CURVE SMOOTH",
"254 1181 OFFCURVE",
"296 1110 OFFCURVE",
"352 1065 CURVE",
"209 974 OFFCURVE",
"150 879 OFFCURVE",
"150 760 CURVE SMOOTH"
);
},
{
closed = 1;
nodes = (
"623 919 OFFCURVE",
"682 859 OFFCURVE",
"682 786 CURVE SMOOTH",
"682 722 OFFCURVE",
"645 653 OFFCURVE",
"580 612 CURVE",
"447 673 OFFCURVE",
"393 725 OFFCURVE",
"393 797 CURVE SMOOTH",
"393 869 OFFCURVE",
"438 934 OFFCURVE",
"506 967 CURVE"
);
}
);
width = 995;
}
);
unicode = 00A7;
},
{
glyphname = trademark;
lastChange = "2013-03-10 16:55:05 +0200";
layers = (
{
layerId = UUID0;
name = "Bold Italic";
paths = (
{
closed = 1;
nodes = (
"471 1313 LINE",
"670 1313 LINE",
"670 1462 LINE",
"106 1462 LINE",
"106 1313 LINE",
"303 1313 LINE",
"303 741 LINE",
"471 741 LINE"
);
},
{
closed = 1;
nodes = (
"1188 741 LINE",
"1362 1270 LINE",
"1368 1270 LINE",
"1364 1149 LINE",
"1364 741 LINE",
"1532 741 LINE",
"1532 1462 LINE",
"1292 1462 LINE",
"1122 952 LINE",
"963 1462 LINE",
"715 1462 LINE",
"715 741 LINE",
"879 741 LINE",
"879 1159 LINE",
"874 1270 LINE",
"881 1270 LINE",
"1047 741 LINE"
);
}
);
width = 1534;
}
);
unicode = 2122;
},
{
glyphname = acute;
lastChange = "2013-03-10 16:55:05 +0200";
layers = (
{
layerId = UUID0;
name = "Bold Italic";
paths = (
{
closed = 1;
nodes = (
"483 1241 LINE",
"692 1241 LINE",
"749 1282 OFFCURVE",
"814 1335 OFFCURVE",
"886 1399 CURVE SMOOTH",
"958 1464 OFFCURVE",
"1009 1515 OFFCURVE",
"1040 1552 CURVE",
"1040 1569 LINE",
"705 1569 LINE",
"610 1426 OFFCURVE",
"536 1325 OFFCURVE",
"483 1266 CURVE"
);
}
);
width = 1135;
}
);
unicode = 00B4;
},
{
glyphname = breve;
lastChange = "2013-03-10 16:55:05 +0200";
layers = (
{
layerId = UUID0;
name = "Bold Italic";
paths = (
{
closed = 1;
nodes = (
"958 1579 LINE",
"935 1484 OFFCURVE",
"868 1454 OFFCURVE",
"764 1454 CURVE SMOOTH",
"656 1454 OFFCURVE",
"610 1492 OFFCURVE",
"610 1579 CURVE",
"436 1579 LINE",
"432 1560 OFFCURVE",
"430 1538 OFFCURVE",
"430 1513 CURVE SMOOTH",
"430 1345 OFFCURVE",
"550 1241 OFFCURVE",
"754 1241 CURVE SMOOTH",
"979 1241 OFFCURVE",
"1110 1354 OFFCURVE",
"1147 1579 CURVE"
);
}
);
width = 1135;
}
);
unicode = 02D8;
},
{
glyphname = caron;
lastChange = "2013-03-10 16:55:05 +0200";
layers = (
{
layerId = UUID0;
name = "Bold Italic";
paths = (
{
closed = 1;
nodes = (
"377 1544 LINE",
"410 1496 OFFCURVE",
"444 1442 OFFCURVE",
"479 1383 CURVE SMOOTH",
"514 1324 OFFCURVE",
"538 1277 OFFCURVE",
"553 1241 CURVE",
"891 1241 LINE",
"946 1311 OFFCURVE",
"1045 1412 OFFCURVE",
"1186 1544 CURVE",
"1186 1569 LINE",
"969 1569 LINE",
"891 1520 OFFCURVE",
"814 1464 OFFCURVE",
"737 1401 CURVE",
"671 1478 OFFCURVE",
"617 1534 OFFCURVE",
"575 1569 CURVE",
"377 1569 LINE"
);
}
);
width = 1135;
}
);
unicode = 02C7;
},
{
glyphname = cedilla;
lastChange = "2013-03-10 16:55:05 +0200";
layers = (
{
layerId = UUID0;
name = "Bold Italic";
paths = (
{
closed = 1;
nodes = (
"262 -164 OFFCURVE",
"215 -105 OFFCURVE",
"121 -72 CURVE",
"160 0 LINE",
"-25 0 LINE",
"-121 -154 LINE",
"-16 -166 OFFCURVE",
"20 -197 OFFCURVE",
"20 -242 CURVE SMOOTH",
"20 -297 OFFCURVE",
"-14 -324 OFFCURVE",
"-82 -324 CURVE SMOOTH",
"-123 -324 OFFCURVE",
"-165 -316 OFFCURVE",
"-207 -301 CURVE",
"-207 -469 LINE",
"-163 -484 OFFCURVE",
"-112 -492 OFFCURVE",
"-55 -492 CURVE SMOOTH",
"146 -492 OFFCURVE",
"262 -405 OFFCURVE",
"262 -250 CURVE SMOOTH"
);
}
);
width = 420;
}
);
unicode = 00B8;
},
{
glyphname = circumflex;
lastChange = "2013-03-10 16:55:05 +0200";
layers = (
{
layerId = UUID0;
name = "Bold Italic";
paths = (
{
closed = 1;
nodes = (
"1120 1266 LINE",
"1087 1314 OFFCURVE",
"1053 1367 OFFCURVE",
"1018 1426 CURVE SMOOTH",
"983 1485 OFFCURVE",
"959 1533 OFFCURVE",
"944 1569 CURVE",
"606 1569 LINE",
"571 1525 OFFCURVE",
"524 1473 OFFCURVE",
"464 1413 CURVE SMOOTH",
"404 1353 OFFCURVE",
"353 1304 OFFCURVE",
"311 1266 CURVE",
"311 1241 LINE",
"528 1241 LINE",
"613 1294 OFFCURVE",
"690 1350 OFFCURVE",
"760 1409 CURVE",
"826 1332 OFFCURVE",
"880 1276 OFFCURVE",
"922 1241 CURVE",
"1120 1241 LINE"
);
}
);
width = 1135;
}
);
unicode = 02C6;
},
{
glyphname = dieresis;
lastChange = "2013-03-10 16:55:05 +0200";
layers = (
{
layerId = UUID0;
name = "Bold Italic";
paths = (
{
closed = 1;
nodes = (
"397 1309 OFFCURVE",
"442 1272 OFFCURVE",
"532 1272 CURVE SMOOTH",
"641 1272 OFFCURVE",
"692 1335 OFFCURVE",
"692 1432 CURVE SMOOTH",
"692 1504 OFFCURVE",
"648 1540 OFFCURVE",
"559 1540 CURVE SMOOTH",
"456 1540 OFFCURVE",
"397 1486 OFFCURVE",
"397 1382 CURVE SMOOTH"
);
},
{
closed = 1;
nodes = (
"799 1309 OFFCURVE",
"844 1272 OFFCURVE",
"934 1272 CURVE SMOOTH",
"1042 1272 OFFCURVE",
"1094 1335 OFFCURVE",
"1094 1432 CURVE SMOOTH",
"1094 1501 OFFCURVE",
"1048 1540 OFFCURVE",
"961 1540 CURVE SMOOTH",
"857 1540 OFFCURVE",
"799 1486 OFFCURVE",
"799 1382 CURVE SMOOTH"
);
}
);
width = 1135;
}
);
unicode = 00A8;
},
{
glyphname = dotaccent;
lastChange = "2013-03-10 16:55:05 +0200";
layers = (
{
layerId = UUID0;
name = "Bold Italic";
paths = (
{
closed = 1;
nodes = (
"322 1298 OFFCURVE",
"372 1257 OFFCURVE",
"473 1257 CURVE SMOOTH",
"596 1257 OFFCURVE",
"653 1329 OFFCURVE",
"653 1436 CURVE SMOOTH",
"653 1513 OFFCURVE",
"601 1556 OFFCURVE",
"504 1556 CURVE SMOOTH",
"388 1556 OFFCURVE",
"322 1496 OFFCURVE",
"322 1380 CURVE SMOOTH"
);
}
);
width = 608;
}
);
unicode = 02D9;
},
{
glyphname = grave;
lastChange = "2013-03-10 16:55:05 +0200";
layers = (
{
layerId = UUID0;
name = "Bold Italic";
paths = (
{
closed = 1;
nodes = (
"934 1266 LINE",
"881 1369 OFFCURVE",
"843 1470 OFFCURVE",
"819 1569 CURVE",
"508 1569 LINE",
"508 1548 LINE",
"532 1502 OFFCURVE",
"566 1451 OFFCURVE",
"611 1394 CURVE SMOOTH",
"656 1338 OFFCURVE",
"703 1287 OFFCURVE",
"750 1241 CURVE",
"934 1241 LINE"
);
}
);
width = 1135;
}
);
unicode = 0060;
},
{
glyphname = hungarumlaut;
lastChange = "2013-03-10 16:55:05 +0200";
layers = (
{
layerId = UUID0;
name = "Bold Italic";
paths = (
{
closed = 1;
nodes = (
"279 1241 LINE",
"457 1241 LINE",
"521 1287 OFFCURVE",
"589 1341 OFFCURVE",
"662 1404 CURVE SMOOTH",
"735 1467 OFFCURVE",
"786 1517 OFFCURVE",
"815 1552 CURVE",
"815 1569 LINE",
"510 1569 LINE",
"432 1452 OFFCURVE",
"355 1351 OFFCURVE",
"279 1266 CURVE"
);
},
{
closed = 1;
nodes = (
"676 1241 LINE",
"854 1241 LINE",
"918 1287 OFFCURVE",
"986 1341 OFFCURVE",
"1059 1404 CURVE SMOOTH",
"1132 1467 OFFCURVE",
"1183 1517 OFFCURVE",
"1212 1552 CURVE",
"1212 1569 LINE",
"907 1569 LINE",
"829 1452 OFFCURVE",
"752 1351 OFFCURVE",
"676 1266 CURVE"
);
}
);
width = 1135;
}
);
unicode = 02DD;
},
{
glyphname = ogonek;
lastChange = "2013-03-10 16:55:05 +0200";
layers = (
{
layerId = UUID0;
name = "Bold Italic";
paths = (
{
closed = 1;
nodes = (
"43 0 LINE",
"-37 -51 OFFCURVE",
"-93 -100 OFFCURVE",
"-124 -146 CURVE SMOOTH",
"-156 -192 OFFCURVE",
"-172 -242 OFFCURVE",
"-172 -297 CURVE SMOOTH",
"-172 -414 OFFCURVE",
"-87 -492 OFFCURVE",
"49 -492 CURVE SMOOTH",
"102 -492 OFFCURVE",
"157 -484 OFFCURVE",
"213 -467 CURVE",
"213 -291 LINE",
"174 -303 OFFCURVE",
"140 -309 OFFCURVE",
"111 -309 CURVE SMOOTH",
"74 -309 OFFCURVE",
"51 -287 OFFCURVE",
"51 -250 CURVE SMOOTH",
"51 -217 OFFCURVE",
"63 -183 OFFCURVE",
"87 -148 CURVE SMOOTH",
"111 -113 OFFCURVE",
"163 -64 OFFCURVE",
"242 0 CURVE"
);
}
);
width = 422;
}
);
unicode = 02DB;
},
{
glyphname = ring;
lastChange = "2013-03-10 16:55:05 +0200";
layers = (
{
layerId = UUID0;
name = "Bold Italic";
paths = (
{
closed = 1;
nodes = (
"1034 1549 OFFCURVE",
"1010 1606 OFFCURVE",
"962 1649 CURVE SMOOTH",
"914 1692 OFFCURVE",
"853 1714 OFFCURVE",
"780 1714 CURVE SMOOTH",
"706 1714 OFFCURVE",
"646 1693 OFFCURVE",
"600 1650 CURVE SMOOTH",
"555 1607 OFFCURVE",
"532 1550 OFFCURVE",
"532 1477 CURVE SMOOTH",
"532 1403 OFFCURVE",
"555 1345 OFFCURVE",
"601 1302 CURVE SMOOTH",
"647 1260 OFFCURVE",
"707 1239 OFFCURVE",
"780 1239 CURVE SMOOTH",
"856 1239 OFFCURVE",
"917 1261 OFFCURVE",
"964 1305 CURVE SMOOTH",
"1011 1350 OFFCURVE",
"1034 1408 OFFCURVE",
"1034 1479 CURVE SMOOTH"
);
},
{
closed = 1;
nodes = (
"877 1417 OFFCURVE",
"836 1380 OFFCURVE",
"780 1380 CURVE SMOOTH",
"716 1380 OFFCURVE",
"684 1417 OFFCURVE",
"684 1477 CURVE SMOOTH",
"684 1537 OFFCURVE",
"724 1573 OFFCURVE",
"780 1573 CURVE SMOOTH",
"836 1573 OFFCURVE",
"877 1537 OFFCURVE",
"877 1477 CURVE SMOOTH"
);
}
);
width = 1182;
}
);
unicode = 02DA;
},
{
glyphname = tilde;
lastChange = "2013-03-10 16:55:05 +0200";
layers = (
{
layerId = UUID0;
name = "Bold Italic";
paths = (
{
closed = 1;
nodes = (
"1013 1241 OFFCURVE",
"1109 1344 OFFCURVE",
"1153 1550 CURVE",
"981 1550 LINE",
"952 1477 OFFCURVE",
"922 1444 OFFCURVE",
"877 1444 CURVE SMOOTH",
"795 1444 OFFCURVE",
"727 1548 OFFCURVE",
"596 1548 CURVE SMOOTH",
"448 1548 OFFCURVE",
"354 1445 OFFCURVE",
"315 1239 CURVE",
"492 1239 LINE",
"511 1307 OFFCURVE",
"545 1346 OFFCURVE",
"586 1346 CURVE SMOOTH",
"674 1346 OFFCURVE",
"735 1241 OFFCURVE",
"866 1241 CURVE SMOOTH"
);
}
);
width = 1135;
}
);
unicode = 02DC;
},
{
glyphname = "sheva-hb";
lastChange = "2013-03-10 17:05:01 +0200";
layers = (
{
anchors = (
{
name = _bottom;
position = "{670, -112}";
},
{
name = bottom_1;
position = "{65, 0}";
},
{
name = bottom_2;
position = "{65, 0}";
},
{
name = top_1;
position = "{65, 0}";
},
{
name = top_2;
position = "{65, 0}";
}
);
layerId = UUID0;
name = "Bold Italic";
paths = (
{
closed = 1;
nodes = (
"617 -101 OFFCURVE",
"574 -134 OFFCURVE",
"563 -188 CURVE SMOOTH",
"551 -242 OFFCURVE",
"580 -274 OFFCURVE",
"638 -274 CURVE SMOOTH",
"695 -274 OFFCURVE",
"738 -241 OFFCURVE",
"750 -188 CURVE SMOOTH",
"761 -135 OFFCURVE",
"732 -101 OFFCURVE",
"675 -101 CURVE SMOOTH"
);
},
{
closed = 1;
nodes = (
"566 -342 OFFCURVE",
"523 -375 OFFCURVE",
"511 -429 CURVE SMOOTH",
"500 -483 OFFCURVE",
"529 -515 OFFCURVE",
"587 -515 CURVE SMOOTH",
"644 -515 OFFCURVE",
"687 -481 OFFCURVE",
"698 -429 CURVE SMOOTH",
"710 -376 OFFCURVE",
"681 -342 OFFCURVE",
"624 -342 CURVE SMOOTH"
);
}
);
width = 1256;
}
);
unicode = 05B0;
},
{
glyphname = "hatafsegol-hb";
lastChange = "2013-03-10 17:05:01 +0200";
layers = (
{
anchors = (
{
name = _bottom;
position = "{672, -112}";
}
);
layerId = UUID0;
name = "Bold Italic";
paths = (
{
closed = 1;
nodes = (
"660 -116 OFFCURVE",
"618 -149 OFFCURVE",
"607 -203 CURVE SMOOTH",
"595 -257 OFFCURVE",
"622 -289 OFFCURVE",
"682 -289 CURVE SMOOTH",
"739 -289 OFFCURVE",
"784 -256 OFFCURVE",
"796 -203 CURVE SMOOTH",
"807 -151 OFFCURVE",
"776 -116 OFFCURVE",
"719 -116 CURVE SMOOTH"
);
},
{
closed = 1;
nodes = (
"465 -357 OFFCURVE",
"423 -390 OFFCURVE",
"411 -444 CURVE SMOOTH",
"400 -498 OFFCURVE",
"428 -530 OFFCURVE",
"486 -530 CURVE SMOOTH",
"543 -530 OFFCURVE",
"586 -496 OFFCURVE",
"597 -444 CURVE SMOOTH",
"609 -391 OFFCURVE",
"580 -357 OFFCURVE",
"523 -357 CURVE SMOOTH"
);
},
{
closed = 1;
nodes = (
"365 -116 OFFCURVE",
"322 -149 OFFCURVE",
"311 -203 CURVE SMOOTH",
"299 -257 OFFCURVE",
"328 -289 OFFCURVE",
"385 -289 CURVE SMOOTH",
"443 -289 OFFCURVE",
"486 -256 OFFCURVE",
"498 -203 CURVE SMOOTH",
"509 -150 OFFCURVE",
"480 -116 OFFCURVE",
"422 -116 CURVE SMOOTH"
);
},
{
closed = 1;
nodes = (
"876 -357 OFFCURVE",
"833 -390 OFFCURVE",
"821 -444 CURVE SMOOTH",
"810 -498 OFFCURVE",
"839 -530 OFFCURVE",
"897 -530 CURVE SMOOTH",
"954 -530 OFFCURVE",
"997 -496 OFFCURVE",
"1008 -444 CURVE SMOOTH",
"1020 -391 OFFCURVE",
"991 -357 OFFCURVE",
"934 -357 CURVE SMOOTH"
);
},
{
closed = 1;
nodes = (
"927 -116 OFFCURVE",
"884 -149 OFFCURVE",
"873 -203 CURVE SMOOTH",
"861 -257 OFFCURVE",
"890 -289 OFFCURVE",
"948 -289 CURVE SMOOTH",
"1005 -289 OFFCURVE",
"1048 -256 OFFCURVE",
"1060 -203 CURVE SMOOTH",
"1071 -150 OFFCURVE",
"1042 -116 OFFCURVE",
"985 -116 CURVE SMOOTH"
);
}
);
width = 1256;
}
);
unicode = 05B1;
},
{
glyphname = "hatafpatah-hb";
lastChange = "2013-03-10 17:05:01 +0200";
layers = (
{
anchors = (
{
name = _bottom;
position = "{672, -112}";
}
);
layerId = UUID0;
name = "Bold Italic";
paths = (
{
closed = 1;
nodes = (
"389 -142 LINE",
"365 -259 LINE",
"732 -259 LINE",
"756 -142 LINE"
);
},
{
closed = 1;
nodes = (
"831 -357 OFFCURVE",
"789 -390 OFFCURVE",
"777 -444 CURVE SMOOTH",
"766 -498 OFFCURVE",
"794 -530 OFFCURVE",
"852 -530 CURVE SMOOTH",
"909 -530 OFFCURVE",
"952 -496 OFFCURVE",
"963 -444 CURVE SMOOTH",
"975 -391 OFFCURVE",
"946 -357 OFFCURVE",
"889 -357 CURVE SMOOTH"
);
},
{
closed = 1;
nodes = (
"882 -116 OFFCURVE",
"840 -149 OFFCURVE",
"829 -203 CURVE SMOOTH",
"817 -257 OFFCURVE",
"845 -289 OFFCURVE",
"903 -289 CURVE SMOOTH",
"960 -289 OFFCURVE",
"1003 -256 OFFCURVE",
"1015 -203 CURVE SMOOTH",
"1026 -150 OFFCURVE",
"997 -116 OFFCURVE",
"940 -116 CURVE SMOOTH"
);
}
);
width = 1256;
}
);
unicode = 05B2;
},
{
glyphname = "hatafqamats-hb";
lastChange = "2013-03-10 17:05:01 +0200";
layers = (
{
anchors = (
{
name = _bottom;
position = "{672, -112}";
}
);
layerId = UUID0;
name = "Bold Italic";
paths = (
{
closed = 1;
nodes = (
"389 -142 LINE",
"365 -259 LINE",
"493 -259 LINE",
"450 -461 LINE",
"561 -461 LINE",
"604 -259 LINE",
"732 -259 LINE",
"756 -142 LINE"
);
},
{
closed = 1;
nodes = (
"835 -357 OFFCURVE",
"792 -390 OFFCURVE",
"780 -444 CURVE SMOOTH",
"769 -498 OFFCURVE",
"798 -530 OFFCURVE",
"856 -530 CURVE SMOOTH",
"913 -530 OFFCURVE",
"956 -496 OFFCURVE",
"967 -444 CURVE SMOOTH",
"979 -391 OFFCURVE",
"950 -357 OFFCURVE",
"893 -357 CURVE SMOOTH"
);
},
{
closed = 1;
nodes = (
"886 -116 OFFCURVE",
"843 -149 OFFCURVE",
"832 -203 CURVE SMOOTH",
"820 -257 OFFCURVE",
"849 -289 OFFCURVE",
"907 -289 CURVE SMOOTH",
"964 -289 OFFCURVE",
"1007 -256 OFFCURVE",
"1019 -203 CURVE SMOOTH",
"1030 -150 OFFCURVE",
"1001 -116 OFFCURVE",
"944 -116 CURVE SMOOTH"
);
}
);
width = 1256;
}
);
unicode = 05B3;
},
{
glyphname = "hiriq-hb";
lastChange = "2013-03-10 17:05:01 +0200";
layers = (
{
anchors = (
{
name = _bottom;
position = "{646, -112}";
}
);
layerId = UUID0;
name = "Bold Italic";
paths = (
{
closed = 1;
nodes = (
"587 -111 OFFCURVE",
"545 -144 OFFCURVE",
"534 -198 CURVE SMOOTH",
"522 -252 OFFCURVE",
"550 -284 OFFCURVE",
"610 -284 CURVE SMOOTH",
"668 -284 OFFCURVE",
"712 -250 OFFCURVE",
"723 -198 CURVE SMOOTH",
"734 -146 OFFCURVE",
"704 -111 OFFCURVE",
"646 -111 CURVE SMOOTH"
);
}
);
width = 1256;
}
);
unicode = 05B4;
},
{
glyphname = "tsere-hb";
lastChange = "2013-03-10 17:05:01 +0200";
layers = (
{
anchors = (
{
name = _bottom;
position = "{642, -112}";
}
);
layerId = UUID0;
name = "Bold Italic";
paths = (
{
closed = 1;
nodes = (
"735 -92 OFFCURVE",
"693 -125 OFFCURVE",
"682 -179 CURVE SMOOTH",
"670 -233 OFFCURVE",
"699 -265 OFFCURVE",
"759 -265 CURVE SMOOTH",
"816 -265 OFFCURVE",
"861 -231 OFFCURVE",
"872 -179 CURVE SMOOTH",
"883 -127 OFFCURVE",
"852 -92 OFFCURVE",
"795 -92 CURVE SMOOTH"
);
},
{
closed = 1;
nodes = (
"440 -92 OFFCURVE",
"398 -125 OFFCURVE",
"387 -179 CURVE SMOOTH",
"375 -233 OFFCURVE",
"404 -265 OFFCURVE",
"462 -265 CURVE SMOOTH",
"519 -265 OFFCURVE",
"562 -231 OFFCURVE",
"573 -179 CURVE SMOOTH",
"584 -126 OFFCURVE",
"555 -92 OFFCURVE",
"498 -92 CURVE SMOOTH"
);
}
);
width = 1256;
}
);
unicode = 05B5;
},
{
glyphname = "segol-hb";
lastChange = "2013-03-10 17:05:01 +0200";
layers = (
{
anchors = (
{
name = _bottom;
position = "{673, -112}";
}
);
layerId = UUID0;
name = "Bold Italic";
paths = (
{
closed = 1;
nodes = (
"761 -116 OFFCURVE",
"719 -149 OFFCURVE",
"708 -203 CURVE SMOOTH",
"696 -257 OFFCURVE",
"724 -289 OFFCURVE",
"784 -289 CURVE SMOOTH",
"841 -289 OFFCURVE",
"886 -256 OFFCURVE",
"898 -203 CURVE SMOOTH",
"909 -151 OFFCURVE",
"878 -116 OFFCURVE",
"821 -116 CURVE SMOOTH"
);
},
{
closed = 1;
nodes = (
"567 -357 OFFCURVE",
"524 -390 OFFCURVE",
"512 -444 CURVE SMOOTH",
"501 -498 OFFCURVE",
"530 -530 OFFCURVE",
"588 -530 CURVE SMOOTH",
"645 -530 OFFCURVE",
"688 -496 OFFCURVE",
"699 -444 CURVE SMOOTH",
"711 -391 OFFCURVE",
"682 -357 OFFCURVE",
"625 -357 CURVE SMOOTH"
);
},
{
closed = 1;
nodes = (
"466 -116 OFFCURVE",
"424 -149 OFFCURVE",
"413 -203 CURVE SMOOTH",
"401 -257 OFFCURVE",
"429 -289 OFFCURVE",
"487 -289 CURVE SMOOTH",
"544 -289 OFFCURVE",
"587 -256 OFFCURVE",
"599 -203 CURVE SMOOTH",
"610 -150 OFFCURVE",
"581 -116 OFFCURVE",
"524 -116 CURVE SMOOTH"
);
}
);
width = 1256;
}
);
unicode = 05B6;
},
{
glyphname = "patah-hb";
lastChange = "2013-03-10 17:05:01 +0200";
layers = (
{
anchors = (
{
name = _bottom;
position = "{636, -137}";
}
);
layerId = UUID0;
name = "Bold Italic";
paths = (
{
closed = 1;
nodes = (
"444 -118 LINE",
"420 -234 LINE",
"813 -234 LINE",
"837 -118 LINE"
);
}
);
width = 1256;
}
);
unicode = 05B7;
},
{
glyphname = "qamats-hb";
lastChange = "2013-03-10 17:05:01 +0200";
layers = (
{
anchors = (
{
name = _bottom;
position = "{662, -137}";
}
);
layerId = UUID0;
name = "Bold Italic";
paths = (
{
closed = 1;
nodes = (
"472 -138 LINE",
"447 -255 LINE",
"582 -255 LINE",
"539 -457 LINE",
"650 -457 LINE",
"693 -255 LINE",
"829 -255 LINE",
"854 -138 LINE"
);
}
);
width = 1256;
}
);
unicode = 05B8;
},
{
glyphname = "holam-hb";
lastChange = "2013-03-10 17:05:01 +0200";
layers = (
{
anchors = (
{
name = _topleft;
position = "{548, 1118}";
}
);
layerId = UUID0;
name = "Bold Italic";
paths = (
{
closed = 1;
nodes = (
"588 1583 OFFCURVE",
"546 1550 OFFCURVE",
"535 1496 CURVE SMOOTH",
"523 1442 OFFCURVE",
"551 1410 OFFCURVE",
"611 1410 CURVE SMOOTH",
"669 1410 OFFCURVE",
"713 1444 OFFCURVE",
"724 1496 CURVE SMOOTH",
"735 1548 OFFCURVE",
"705 1583 OFFCURVE",
"647 1583 CURVE SMOOTH"
);
}
);
width = 1256;
}
);
unicode = 05B9;
},
{
glyphname = "holamhaser-hb";
lastChange = "2013-03-10 17:05:01 +0200";
layers = (
{
anchors = (
{
name = _topleft;
position = "{547, 1118}";
}
);
layerId = UUID0;
name = "Bold Italic";
paths = (
{
closed = 1;
nodes = (
"588 1583 OFFCURVE",
"546 1550 OFFCURVE",
"535 1496 CURVE SMOOTH",
"523 1442 OFFCURVE",
"551 1410 OFFCURVE",
"611 1410 CURVE SMOOTH",
"669 1410 OFFCURVE",
"713 1444 OFFCURVE",
"724 1496 CURVE SMOOTH",
"735 1548 OFFCURVE",
"705 1583 OFFCURVE",
"647 1583 CURVE SMOOTH"
);
}
);
width = 600;
}
);
unicode = 05BA;
},
{
glyphname = "qubuts-hb";
lastChange = "2013-03-10 17:05:01 +0200";
layers = (
{
anchors = (
{
name = _bottom;
position = "{687, -112}";
}
);
layerId = UUID0;
name = "Bold Italic";
paths = (
{
closed = 1;
nodes = (
"776 -478 OFFCURVE",
"734 -511 OFFCURVE",
"723 -565 CURVE SMOOTH",
"711 -619 OFFCURVE",
"738 -651 OFFCURVE",
"798 -651 CURVE SMOOTH",
"856 -651 OFFCURVE",
"901 -617 OFFCURVE",
"912 -565 CURVE SMOOTH",
"923 -513 OFFCURVE",
"893 -478 OFFCURVE",
"835 -478 CURVE SMOOTH"
);
},
{
closed = 1;
nodes = (
"485 -127 OFFCURVE",
"443 -160 OFFCURVE",
"431 -214 CURVE SMOOTH",
"420 -268 OFFCURVE",
"448 -300 OFFCURVE",
"506 -300 CURVE SMOOTH",
"563 -300 OFFCURVE",
"606 -267 OFFCURVE",
"617 -214 CURVE SMOOTH",
"628 -161 OFFCURVE",
"600 -127 OFFCURVE",
"543 -127 CURVE SMOOTH"
);
},
{
closed = 1;
nodes = (
"629 -303 OFFCURVE",
"586 -336 OFFCURVE",
"575 -390 CURVE SMOOTH",
"563 -444 OFFCURVE",
"593 -476 OFFCURVE",
"651 -476 CURVE SMOOTH",
"708 -476 OFFCURVE",
"751 -442 OFFCURVE",
"762 -390 CURVE SMOOTH",
"773 -337 OFFCURVE",
"744 -303 OFFCURVE",
"687 -303 CURVE SMOOTH"
);
}
);
width = 1256;
}
);
unicode = 05BB;
},
{
glyphname = "dagesh-hb";
lastChange = "2013-03-10 17:05:01 +0200";
layers = (
{
anchors = (
{
name = _center;
position = "{626, 648}";
}
);
layerId = UUID0;
name = "Bold Italic";
paths = (
{
closed = 1;
nodes = (
"587 743 OFFCURVE",
"545 710 OFFCURVE",
"534 656 CURVE SMOOTH",
"522 602 OFFCURVE",
"550 570 OFFCURVE",
"610 570 CURVE SMOOTH",
"668 570 OFFCURVE",
"712 604 OFFCURVE",
"723 656 CURVE SMOOTH",
"734 708 OFFCURVE",
"704 743 OFFCURVE",
"646 743 CURVE SMOOTH"
);
}
);
width = 1256;
}
);
unicode = 05BC;
},
{
glyphname = uni05BD;
lastChange = "2013-03-10 17:05:01 +0200";
layers = (
{
anchors = (
{
name = _bottom;
position = "{669, -137}";
}
);
layerId = UUID0;
name = "Bold Italic";
paths = (
{
closed = 1;
nodes = (
"613 -157 LINE",
"539 -509 LINE",
"642 -509 LINE",
"716 -157 LINE"
);
}
);
width = 1256;
}
);
unicode = 05BD;
},
{
glyphname = "shindot-hb";
lastChange = "2013-03-10 17:05:01 +0200";
layers = (
{
anchors = (
{
name = _topright;
position = "{608, 1118}";
}
);
layerId = UUID0;
name = "Bold Italic";
paths = (
{
closed = 1;
nodes = (
"535 1583 OFFCURVE",
"493 1550 OFFCURVE",
"482 1496 CURVE SMOOTH",
"470 1442 OFFCURVE",
"498 1410 OFFCURVE",
"558 1410 CURVE SMOOTH",
"616 1410 OFFCURVE",
"660 1444 OFFCURVE",
"671 1496 CURVE SMOOTH",
"682 1548 OFFCURVE",
"652 1583 OFFCURVE",
"594 1583 CURVE SMOOTH"
);
}
);
width = 1256;
}
);
unicode = 05C1;
},
{
glyphname = "sindot-hb";
lastChange = "2013-03-10 17:05:01 +0200";
layers = (
{
anchors = (
{
name = _topleft;
position = "{548, 1118}";
}
);
layerId = UUID0;
name = "Bold Italic";
paths = (
{
closed = 1;
nodes = (
"588 1583 OFFCURVE",
"546 1550 OFFCURVE",
"535 1496 CURVE SMOOTH",
"523 1442 OFFCURVE",
"551 1410 OFFCURVE",
"611 1410 CURVE SMOOTH",
"669 1410 OFFCURVE",
"713 1444 OFFCURVE",
"724 1496 CURVE SMOOTH",
"735 1548 OFFCURVE",
"705 1583 OFFCURVE",
"647 1583 CURVE SMOOTH"
);
}
);
width = 1256;
}
);
unicode = 05C2;
},
{
glyphname = "qamatsqatan-hb";
lastChange = "2013-03-10 17:05:01 +0200";
layers = (
{
anchors = (
{
name = _bottom;
position = "{372, 20}";
}
);
layerId = UUID0;
name = "Bold Italic";
paths = (
{
closed = 1;
nodes = (
"146 -110 LINE",
"125 -210 LINE",
"281 -210 LINE",
"232 -444 LINE",
"325 -444 LINE",
"374 -210 LINE",
"535 -210 LINE",
"556 -110 LINE"
);
}
);
width = 600;
}
);
unicode = 05C7;
},
{
glyphname = "sheqel-hb";
lastChange = "2013-03-10 17:04:12 +0200";
layers = (
{
layerId = UUID0;
name = "Bold Italic";
paths = (
{
closed = 1;
nodes = (
"297 1290 LINE",
"23 0 LINE",
"327 0 LINE",
"552 1057 LINE",
"882 1057 LINE SMOOTH",
"1141 1057 OFFCURVE",
"1186 975 OFFCURVE",
"1133 727 CURVE SMOOTH",
"1077 463 LINE",
"1369 463 LINE",
"1425 727 LINE SMOOTH",
"1487 1019 OFFCURVE",
"1522 1290 OFFCURVE",
"931 1290 CURVE SMOOTH"
);
},
{
closed = 1;
nodes = (
"1721 1290 LINE",
"1612 776 LINE SMOOTH",
"1550 485 OFFCURVE",
"1334 233 OFFCURVE",
"1018 233 CURVE SMOOTH",
"854 233 LINE",
"981 827 LINE",
"677 827 LINE",
"501 0 LINE",
"970 0 LINE SMOOTH",
"1592 0 OFFCURVE",
"1835 454 OFFCURVE",
"1904 776 CURVE SMOOTH",
"2013 1290 LINE"
);
}
);
width = 2026;
}
);
unicode = 20AA;
},
{
glyphname = overscore;
lastChange = "2013-03-10 16:55:05 +0200";
layers = (
{
layerId = UUID0;
name = "Bold Italic";
paths = (
{
closed = 1;
nodes = (
"1075 1757 LINE",
"39 1757 LINE",
"-6 1556 LINE",
"1030 1556 LINE"
);
}
);
width = 1024;
}
);
unicode = 00AF;
},
